<svg width="390" height="360" viewBox="0 0 390 360" fill="none" xmlns="http://www.w3.org/2000/svg">
  <path d="M-210 339.114C-210 339.114 -119.114 265.359 -81.8873 285.358C-44.6605 305.358 17.2055 451.061 63.2193 448.541C109.233 446.02 254.835 261.373 280.188 276.676C318.96 300.031 389.661 567.537 389.661 567.537" stroke="#FF6365" stroke-width="0.514022"/>
  <path d="M-208.031 339.622C-208.031 339.622 -116.554 265.461 -79.3535 285.49C-42.1533 305.518 19.7392 451.192 65.753 448.672C111.767 446.151 257.368 261.505 282.722 276.808C321.494 300.162 391.706 565.459 391.706 565.459" stroke="#FC6268" stroke-width="0.514022"/>
  <path d="M-206.116 340.132C-206.116 340.132 -114.047 265.621 -76.82 285.621C-39.5932 305.621 22.2728 451.324 68.2866 448.803C114.274 446.311 259.902 261.636 285.255 276.939C324.028 300.293 393.722 563.354 393.722 563.354" stroke="#F9626B" stroke-width="0.514022"/>
  <path d="M-204.173 340.669C-204.173 340.669 -111.511 265.807 -74.2844 285.807C-37.0576 305.807 24.8083 451.51 70.8222 448.989C116.836 446.468 262.437 261.822 287.791 277.125C326.563 300.479 395.769 561.331 395.769 561.331" stroke="#F7616E" stroke-width="0.514022"/>
  <path d="M-202.204 341.177C-202.204 341.177 -108.923 265.936 -71.7224 285.964C-34.5221 305.993 27.3704 451.667 73.3842 449.146C119.398 446.626 265 261.979 290.353 277.282C329.125 300.637 397.842 559.278 397.842 559.278" stroke="#F46171" stroke-width="0.514022"/>
  <path d="M-200.261 341.714C-200.261 341.714 -106.416 266.095 -69.1604 286.122C-31.9336 306.122 29.9324 451.825 75.9462 449.304C121.934 446.812 267.562 262.137 292.915 277.44C331.687 300.794 399.887 557.2 399.887 557.2" stroke="#F16074" stroke-width="0.514022"/>
  <path d="M-198.32 342.196C-198.32 342.196 -103.882 266.227 -66.6549 286.227C-29.4281 306.227 32.4378 451.929 78.4516 449.409C124.465 446.888 270.095 262.268 295.449 277.571C334.221 300.926 401.932 555.122 401.932 555.122" stroke="#EE5F77" stroke-width="0.514022"/>
  <path d="M-196.377 342.732C-196.377 342.732 -101.32 266.384 -64.0932 286.384C-26.8664 306.384 34.9996 452.087 81.0134 449.566C127.027 447.046 272.629 262.399 297.982 277.702C336.754 301.057 403.976 553.043 403.976 553.043" stroke="#EB5F7A" stroke-width="0.514022"/>
  <path d="M-194.408 343.24C-194.408 343.24 -98.758 266.542 -61.5312 286.541C-24.3044 306.541 37.5615 452.244 83.5753 449.724C129.563 447.231 275.191 262.556 300.544 277.859C339.316 301.214 406.048 550.936 406.048 550.936" stroke="#E85E7D" stroke-width="0.514022"/>
  <path d="M-192.493 343.751C-192.493 343.751 -96.2507 266.701 -59.0239 286.701C-21.7971 306.701 40.0689 452.404 86.0827 449.883C132.096 447.363 277.698 262.716 303.078 277.991C341.85 301.345 408.093 548.858 408.093 548.858" stroke="#E65E80" stroke-width="0.514022"/>
  <path d="M-190.524 344.259C-190.524 344.259 -93.6904 266.804 -56.4352 286.83C-19.18 306.857 42.6576 452.533 88.6714 450.013C134.685 447.492 280.287 262.845 305.64 278.148C344.413 301.503 410.138 546.779 410.138 546.779" stroke="#E35D83" stroke-width="0.514022"/>
  <path d="M-188.581 344.796C-188.581 344.796 -91.155 266.99 -53.9282 286.99C-16.7014 306.99 45.1645 452.693 91.1783 450.172C137.166 447.68 282.794 263.005 308.147 278.308C346.919 301.662 412.156 544.729 412.156 544.729" stroke="#E05D86" stroke-width="0.514022"/>
  <path d="M-186.611 345.304C-186.611 345.304 -88.5664 267.119 -51.3661 287.148C-14.1393 307.147 47.7267 452.85 93.7405 450.33C139.754 447.809 285.356 263.162 310.709 278.465C349.482 301.82 414.201 542.65 414.201 542.65" stroke="#DD5C89" stroke-width="0.514022"/>
  <path d="M-184.697 345.814C-184.697 345.814 -86.0594 267.279 -48.8326 287.279C-11.6058 307.278 50.2601 452.981 96.2739 450.461C142.288 447.94 287.889 263.293 313.243 278.596C352.015 301.951 416.245 540.572 416.245 540.572" stroke="#DA5B8C" stroke-width="0.514022"/>
  <path d="M-182.728 346.322C-182.728 346.322 -83.4973 267.436 -46.2705 287.436C-9.04374 307.436 52.8222 453.139 98.836 450.618C144.823 448.126 290.451 263.451 315.805 278.754C354.577 302.109 418.319 538.52 418.319 538.52" stroke="#D75B8F" stroke-width="0.514022"/>
  <path d="M-180.785 346.859C-180.785 346.859 -80.9638 267.567 -43.7635 287.596C-6.53674 307.596 55.3293 453.298 101.343 450.778C147.357 448.257 292.958 263.611 318.312 278.914C357.084 302.268 420.308 536.443 420.308 536.443" stroke="#D55A92" stroke-width="0.514022"/>
  <path d="M-178.844 347.341C-178.844 347.341 -78.4301 267.698 -41.2033 287.698C-3.97653 307.698 57.8894 453.401 103.903 450.88C149.917 448.36 295.519 263.713 320.872 279.016C359.644 302.371 422.38 534.336 422.38 534.336" stroke="#D25A95" stroke-width="0.514022"/>
  <path d="M-176.901 347.877C-176.901 347.877 -75.8946 267.884 -38.6678 287.884C-1.44104 307.884 60.4249 453.587 106.439 451.066C152.426 448.574 298.054 263.899 323.407 279.202C362.18 302.557 424.426 532.313 424.426 532.313" stroke="#CF5998" stroke-width="0.514022"/>
  <path d="M-174.931 348.386C-174.931 348.386 -73.3059 268.013 -36.0791 288.013C1.14772 308.013 63.0137 453.716 109.027 451.196C155.041 448.675 300.616 264.057 325.97 279.36C364.742 302.714 426.471 530.234 426.471 530.234" stroke="#CC589B" stroke-width="0.514022"/>
  <path d="M-172.989 348.922C-172.989 348.922 -70.7703 268.2 -33.5435 288.2C3.6833 308.199 65.5493 453.902 111.563 451.382C157.577 448.861 303.15 264.188 328.503 279.491C367.276 302.846 428.543 528.127 428.543 528.127" stroke="#C9589E" stroke-width="0.514022"/>
  <path d="M-171.048 349.404C-171.048 349.404 -68.2655 268.304 -31.0387 288.304C6.18812 308.304 68.0541 454.007 114.068 451.486C160.055 448.994 305.683 264.319 331.037 279.622C369.809 302.976 430.587 526.048 430.587 526.048" stroke="#C757A1" stroke-width="0.514022"/>
  <path d="M-169.105 349.941C-169.105 349.941 -65.7031 268.462 -28.4762 288.462C8.75056 308.462 70.6165 454.165 116.63 451.644C162.644 449.123 308.246 264.477 333.599 279.78C372.371 303.134 432.632 523.97 432.632 523.97" stroke="#C457A4" stroke-width="0.514022"/>
  <path d="M-167.135 350.449C-167.135 350.449 -63.1411 268.619 -25.9143 288.619C11.3125 308.619 73.1785 454.322 119.192 451.801C165.206 449.281 310.808 264.634 336.161 279.937C374.933 303.292 434.705 521.918 434.705 521.918" stroke="#C156A7" stroke-width="0.514022"/>
  <path d="M-165.221 350.959C-165.221 350.959 -60.6076 268.75 -23.4073 288.779C13.8195 308.779 75.6855 454.481 121.699 451.961C167.687 449.469 313.315 264.794 338.668 280.097C377.44 303.451 436.695 519.841 436.695 519.841" stroke="#BE55AA" stroke-width="0.514022"/>
  <path d="M-163.252 351.467C-163.252 351.467 -58.0456 268.908 -20.8188 288.908C16.408 308.908 78.2739 454.61 124.288 452.09C170.302 449.569 315.877 264.951 341.256 280.226C380.029 303.58 438.795 517.761 438.795 517.761" stroke="#BB55AD" stroke-width="0.514022"/>
  <path d="M-161.308 352.004C-161.308 352.004 -55.5381 269.067 -18.3113 289.067C18.9155 309.067 80.7815 454.77 126.795 452.25C172.809 449.729 318.439 265.109 343.792 280.412C382.565 303.766 440.842 515.738 440.842 515.738" stroke="#B854B0" stroke-width="0.514022"/>
  <path d="M-159.339 352.513C-159.339 352.513 -52.9495 269.197 -15.7492 289.225C21.4776 309.225 83.3436 454.928 129.357 452.407C175.345 449.915 320.973 265.24 346.326 280.543C385.099 303.898 442.858 513.633 442.858 513.633" stroke="#B654B4" stroke-width="0.514022"/>
  <path d="M-157.425 353.023C-157.425 353.023 -50.4427 269.356 -13.2159 289.356C24.0109 309.356 85.8769 455.059 131.891 452.538C177.904 450.018 323.506 265.371 348.859 280.674C387.632 304.028 444.903 511.554 444.903 511.554" stroke="#B353B7" stroke-width="0.514022"/>
  <path d="M-155.455 353.531C-155.455 353.531 -47.8805 269.514 -10.6537 289.514C26.5731 309.513 88.4391 455.216 134.453 452.696C180.467 450.175 326.068 265.528 351.422 280.831C390.194 304.186 446.948 509.475 446.948 509.475" stroke="#B053BA" stroke-width="0.514022"/>
  <path d="M-153.512 354.067C-153.512 354.067 -45.3185 269.671 -8.09172 289.671C29.1351 309.671 91.0011 455.374 137.015 452.853C183.002 450.361 328.63 265.686 353.984 280.989C392.756 304.344 449.021 507.423 449.021 507.423" stroke="#AD52BD" stroke-width="0.514022"/>
  <path d="M-151.543 354.576C-151.543 354.576 -42.7849 269.803 -5.55812 289.802C31.6687 309.802 93.5346 455.505 139.548 452.985C185.562 450.464 331.164 265.817 356.517 281.12C395.29 304.475 451.066 505.345 451.066 505.345" stroke="#AA51C0" stroke-width="0.514022"/>
  <path d="M-149.629 355.086C-149.629 355.086 -40.2778 269.962 -3.05095 289.962C34.1759 309.962 96.0418 455.665 142.056 453.144C188.069 450.624 333.699 266.003 359.053 281.306C397.825 304.661 453.11 503.267 453.11 503.267" stroke="#A751C3" stroke-width="0.514022"/>
  <path d="M-147.659 355.594C-147.659 355.594 -37.6893 270.091 -0.462455 290.091C36.7643 310.091 98.6303 455.794 144.644 453.273C190.631 450.781 336.259 266.106 361.613 281.409C400.385 304.764 455.182 501.16 455.182 501.16" stroke="#A550C6" stroke-width="0.514022"/>
  <path d="M-145.716 356.131C-145.716 356.131 -35.1539 270.277 2.07295 290.277C39.2997 310.277 101.166 455.98 147.18 453.459C193.193 450.938 338.795 266.292 364.148 281.595C402.921 304.949 457.228 499.136 457.228 499.136" stroke="#A250C9" stroke-width="0.514022"/>
  <path d="M-143.775 356.613C-143.775 356.613 -32.5936 270.38 4.60674 290.408C41.807 310.436 103.7 456.111 149.713 453.59C195.727 451.07 341.329 266.423 366.682 281.726C405.454 305.081 459.245 497.031 459.245 497.031" stroke="#9F4FCC" stroke-width="0.514022"/>
  <path d="M-141.832 357.149C-141.832 357.149 -30.0864 270.539 7.14039 290.539C44.3672 310.539 106.233 456.242 152.247 453.721C198.263 451.256 343.864 266.609 369.244 281.884C408.016 305.238 461.318 494.979 461.318 494.979" stroke="#9C4ECF" stroke-width="0.514022"/>
  <path d="M-139.863 357.657C-139.863 357.657 -27.5243 270.697 9.70252 290.697C46.9293 310.697 108.795 456.399 154.809 453.879C200.823 451.358 346.398 266.74 371.778 282.015C410.55 305.369 463.334 492.874 463.334 492.874" stroke="#994ED2" stroke-width="0.514022"/>
  <path d="M-137.92 358.194C-137.92 358.194 -24.9621 270.854 12.2382 290.883C49.4385 310.911 111.331 456.586 157.345 454.065C203.359 451.544 348.96 266.898 374.313 282.201C413.086 305.555 465.381 490.85 465.381 490.85" stroke="#974DD5" stroke-width="0.514022"/>
  <path d="M-135.979 358.676C-135.979 358.676 -22.4287 270.985 14.7981 290.985C52.0249 310.985 113.891 456.688 159.905 454.167C205.892 451.675 351.52 267 376.873 282.303C415.646 305.658 467.452 488.743 467.452 488.743" stroke="#944DD8" stroke-width="0.514022"/>
  <path d="M-134.036 359.213C-134.036 359.213 -19.8933 271.172 17.3335 291.171C54.5603 311.171 116.426 456.874 162.44 454.354C208.427 451.861 354.055 267.186 379.409 282.489C418.181 305.844 469.471 486.693 469.471 486.693" stroke="#914CDB" stroke-width="0.514022"/>
  <path d="M-132.093 359.749C-132.093 359.749 -17.3595 271.303 19.8673 291.302C57.0941 311.302 118.96 457.005 164.974 454.485C210.988 451.964 356.589 267.317 381.943 282.62C420.715 305.975 471.516 484.615 471.516 484.615" stroke="#8E4BDE" stroke-width="0.514022"/>
  <path d="M-130.152 360.231C-130.152 360.231 -14.8258 271.434 22.401 291.434C59.6278 311.433 121.494 457.136 167.508 454.616C213.495 452.124 359.123 267.448 384.476 282.751C423.249 306.106 473.56 482.536 473.56 482.536" stroke="#8B4BE1" stroke-width="0.514022"/>
  <path d="M-128.21 360.768C-128.21 360.768 -12.2905 271.62 24.9363 291.619C62.1631 311.619 124.029 457.322 170.043 454.802C216.03 452.309 361.658 267.634 387.012 282.937C425.784 306.292 475.605 480.458 475.605 480.458" stroke="#884AE4" stroke-width="0.514022"/>
  <path d="M-126.24 361.276C-126.24 361.276 -9.70179 271.749 27.525 291.749C64.7518 311.748 126.618 457.451 172.605 454.959C218.592 452.467 364.22 267.792 389.574 283.095C428.346 306.45 477.678 478.406 477.678 478.406" stroke="#864AE7" stroke-width="0.514022"/>
  <path d="M-124.297 361.813C-124.297 361.813 -7.16604 271.935 30.0608 291.935C67.2876 311.935 129.153 457.638 175.167 455.117C221.181 452.596 366.783 267.95 392.136 283.253C430.908 306.607 479.723 476.327 479.723 476.327" stroke="#8349EA" stroke-width="0.514022"/>
  <path d="M-122.356 362.294C-122.356 362.294 -4.63463 272.011 32.5657 292.039C69.7924 312.039 131.658 457.742 177.672 455.221C223.659 452.729 369.287 268.054 394.641 283.357C433.413 306.712 481.739 474.222 481.739 474.222" stroke="#8049ED" stroke-width="0.514022"/>
  <path d="M-120.413 362.831C-120.413 362.831 -2.09893 272.197 35.1279 292.197C72.3547 312.197 134.221 457.9 180.234 455.379C226.248 452.858 371.85 268.212 397.203 283.515C435.976 306.869 483.813 472.17 483.813 472.17" stroke="#7D48F0" stroke-width="0.514022"/>
  <path d="M-118.444 363.339C-118.444 363.339 0.46287 272.354 37.6897 292.354C74.9165 312.354 136.782 458.057 182.796 455.537C228.81 453.016 374.412 268.369 399.765 283.672C438.537 307.027 485.857 470.092 485.857 470.092" stroke="#7A47F3" stroke-width="0.514022"/>
  <path d="M-116.529 363.849C-116.529 363.849 2.99676 272.486 40.1971 292.514C77.4239 312.514 139.29 458.217 185.304 455.696C231.291 453.204 376.919 268.529 402.272 283.832C441.045 307.186 487.876 468.041 487.876 468.041" stroke="#7747F6" stroke-width="0.514022"/>
  <path d="M-114.56 364.358C-114.56 364.358 5.55899 272.643 42.7858 292.643C80.0126 312.643 141.879 458.346 187.892 455.825C233.906 453.305 379.508 268.658 404.861 283.961C443.633 307.316 489.947 465.935 489.947 465.935" stroke="#7546F9" stroke-width="0.514022"/>
  <path d="M-112.617 364.894C-112.617 364.894 8.06591 272.803 45.2927 292.802C82.5195 312.802 144.385 458.505 190.399 455.985C236.387 453.492 382.015 268.817 407.368 284.12C446.14 307.475 491.965 463.884 491.965 463.884" stroke="#7246FC" stroke-width="0.514022"/>
  <path d="M-110.648 365.403C-110.648 365.403 10.6542 272.932 47.881 292.932C85.1078 312.932 146.974 458.634 192.988 456.114C238.975 453.622 384.603 268.947 409.956 284.25C448.729 307.604 494.065 461.804 494.065 461.804" stroke="#6F45FF" stroke-width="0.514022"/>
</svg>
