<svg width="272" height="449" viewBox="0 0 272 449" fill="none" xmlns="http://www.w3.org/2000/svg">
  <path d="M1 -221C1 -221 116.814 -188.136 121.969 -144.956C127.124 -101.776 36.3275 -23.4133 65.6206 13.8491C94.9136 51.1115 330.537 127.156 343.325 154.822C358.272 187.247 374.656 224.43 317.509 296.396C273.829 351.41 222.996 385.274 241.579 430.732" stroke="#1C0E40" stroke-width="0.528818"/>
  <path d="M1.71948 -219.081C1.71948 -219.081 118.172 -185.937 123.368 -142.757C128.523 -99.5775 37.6864 -20.175 67.0194 17.0874C96.1926 54.1499 330.577 128.435 344.205 156.222C353.236 174.653 362.228 194.843 357.432 222.31C353.796 242.701 342.766 266.809 319.108 297.195C275.628 353.089 227.232 386.513 245.455 431.092" stroke="#1E0F44" stroke-width="0.528818"/>
  <path d="M2.43872 -217.122C2.43872 -217.122 119.571 -183.698 124.726 -140.478C129.882 -97.2585 39.0051 -16.8565 68.3381 20.366C97.3515 57.2685 330.497 129.714 345.004 157.621C354.435 175.813 363.387 195.923 358.511 223.23C354.795 243.74 343.685 267.689 320.586 297.955C277.266 354.728 231.388 387.752 249.212 431.412" stroke="#1F1047" stroke-width="0.528818"/>
  <path d="M3.15796 -215.163C3.15796 -215.163 120.93 -181.419 126.125 -138.239C131.28 -95.0596 40.4037 -13.5781 69.6968 23.6843C98.5503 60.387 330.457 131.034 345.843 159.06C355.674 176.972 364.586 197.042 359.63 224.19C355.834 244.82 344.644 268.609 322.105 298.794C278.984 356.487 235.544 389.032 253.008 431.812" stroke="#21114B" stroke-width="0.528818"/>
  <path d="M3.87744 -213.244C3.87744 -213.244 122.329 -179.22 127.484 -136.04C132.639 -92.8605 41.7226 -10.3395 71.0157 26.9228C99.7493 63.4656 330.377 132.273 346.642 160.42C356.833 178.091 365.745 198.082 360.749 225.069C356.873 245.819 345.643 269.488 323.623 299.514C280.663 358.126 239.701 390.191 256.805 432.091" stroke="#23124F" stroke-width="0.528818"/>
  <path d="M4.59668 -211.285C4.59668 -211.285 123.687 -176.981 128.882 -133.801C134.078 -90.6217 43.0813 -7.06113 72.3743 30.2013C100.948 66.5441 330.297 133.592 347.481 161.819C358.072 179.211 366.943 199.161 361.868 225.989C357.912 246.859 346.642 270.408 325.182 300.314C282.421 359.846 243.897 391.431 260.641 432.451" stroke="#241353" stroke-width="0.528818"/>
  <path d="M5.27612 -209.325C5.27612 -209.325 125.046 -174.742 130.201 -131.562C135.396 -88.3826 44.4401 -3.78255 73.7332 33.4798C102.187 69.6628 330.217 134.872 348.321 163.259C359.231 180.41 368.142 200.281 362.987 226.948C358.951 247.939 347.641 271.367 326.701 301.113C284.14 361.605 248.053 392.71 264.438 432.811" stroke="#261456" stroke-width="0.528818"/>
  <path d="M5.99536 -207.406C5.99536 -207.406 126.405 -172.543 131.6 -129.363C136.795 -86.1838 45.7588 -0.504219 75.0519 36.7582C103.346 72.7412 330.097 136.151 349.12 164.658C360.389 181.53 369.261 201.36 364.066 227.868C359.95 248.978 348.6 272.287 328.179 301.873C285.778 363.324 252.169 393.909 268.234 433.131" stroke="#27165A" stroke-width="0.528818"/>
  <path d="M6.71484 -205.448C6.71484 -205.448 127.804 -170.304 132.959 -127.125C138.114 -83.9449 47.1177 2.77415 76.4108 40.0366C104.585 75.8197 329.978 137.391 349.959 166.057C361.549 182.689 370.46 202.44 365.225 228.787C360.989 250.017 349.64 273.246 329.738 302.673C287.537 365.083 256.405 395.149 272.071 433.491" stroke="#29175E" stroke-width="0.528818"/>
  <path d="M7.43408 -203.488C7.43408 -203.488 129.162 -168.065 134.357 -124.845C139.513 -81.6658 48.4763 6.09273 77.7694 43.3551C105.784 78.9783 329.858 138.71 350.838 167.496C362.747 183.889 371.659 203.519 366.384 229.747C362.068 251.097 350.718 274.206 331.296 303.472C289.295 366.842 260.601 396.388 275.907 433.851" stroke="#2B1862" stroke-width="0.528818"/>
  <path d="M8.15332 -201.569C8.15332 -201.569 130.561 -165.826 135.716 -122.646C140.871 -79.4668 49.795 9.3313 79.0881 46.5937C106.942 82.017 329.698 139.99 351.638 168.896C363.866 185.048 372.818 204.599 367.463 230.667C363.067 252.137 351.677 275.166 332.775 304.272C290.973 368.642 264.717 397.668 279.664 434.211" stroke="#2C1965" stroke-width="0.528818"/>
  <path d="M8.8728 -199.61C8.8728 -199.61 131.96 -163.587 137.115 -120.408C142.27 -77.2279 51.1539 12.6096 80.447 49.872C108.181 85.1353 329.538 141.269 352.477 170.295C365.025 186.208 373.977 205.678 368.582 231.586C364.066 253.176 352.717 276.125 334.334 305.031C292.732 370.361 268.914 398.867 283.5 434.53" stroke="#2E1A69" stroke-width="0.528818"/>
  <path d="M9.59204 -197.651C9.59204 -197.651 133.318 -161.348 138.474 -118.169C143.629 -74.9891 52.5126 15.888 81.8056 53.1504C109.38 88.2138 329.378 142.548 353.316 171.694C366.144 187.367 375.176 206.758 369.741 232.506C365.145 254.215 353.796 277.085 335.892 305.831C294.49 372.16 273.11 400.106 287.337 434.89" stroke="#301B6D" stroke-width="0.528818"/>
  <path d="M10.3113 -195.732C10.3113 -195.732 134.717 -159.149 139.872 -115.97C145.027 -72.79 53.8712 19.1665 83.1643 56.4289C110.619 91.2924 329.218 143.828 354.155 173.094C367.303 188.526 376.335 207.837 370.86 233.425C366.184 255.255 354.834 278.044 337.41 306.591C296.248 373.959 277.306 401.306 291.133 435.21" stroke="#311C71" stroke-width="0.528818"/>
  <path d="M11.0308 -193.773C11.0308 -193.773 136.076 -156.91 141.271 -113.731C146.426 -70.5512 55.2301 22.4049 84.5232 59.6673C111.818 94.3709 329.058 145.107 354.994 174.453C368.422 189.646 377.534 208.877 371.979 234.305C367.183 256.254 355.914 279.004 338.929 307.35C297.967 375.718 281.462 402.545 294.93 435.53" stroke="#331D74" stroke-width="0.528818"/>
  <path d="M11.7502 -191.814C11.7502 -191.814 137.475 -154.671 142.63 -111.492C147.785 -68.3121 56.589 25.7235 85.8821 62.9459C113.057 97.4896 328.859 146.386 355.834 175.893C369.541 190.845 378.693 209.956 373.098 235.264C368.223 257.334 356.953 280.003 340.448 308.15C299.725 377.557 285.618 403.785 298.726 435.89" stroke="#341E78" stroke-width="0.528818"/>
  <path d="M12.4695 -189.895C12.4695 -189.895 138.833 -152.472 144.029 -109.253C149.224 -66.0333 57.9077 28.9618 87.2008 66.2242C114.216 100.568 328.619 147.706 356.633 177.292C370.62 192.045 379.852 211.036 374.217 236.184C369.261 258.373 358.032 281.003 342.006 308.91C301.524 379.356 289.814 404.984 302.563 436.169" stroke="#361F7C" stroke-width="0.528818"/>
  <path d="M13.1887 -187.936C13.1887 -187.936 140.232 -150.194 145.387 -107.014C150.542 -63.8344 59.2663 32.2801 88.5594 69.5425C115.415 103.726 328.419 149.065 357.472 178.731C371.699 193.284 381.01 212.155 375.336 237.143C370.26 259.453 359.111 282.042 343.525 309.749C303.282 381.235 293.971 406.263 306.359 436.569" stroke="#382080" stroke-width="0.528818"/>
  <path d="M13.9082 -185.977C13.9082 -185.977 141.591 -147.955 146.786 -104.775C151.981 -61.5953 60.6253 35.5588 89.9183 72.8212C116.654 106.805 328.219 150.385 358.352 180.13C372.858 194.444 382.21 213.235 376.495 238.063C371.34 260.492 360.23 283.002 345.084 310.509C305.12 383.075 298.207 407.503 310.196 436.889" stroke="#392183" stroke-width="0.528818"/>
  <path d="M14.6274 -184.058C14.6274 -184.058 142.989 -145.756 148.145 -102.576C153.3 -59.3965 61.9439 38.7971 91.277 76.0595C117.853 109.884 327.979 151.704 359.191 181.53C373.937 195.643 383.408 214.314 377.654 238.983C372.379 261.532 361.349 284.001 346.642 311.308C306.959 384.914 302.403 408.742 314.032 437.249" stroke="#3B2287" stroke-width="0.528818"/>
  <path d="M15.3467 -182.098C15.3467 -182.098 144.348 -143.517 149.543 -100.337C154.739 -57.1574 63.3026 42.0757 92.6356 79.3381C119.091 112.962 327.739 153.023 360.03 182.929C375.056 196.843 384.567 215.394 378.772 239.902C373.417 262.572 362.428 285.041 348.161 312.068C308.757 386.753 306.559 409.942 317.868 437.569" stroke="#3D248B" stroke-width="0.528818"/>
  <path d="M16.0662 -180.139C16.0662 -180.139 145.747 -141.278 150.902 -98.0982C156.057 -54.9186 64.6615 45.3541 93.9545 82.6164C120.25 116.041 327.46 154.383 360.829 184.328C376.095 198.042 385.686 216.433 379.852 240.822C374.377 263.611 363.507 286.04 349.639 312.868C310.515 388.632 310.675 411.181 321.625 437.929" stroke="#3E258F" stroke-width="0.528818"/>
  <path d="M16.7856 -178.22C16.7856 -178.22 147.106 -139.079 152.301 -95.8991C157.456 -52.7195 66.0204 48.5926 95.3134 85.855C121.449 119.119 327.22 155.702 361.668 185.688C377.174 199.201 386.845 217.473 380.971 241.701C375.416 264.611 364.626 287 351.198 313.587C312.394 390.471 314.871 412.381 325.462 438.208" stroke="#402692" stroke-width="0.528818"/>
  <path d="M17.5049 -176.261C17.5049 -176.261 148.504 -136.84 153.66 -93.6203C158.815 -50.4007 67.379 51.9109 96.6721 89.1733C122.688 122.238 326.94 157.101 362.508 187.127C378.253 200.441 388.044 218.592 382.13 242.661C376.455 265.69 365.745 288.079 352.757 314.387C314.272 392.35 319.108 413.62 329.298 438.568" stroke="#412796" stroke-width="0.528818"/>
  <path d="M18.2241 -174.342C18.2241 -174.342 149.903 -134.601 155.058 -91.4212C160.214 -48.2416 68.7377 55.1895 98.0308 92.412C123.887 125.316 326.701 158.461 363.347 188.527C379.332 201.64 389.203 219.672 383.248 243.581C377.494 266.73 366.864 289.079 354.275 315.187C316.11 394.269 323.264 414.86 333.095 438.928" stroke="#43289A" stroke-width="0.528818"/>
  <path d="M18.9436 -172.383C18.9436 -172.383 151.262 -132.362 156.417 -89.1824C161.572 -46.0028 70.0566 58.4679 99.3497 95.7303C125.086 128.435 326.381 159.86 364.146 189.966C380.371 202.92 390.322 220.791 384.328 244.54C378.453 267.809 367.943 290.158 355.754 315.986C317.909 396.188 327.38 416.139 336.851 439.288" stroke="#45299E" stroke-width="0.528818"/>
  <path d="M19.6628 -170.424C19.6628 -170.424 152.661 -130.123 157.816 -86.9433C162.971 -43.7637 71.4153 61.7465 100.708 98.9689C126.285 131.514 326.101 161.219 364.985 191.325C381.45 204.079 391.481 221.791 385.447 245.42C379.492 268.809 369.062 291.118 357.272 316.746C319.827 398.068 331.536 417.338 340.648 439.608" stroke="#462AA1" stroke-width="0.528818"/>
  <path d="M20.3821 -168.505C20.3821 -168.505 154.019 -127.924 159.174 -84.7445C164.33 -41.5649 72.7739 64.9848 102.067 102.247C127.524 134.592 325.821 162.659 365.824 192.724C382.529 205.318 392.64 222.87 386.605 246.339C380.531 269.848 370.26 292.157 358.871 317.505C321.785 399.986 335.772 418.538 344.524 439.928" stroke="#482BA5" stroke-width="0.528818"/>
  <path d="M21.1016 -166.546C21.1016 -166.546 155.418 -125.685 160.573 -82.5056C165.729 -39.326 74.1328 68.2631 103.426 105.526C128.723 137.71 325.542 164.058 366.704 194.164C383.648 206.558 393.839 223.99 387.764 247.299C381.61 270.927 371.419 293.237 360.43 318.345C323.743 401.945 339.968 419.817 348.361 440.327" stroke="#4A2CA9" stroke-width="0.528818"/>
  <path d="M21.8208 -164.587C21.8208 -164.587 156.777 -123.446 161.972 -80.2665C167.167 -37.0869 75.4515 71.5418 104.785 108.804C129.921 140.789 325.262 165.497 367.543 195.563C384.727 207.797 395.038 225.069 388.883 248.218C382.609 271.967 372.578 294.277 361.948 319.105C325.661 403.865 344.164 421.057 352.157 440.647" stroke="#4B2DAD" stroke-width="0.528818"/>
  <path d="M22.5403 -162.668C22.5403 -162.668 158.176 -121.247 163.331 -78.0677C168.486 -34.8881 76.8503 74.7801 106.143 112.043C131.16 143.867 324.982 166.897 368.382 196.922C385.806 208.997 396.197 226.109 390.042 249.098C383.648 272.967 373.777 295.236 363.507 319.864C327.66 405.784 348.361 422.256 355.994 440.967" stroke="#4D2EB0" stroke-width="0.528818"/>
  <path d="M23.2595 -160.708C23.2595 -160.708 159.534 -118.968 164.729 -75.7886C169.925 -32.609 78.169 78.0987 107.462 115.361C132.319 146.986 324.622 168.376 369.181 198.362C386.845 210.236 397.316 227.188 391.121 250.057C384.647 274.046 374.896 296.316 364.985 320.664C329.618 407.743 352.477 423.496 359.75 441.327" stroke="#4E2FB4" stroke-width="0.528818"/>
  <path d="M23.939 -158.75C23.939 -158.75 160.893 -116.729 166.048 -73.5498C171.204 -30.3702 79.5279 81.377 108.821 118.639C133.558 150.065 324.343 169.815 370.021 199.761C387.924 211.476 398.475 228.268 392.24 250.977C385.646 275.046 376.055 297.355 366.504 321.424C331.616 409.702 356.633 424.695 363.547 441.647" stroke="#5031B8" stroke-width="0.528818"/>
  <path d="M24.6582 -156.83C24.6582 -156.83 162.252 -114.53 167.447 -71.3507C172.602 -28.1711 80.8465 84.6556 110.14 121.878C134.717 153.143 323.983 171.255 370.82 201.161C388.923 212.715 399.593 229.347 393.319 251.897C386.605 276.085 377.174 298.395 368.022 322.223C333.614 411.661 360.789 425.974 367.343 442.007" stroke="#5232BC" stroke-width="0.528818"/>
  <path d="M25.3774 -154.871C25.3774 -154.871 163.65 -112.291 168.806 -69.1119C173.961 -25.9323 82.2052 87.9339 111.498 125.196C135.956 156.262 323.703 172.774 371.659 202.6C390.002 213.994 400.752 230.467 394.478 252.856C387.644 277.164 378.373 299.474 369.581 323.023C335.732 413.66 365.025 427.214 371.219 442.366" stroke="#5333BF" stroke-width="0.528818"/>
  <path d="M26.0969 -152.912C26.0969 -152.912 165.009 -110.052 170.204 -66.8728C175.36 -23.6932 83.5641 91.2125 112.857 128.475C137.155 159.38 323.384 174.253 372.498 203.999C391.081 215.274 401.911 231.506 395.597 253.776C388.684 278.204 379.532 300.514 371.1 323.823C337.77 415.659 369.181 428.453 375.016 442.726" stroke="#5534C3" stroke-width="0.528818"/>
  <path d="M26.8164 -150.993C26.8164 -150.993 166.408 -107.854 171.563 -64.674C176.719 -21.4944 84.923 94.4908 114.216 131.713C138.354 162.419 323.104 175.732 373.338 205.358C392.16 216.473 403.07 232.546 396.716 254.655C389.683 279.204 380.731 301.513 372.618 324.542C339.889 417.578 373.338 429.612 378.813 443.006" stroke="#5735C7" stroke-width="0.528818"/>
  <path d="M27.5356 -149.034C27.5356 -149.034 167.807 -105.614 172.962 -62.4349C178.117 -19.2553 86.2417 97.7295 115.575 134.992C139.593 165.537 322.784 177.212 374.217 206.798C393.279 217.753 404.269 233.665 397.875 255.615C390.722 280.283 381.93 302.593 374.177 325.382C342.046 419.617 377.534 430.932 382.649 443.406" stroke="#5836CB" stroke-width="0.528818"/>
  <path d="M28.2549 -147.075C28.2549 -147.075 169.165 -103.376 174.321 -60.156C179.476 -16.9764 87.6003 101.048 116.893 138.31C140.751 168.656 322.424 178.771 375.016 208.237C394.318 219.032 405.388 234.745 398.994 256.574C391.721 281.363 383.129 303.712 375.695 326.181C344.204 421.616 381.69 432.171 386.445 443.766" stroke="#5A37CE" stroke-width="0.528818"/>
  <path d="M28.9744 -145.156C28.9744 -145.156 170.564 -101.137 175.719 -57.9572C180.875 -14.7776 88.9592 104.286 118.252 141.548C141.99 171.734 322.105 180.25 375.855 209.596C395.357 220.271 406.547 235.784 400.113 257.454C392.72 282.362 384.328 304.711 377.254 326.941C346.442 423.615 385.926 433.371 390.282 444.086" stroke="#5B38D2" stroke-width="0.528818"/>
  <path d="M29.6936 -143.197C29.6936 -143.197 171.923 -98.8977 177.078 -55.7181C182.233 -12.5385 90.3179 107.565 119.611 144.827C143.189 174.813 321.785 181.77 376.695 210.996C396.436 221.511 407.706 236.864 401.232 258.374C393.759 283.362 385.526 305.751 378.773 327.701C348.64 425.615 390.082 434.57 394.079 444.406" stroke="#5D39D6" stroke-width="0.528818"/>
  <path d="M30.4128 -141.238C30.4128 -141.238 173.321 -96.6589 178.477 -53.4793C183.632 -10.2997 91.6765 110.883 120.97 148.105C144.428 177.931 321.465 183.329 377.534 212.435C397.515 222.83 408.865 237.983 402.391 259.333C394.798 284.441 386.765 306.831 380.331 328.5C350.958 427.613 394.278 435.85 397.915 444.765" stroke="#5F3ADA" stroke-width="0.528818"/>
  <path d="M31.1323 -139.319C31.1323 -139.319 174.68 -94.4598 179.876 -51.2802C185.071 -8.1006 93.0354 114.122 122.328 151.384C145.627 181.01 321.186 184.848 378.373 213.835C398.594 224.07 409.984 239.023 403.51 260.253C395.797 285.481 387.964 307.87 381.85 329.3C353.236 429.653 398.435 437.089 401.712 445.125" stroke="#603BDD" stroke-width="0.528818"/>
  <path d="M31.8516 -137.36C31.8516 -137.36 176.079 -92.2209 181.234 -49.0414C186.389 -5.86176 94.3541 117.4 123.647 154.662C146.786 184.088 320.826 186.407 379.172 215.234C399.633 225.349 411.103 240.102 404.589 261.172C396.756 286.52 389.123 308.91 383.328 330.06C355.514 431.652 402.551 438.288 405.468 445.445" stroke="#623CE1" stroke-width="0.528818"/>
  <path d="M32.571 -135.401C32.571 -135.401 177.438 -89.9821 182.633 -46.8025C187.828 -3.62291 95.713 120.678 125.006 157.941C148.025 187.207 320.506 187.967 380.011 216.633C400.712 226.588 412.262 241.181 405.708 262.092C397.755 287.56 390.362 309.949 384.887 330.859C357.912 433.69 406.787 439.528 409.305 445.805" stroke="#643DE5" stroke-width="0.528818"/>
  <path d="M33.2903 -133.481C33.2903 -133.481 178.836 -87.783 183.992 -44.5635C189.147 -1.34387 97.0717 123.957 126.365 161.219C149.224 190.286 320.187 189.526 380.851 218.032C401.791 227.868 413.421 242.221 406.867 263.011C398.794 288.599 391.601 310.989 386.446 331.619C360.35 435.69 410.983 440.767 413.141 446.125" stroke="#653FE9" stroke-width="0.528818"/>
  <path d="M34.0098 -131.522C34.0098 -131.522 180.195 -85.504 185.391 -42.3244C190.546 0.855221 98.4305 127.236 127.724 164.498C150.463 193.404 319.867 191.125 381.73 219.472C402.911 229.187 414.62 243.341 408.026 263.971C399.833 289.639 392.88 312.068 388.004 332.459C362.827 437.769 415.179 442.047 416.978 446.485" stroke="#6740EC" stroke-width="0.528818"/>
  <path d="M34.729 -129.563C34.729 -129.563 181.594 -83.2651 186.749 -40.0855C191.904 3.0941 99.7492 130.514 129.042 167.776C151.621 196.483 319.507 192.685 382.529 220.871C403.949 230.427 415.739 244.42 409.105 264.93C400.792 290.718 394.039 313.148 389.483 333.258C365.305 439.808 419.295 443.286 420.774 446.844" stroke="#6841F0" stroke-width="0.528818"/>
  <path d="M35.4482 -127.644C35.4482 -127.644 182.953 -81.0663 188.148 -37.8867C193.343 5.29292 101.108 133.792 130.401 171.015C152.86 199.561 319.187 194.244 383.368 222.23C405.028 231.666 416.898 245.419 410.224 265.81C401.791 291.718 395.277 314.107 391.001 333.978C367.823 441.767 423.452 444.485 424.57 447.124" stroke="#6A42F4" stroke-width="0.528818"/>
  <path d="M36.1677 -125.685C36.1677 -125.685 184.351 -78.8272 189.507 -35.6476C194.662 7.53201 102.467 137.071 131.76 174.293C154.059 202.64 318.868 195.843 384.208 223.63C406.108 232.945 418.017 246.499 411.383 266.73C402.751 292.717 396.556 315.147 392.56 334.777C370.46 443.806 427.648 445.725 428.407 447.484" stroke="#6C43F8" stroke-width="0.528818"/>
  <path d="M36.887 -123.766C36.887 -123.766 185.71 -76.6284 190.905 -33.4488C196.101 9.73082 103.825 140.309 133.118 177.572C155.258 205.758 318.588 197.442 385.047 225.069C407.187 234.265 419.176 247.618 412.502 267.689C403.79 293.797 397.795 316.226 394.119 335.577C373.098 445.845 431.884 446.964 432.244 447.844" stroke="#6D44FB" stroke-width="0.528818"/>
  <path d="M37.6064 -121.807C37.6064 -121.807 187.109 -74.3893 192.264 -31.2097C197.419 11.9699 105.144 143.588 134.437 180.85C163.73 218.113 440.556 188.447 413.581 268.569C353.316 447.724 436 448.164 436 448.164" stroke="#6F45FF" stroke-width="0.528818"/>
</svg>
