<svg width="22" height="22" viewBox="0 0 22 22" fill="none" xmlns="http://www.w3.org/2000/svg">
<circle cx="11" cy="11" r="11" fill="#1B0E3E"/>
<path fill-rule="evenodd" clip-rule="evenodd" d="M11 20C15.9706 20 20 15.9706 20 11C20 6.02944 15.9706 2 11 2C6.02944 2 2 6.02944 2 11C2 15.9706 6.02944 20 11 20ZM15.7682 8.64018C16.1218 8.21591 16.0645 7.58534 15.6402 7.23178C15.2159 6.87821 14.5853 6.93554 14.2318 7.35982L10.6338 11.6774C10.2871 12.0934 10.0922 12.3238 9.93658 12.4653L9.93063 12.4707L9.92422 12.4659C9.75643 12.339 9.54146 12.1272 9.1585 11.7443L7.70711 10.2929C7.31658 9.90237 6.68342 9.90237 6.29289 10.2929C5.90237 10.6834 5.90237 11.3166 6.29289 11.7071L7.74428 13.1585L7.78511 13.1993L7.78512 13.1993C8.11161 13.526 8.4257 13.8402 8.71794 14.0611C9.0453 14.3087 9.47402 14.5415 10.0234 14.5165C10.5728 14.4916 10.9787 14.221 11.2823 13.9448C11.5534 13.6983 11.8377 13.3569 12.1333 13.0021L12.1333 13.0021L12.1703 12.9577L15.7682 8.64018Z" fill="url(#paint0_linear)"/>
<defs>
<linearGradient id="paint0_linear" x1="2" y1="11" x2="20" y2="11" gradientUnits="userSpaceOnUse">
<stop stop-color="#6F45FF"/>
<stop offset="1" stop-color="#FF6365"/>
</linearGradient>
</defs>
</svg>
