<svg width="32" height="32" viewBox="0 0 32 32" fill="none" xmlns="http://www.w3.org/2000/svg">
<mask id="path-1-inside-1" fill="white">
<path d="M32 15.9999C32 24.8365 24.8367 32 16.0001 32C7.16344 32 0 24.8365 0 15.9999C0 7.1634 7.16344 0 16.0001 0C24.8366 0 32 7.1634 32 15.9999"/>
</mask>
<path d="M33 15.9999C33 15.4476 32.5523 14.9999 32 14.9999C31.4477 14.9999 31 15.4476 31 15.9999H33ZM16.0001 32V31V32ZM31 15.9999C31 16.5522 31.4477 16.9999 32 16.9999C32.5523 16.9999 33 16.5522 33 15.9999H31ZM31 15.9999C31 24.2842 24.2844 31 16.0001 31V33C25.389 33 33 25.3888 33 15.9999H31ZM16.0001 31C7.71573 31 1 24.2842 1 15.9999H-1C-1 25.3888 6.61115 33 16.0001 33V31ZM1 15.9999C1 7.71569 7.71572 1 16.0001 1V-1C6.61117 -1 -1 6.6111 -1 15.9999H1ZM16.0001 1C24.2843 1 31 7.71569 31 15.9999H33C33 6.61111 25.3888 -1 16.0001 -1V1Z" fill="url(#paint0_linear)" mask="url(#path-1-inside-1)"/>
<path fill-rule="evenodd" clip-rule="evenodd" d="M11.8578 14.2974L16.0012 10.1558L20.1464 14.3008L22.5559 11.8896L16.0012 5.3334L9.44653 11.8879L11.8578 14.2974Z" fill="white"/>
<path fill-rule="evenodd" clip-rule="evenodd" d="M5.33325 16.0005L7.74363 13.5902L10.154 16.0005L7.74363 18.4108L5.33325 16.0005Z" fill="white"/>
<path fill-rule="evenodd" clip-rule="evenodd" d="M11.859 17.7027L16.0024 21.846L20.1475 17.701L22.5588 20.1088L22.5571 20.1105L16.0024 26.6667L9.44771 20.1139L9.44434 20.1105L11.859 17.7027Z" fill="white"/>
<path fill-rule="evenodd" clip-rule="evenodd" d="M21.8455 16.0009L24.2558 13.5906L26.6662 16.0009L24.2558 18.4112L21.8455 16.0009Z" fill="white"/>
<path fill-rule="evenodd" clip-rule="evenodd" d="M18.447 15.9992L16.002 13.5526L14.194 15.3606L13.9851 15.5678L13.5571 15.9958L13.5537 15.9992L13.5571 16.0042L16.002 18.4474L18.447 16.0008L18.4487 15.9992H18.447Z" fill="white"/>
<defs>
<linearGradient id="paint0_linear" x1="0" y1="16" x2="32" y2="16" gradientUnits="userSpaceOnUse">
<stop stop-color="#6F45FF"/>
<stop offset="1" stop-color="#FF6365"/>
</linearGradient>
</defs>
</svg>
