<svg width="32" height="32" viewBox="0 0 32 32" fill="none" xmlns="http://www.w3.org/2000/svg">
<mask id="path-1-inside-1" fill="white">
<path d="M32 15.9999C32 24.8365 24.8367 32 16.0001 32C7.16344 32 0 24.8365 0 15.9999C0 7.1634 7.16344 0 16.0001 0C24.8366 0 32 7.1634 32 15.9999"/>
</mask>
<path d="M33 15.9999C33 15.4476 32.5523 14.9999 32 14.9999C31.4477 14.9999 31 15.4476 31 15.9999H33ZM16.0001 32V31V32ZM31 15.9999C31 16.5522 31.4477 16.9999 32 16.9999C32.5523 16.9999 33 16.5522 33 15.9999H31ZM31 15.9999C31 24.2842 24.2844 31 16.0001 31V33C25.389 33 33 25.3888 33 15.9999H31ZM16.0001 31C7.71573 31 1 24.2842 1 15.9999H-1C-1 25.3888 6.61115 33 16.0001 33V31ZM1 15.9999C1 7.71569 7.71572 1 16.0001 1V-1C6.61117 -1 -1 6.6111 -1 15.9999H1ZM16.0001 1C24.2843 1 31 7.71569 31 15.9999H33C33 6.61111 25.3888 -1 16.0001 -1V1Z" fill="url(#paint0_linear)" mask="url(#path-1-inside-1)"/>
<path d="M15.8028 8.88885L15.7031 9.22781V19.0636L15.8028 19.1631L20.3685 16.4644L15.8028 8.88885Z" fill="white"/>
<path d="M15.803 8.88889L11.2373 16.4644L15.803 19.1632V14.3892V8.88889Z" fill="white"/>
<path d="M15.8038 20.4751L15.7476 20.5436V24.0473L15.8038 24.2115L20.3721 17.7777L15.8038 20.4751Z" fill="white"/>
<path d="M15.8027 24.2115V20.4751L11.2371 17.7777L15.8027 24.2115Z" fill="white"/>
<defs>
<linearGradient id="paint0_linear" x1="0" y1="16" x2="28.0755" y2="16" gradientUnits="userSpaceOnUse">
<stop stop-color="#6F45FF"/>
<stop offset="1" stop-color="#FF6365"/>
</linearGradient>
</defs>
</svg>
