<svg width="17" height="17" viewBox="0 0 17 17" fill="none" xmlns="http://www.w3.org/2000/svg">
<path d="M8.4 0C3.759 0 0 3.696 0 8.2544C0 11.9021 2.4066 14.9954 5.7435 16.086C6.1635 16.1637 6.3175 15.9082 6.3175 15.6891C6.3175 15.4931 6.3105 14.9737 6.307 14.2856C3.9704 14.7833 3.4776 13.1782 3.4776 13.1782C3.0954 12.2255 2.5431 11.9707 2.5431 11.9707C1.7822 11.459 2.6019 11.4695 2.6019 11.4695C3.4454 11.5269 3.8885 12.32 3.8885 12.32C4.6375 13.5821 5.8548 13.2174 6.335 13.0067C6.4106 12.4726 6.6269 12.1093 6.867 11.9028C5.0015 11.6963 3.0408 10.9865 3.0408 7.8239C3.0408 6.923 3.3663 6.1866 3.9053 5.6091C3.8108 5.4005 3.5273 4.5612 3.9788 3.4244C3.9788 3.4244 4.6823 3.2032 6.2888 4.2707C6.9608 4.0873 7.6748 3.9963 8.3888 3.9921C9.1028 3.9963 9.8168 4.0873 10.4888 4.2707C12.0848 3.2032 12.7883 3.4244 12.7883 3.4244C13.2398 4.5612 12.9563 5.4005 12.8723 5.6091C13.4078 6.1866 13.7333 6.923 13.7333 7.8239C13.7333 10.9949 11.7698 11.6928 9.9008 11.8958C10.1948 12.1436 10.4678 12.6497 10.4678 13.4232C10.4678 14.5278 10.4573 15.4154 10.4573 15.6835C10.4573 15.8998 10.6043 16.1581 11.0348 16.0755C14.3955 14.9919 16.8 11.8965 16.8 8.2544C16.8 3.696 13.0389 0 8.4 0Z" fill="white"/>
</svg>
