<svg width="20" height="21" viewBox="0 0 20 21" fill="none" xmlns="http://www.w3.org/2000/svg">
<path d="M11.4471 18.7068C12.5248 18.5168 13.5545 18.1163 14.4775 17.5283C15.4005 16.9404 16.1986 16.1763 16.8263 15.2799C17.454 14.3834 17.8989 13.3722 18.1358 12.3037C18.3727 11.2353 18.3968 10.1307 18.2067 9.05301C18.0167 7.97529 17.6162 6.94555 17.0283 6.02258C16.4403 5.09962 15.6762 4.30151 14.7798 3.67381C13.8834 3.04612 12.8721 2.60114 11.8037 2.36428C10.7352 2.12742 9.63065 2.10332 8.55292 2.29335C7.4752 2.48338 6.44546 2.88383 5.5225 3.47182C4.59953 4.05981 3.80142 4.82384 3.17373 5.72028C2.54603 6.61672 2.10105 7.62801 1.86419 8.69642C1.62733 9.76483 1.60323 10.8694 1.79326 11.9472C1.98329 13.0249 2.38374 14.0546 2.97173 14.9776C3.55973 15.9005 4.32375 16.6987 5.22019 17.3264C6.11663 17.954 7.12792 18.399 8.19633 18.6359C9.26474 18.8727 10.3693 18.8968 11.4471 18.7068L11.4471 18.7068Z" stroke="white" stroke-width="1.5"/>
<path d="M10 9.5L10 14.5" stroke="white" stroke-width="1.5" stroke-linecap="round" stroke-linejoin="round"/>
<path d="M10 6.33325L10 5.49992" stroke="white" stroke-width="1.5" stroke-linecap="round" stroke-linejoin="round"/>
</svg>
