<svg width="24" height="24" viewBox="0 0 24 24" fill="none" xmlns="http://www.w3.org/2000/svg">
<path d="M24 11.9999C24 18.6274 18.6275 24 12.0001 24C5.37258 24 0 18.6274 0 11.9999C0 5.37255 5.37258 0 12.0001 0C18.6274 0 24 5.37255 24 11.9999Z" fill="#181616"/>
<path d="M12.5739 4C9.50067 4.01275 7.01234 6.58265 7 9.75663C7 10.3923 7.09934 11.0237 7.29392 11.6265C7.43912 12.0369 7.87 12.2579 8.27444 12.131C8.66535 11.9762 8.87286 11.5349 8.74823 11.122C8.58305 10.6521 8.50957 10.1537 8.53132 9.65464C8.59834 7.36218 10.4518 5.55967 12.6715 5.62888C14.8912 5.69809 16.6365 7.61231 16.5694 9.90477C16.5065 12.0509 14.87 13.7939 12.7943 13.9245C12.7943 13.9245 12.0119 13.9736 11.6228 14.0228C11.4793 14.0441 11.3371 14.0732 11.1966 14.1102C11.1766 14.1315 11.1443 14.1315 11.1237 14.1108L11.1231 14.1102C11.109 14.0914 11.109 14.0647 11.1231 14.0459L11.2442 13.3635L11.979 9.9503C12.0672 9.52411 11.8044 9.10459 11.3917 9.01353C10.9791 8.92246 10.5729 9.19384 10.4847 9.62003C10.4847 9.62003 8.73707 17.9745 8.73707 18.0504C8.63713 18.4565 8.87462 18.8694 9.26788 18.9726C9.272 18.9738 9.2767 18.975 9.28082 18.9756H9.32138C9.71406 19.0806 10.115 18.8366 10.2161 18.431C10.2178 18.4244 10.2196 18.4177 10.2208 18.4104C10.2196 18.3976 10.2196 18.3849 10.2208 18.3728C10.2425 18.2744 10.463 17.1628 10.463 17.1628C10.6299 16.3238 11.2848 15.6808 12.1042 15.5509C12.2729 15.5242 12.9819 15.475 12.9819 15.475C16.0433 15.1599 18.2777 12.3411 17.972 9.17927C17.6934 6.29549 15.3802 4.07528 12.5739 4Z" fill="white"/>
<path d="M13.1999 17.0209C12.6629 16.9097 12.1378 17.2528 12.026 17.7865C12.0248 17.7915 12.0241 17.7965 12.0229 17.8015C11.9067 18.3321 12.2446 18.8565 12.7785 18.9721C12.7791 18.9721 12.7797 18.9721 12.7804 18.9727H12.808C13.3306 19.0983 13.8563 18.7783 13.9819 18.259C13.9832 18.2552 13.9838 18.2509 13.985 18.2471V18.1927C14.0774 17.6565 13.7332 17.1422 13.1999 17.0209Z" fill="white"/>
</svg>
