<svg width="32" height="32" viewBox="0 0 32 32" fill="none" xmlns="http://www.w3.org/2000/svg">
<path d="M32 15.9999C32 24.8365 24.8367 32 16.0001 32C7.16344 32 0 24.8365 0 15.9999C0 7.1634 7.16344 0 16.0001 0C24.8366 0 32 7.1634 32 15.9999" fill="url(#paint0_linear)"/>
<path d="M15.7129 5C10.909 5.0193 7.0193 8.90897 7 13.7129C7 14.675 7.15529 15.6307 7.45945 16.5431C7.68641 17.1643 8.35996 17.4988 8.99216 17.3067C9.60322 17.0724 9.92759 16.4044 9.73279 15.7795C9.47458 15.0683 9.35972 14.3139 9.39372 13.5586C9.49847 10.0888 12.3957 7.36063 15.8655 7.46539C19.3352 7.57014 22.0634 10.4674 21.9587 13.9371C21.8603 17.1854 19.3021 19.8236 16.0575 20.0211C16.0575 20.0211 14.8345 20.0956 14.2262 20.17C14.002 20.2022 13.7796 20.2463 13.56 20.3023C13.5287 20.3345 13.4782 20.3345 13.446 20.3032L13.4451 20.3023C13.4231 20.2738 13.4231 20.2334 13.4451 20.2049L13.6344 19.1721L14.783 14.0061C14.9209 13.361 14.5101 12.726 13.865 12.5882C13.22 12.4504 12.585 12.8611 12.4472 13.5062C12.4472 13.5062 9.71533 26.1511 9.71533 26.2659C9.55912 26.8807 9.93035 27.5055 10.5451 27.6617C10.5515 27.6636 10.5589 27.6654 10.5653 27.6663H10.6287C11.2425 27.8253 11.8692 27.4559 12.0273 26.8421C12.03 26.832 12.0328 26.8219 12.0346 26.8108C12.0328 26.7915 12.0328 26.7722 12.0346 26.7539C12.0686 26.605 12.4132 24.9225 12.4132 24.9225C12.6742 23.6526 13.6978 22.6795 14.9787 22.4829C15.2425 22.4424 16.3507 22.368 16.3507 22.368C21.1362 21.8911 24.629 17.6247 24.1511 12.8391C23.7156 8.47433 20.0997 5.11394 15.7129 5Z" fill="white"/>
<path d="M16.2413 25.0896C15.4557 24.9261 14.6875 25.4305 14.5239 26.2153C14.5221 26.2226 14.5211 26.23 14.5193 26.2373C14.3493 27.0175 14.8437 27.7885 15.6248 27.9584C15.6257 27.9584 15.6266 27.9585 15.6275 27.9594H15.6679C16.4325 28.1441 17.2016 27.6736 17.3854 26.91C17.3872 26.9045 17.3881 26.898 17.39 26.8925V26.8126C17.5251 26.0242 17.0215 25.2679 16.2413 25.0896Z" fill="white"/>
<defs>
<linearGradient id="paint0_linear" x1="0" y1="16" x2="28.0755" y2="16" gradientUnits="userSpaceOnUse">
<stop stop-color="#6F45FF"/>
<stop offset="1" stop-color="#FF6365"/>
</linearGradient>
</defs>
</svg>
