<svg width="56" height="56" viewBox="0 0 56 56" fill="none" xmlns="http://www.w3.org/2000/svg">
<path fill-rule="evenodd" clip-rule="evenodd" d="M13.7517 25.6635C13.5581 25.4915 13.3618 25.317 13.1626 25.1399L7.66437 20.2526C7.25159 19.8857 6.61952 19.9229 6.2526 20.3356C5.88568 20.7484 5.92286 21.3805 6.33565 21.7474L11.8338 26.6347L11.8888 26.6835L11.8888 26.6836C12.0071 26.7887 12.1245 26.8931 12.241 26.9966C12.7596 26.5368 13.2627 26.0922 13.7517 25.6635ZM16.0254 30.3246C17.7985 31.8499 19.3539 33.1102 20.788 34.0903C23.2753 35.7902 25.5036 36.7239 28 36.7239C30.4964 36.7239 32.7248 35.7902 35.212 34.0903C37.6635 32.4149 40.469 29.9211 44.1112 26.6836L44.1662 26.6347L49.6644 21.7474C50.0772 21.3805 50.1143 20.7484 49.7474 20.3356C49.3805 19.9229 48.7484 19.8857 48.3356 20.2526L42.8375 25.1399C39.129 28.4363 36.4173 30.8441 34.0835 32.4391C31.7731 34.0181 29.9393 34.7239 28 34.7239C26.0607 34.7239 24.2269 34.0181 21.9165 32.4391C20.6126 31.5479 19.1907 30.4031 17.5428 28.9912C17.0594 29.4125 16.5545 29.8567 16.0254 30.3246Z" fill="url(#paint0_linear)"/>
<path fill-rule="evenodd" clip-rule="evenodd" d="M39.9746 25.6747C38.2015 24.1493 36.6461 22.8891 35.212 21.9089C32.7248 20.2091 30.4964 19.2754 28 19.2754C25.5036 19.2754 23.2753 20.2091 20.788 21.9089C18.3365 23.5844 15.531 26.0782 11.8888 29.3157L11.8338 29.3646L6.33565 34.2518C5.92286 34.6188 5.88568 35.2508 6.2526 35.6636C6.61952 36.0764 7.25159 36.1136 7.66437 35.7467L13.1626 30.8594C16.871 27.563 19.5827 25.1552 21.9165 23.5601C24.2269 21.9811 26.0607 21.2754 28 21.2754C29.9393 21.2754 31.7731 21.9811 34.0835 23.5601C35.3875 24.4513 36.8094 25.5962 38.4572 27.008C38.9406 26.5867 39.4455 26.1425 39.9746 25.6747ZM43.759 29.0026C43.2405 29.4624 42.7373 29.907 42.2483 30.3358C42.4419 30.5078 42.6382 30.6823 42.8375 30.8594L48.3356 35.7467C48.7484 36.1136 49.3805 36.0764 49.7474 35.6636C50.1143 35.2508 50.0772 34.6188 49.6644 34.2518L44.1662 29.3646L44.1112 29.3157C43.9929 29.2106 43.8755 29.1062 43.759 29.0026Z" fill="url(#paint1_linear)"/>
<defs>
<linearGradient id="paint0_linear" x1="6" y1="28.3619" x2="50" y2="28.3619" gradientUnits="userSpaceOnUse">
<stop stop-color="#6F45FF"/>
<stop offset="1" stop-color="#FF6365"/>
</linearGradient>
<linearGradient id="paint1_linear" x1="6" y1="27.6373" x2="50" y2="27.6373" gradientUnits="userSpaceOnUse">
<stop stop-color="#6F45FF"/>
<stop offset="1" stop-color="#FF6365"/>
</linearGradient>
</defs>
</svg>
