<svg width="14" height="18" viewBox="0 0 14 18" fill="none" xmlns="http://www.w3.org/2000/svg">
<path fill-rule="evenodd" clip-rule="evenodd" d="M6.83337 0.666667V4.5L6.83337 4.55441C6.83328 4.97848 6.8332 5.39061 6.8789 5.73052C6.93042 6.11372 7.05595 6.551 7.41916 6.91421C7.78238 7.27743 8.21965 7.40295 8.60286 7.45447C8.94277 7.50017 9.35489 7.50009 9.77895 7.50001H9.77896L9.83337 7.5H13.6667V12.3333C13.6667 14.6904 13.6667 15.8689 12.9345 16.6011C12.2022 17.3333 11.0237 17.3333 8.66671 17.3333H5.33337C2.97635 17.3333 1.79784 17.3333 1.06561 16.6011C0.333374 15.8689 0.333374 14.6904 0.333374 12.3333V5.66667C0.333374 3.30964 0.333374 2.13113 1.06561 1.3989C1.79784 0.666667 2.97635 0.666667 5.33337 0.666667H6.83337ZM8.83337 0.676745V4.5C8.83337 4.99968 8.8355 5.27383 8.86107 5.46402L8.86207 5.47131L8.86935 5.47231C9.05954 5.49788 9.3337 5.5 9.83337 5.5H13.6566C13.6433 5.24629 13.6122 5.06051 13.5398 4.88588C13.413 4.5796 13.1721 4.33874 12.6904 3.85703L12.6904 3.85702L10.4764 1.64298C9.99463 1.16126 9.75377 0.920402 9.44749 0.793534C9.27287 0.721203 9.08708 0.690111 8.83337 0.676745ZM3.50004 9.83333C3.50004 9.28105 3.94776 8.83333 4.50004 8.83333L9.50004 8.83333C10.0523 8.83333 10.5 9.28105 10.5 9.83334C10.5 10.3856 10.0523 10.8333 9.50004 10.8333L4.50004 10.8333C3.94776 10.8333 3.50004 10.3856 3.50004 9.83333ZM4.50004 12.1667C3.94776 12.1667 3.50004 12.6144 3.50004 13.1667C3.50004 13.719 3.94776 14.1667 4.50004 14.1667H7.83337C8.38566 14.1667 8.83337 13.719 8.83337 13.1667C8.83337 12.6144 8.38566 12.1667 7.83337 12.1667H4.50004Z" fill="white"/>
</svg>
