<svg width="16" height="13" viewBox="0 0 16 13" fill="none" xmlns="http://www.w3.org/2000/svg">
<path d="M15.4 0.00703899C14.7297 0.479873 13.9875 0.841516 13.202 1.07804C12.7804 0.593297 12.2201 0.249723 11.5969 0.0937873C10.9737 -0.0621488 10.3176 -0.0229241 9.71746 0.206156C9.11726 0.435237 8.60191 0.84312 8.24109 1.37464C7.88027 1.90616 7.69139 2.53567 7.7 3.17804V3.87804C6.46984 3.90994 5.25089 3.63711 4.15171 3.08385C3.05252 2.53059 2.10722 1.71408 1.4 0.707039C1.4 0.707039 -1.4 7.00704 4.9 9.80704C3.45837 10.7856 1.74101 11.2763 0 11.207C6.3 14.707 14 11.207 14 3.15704C13.9994 2.96206 13.9806 2.76756 13.944 2.57604C14.6584 1.87148 15.1626 0.981938 15.4 0.00703899Z" fill="white"/>
</svg>
