<svg width="390" height="397" viewBox="0 0 390 397" fill="none" xmlns="http://www.w3.org/2000/svg">
  <path d="M-8.89307 -189.672C-8.89307 -189.672 100.294 -158.79 105.154 -118.215C110.015 -77.6401 24.4132 -4.00441 52.0302 31.0101C79.6473 66.0247 301.789 137.481 313.846 163.479C327.937 193.948 343.384 228.887 289.507 296.512C248.326 348.207 200.401 380.028 217.921 422.745" stroke="#1C0E40"/>
  <path d="M-8.21484 -187.868C-8.21484 -187.868 101.575 -156.724 106.473 -116.149C111.333 -75.5739 25.6942 -0.961405 53.3489 34.0531C80.853 68.8798 301.827 138.683 314.675 164.794C323.19 182.114 331.667 201.086 327.146 226.896C323.717 246.056 313.318 268.711 291.014 297.263C250.022 349.785 204.395 381.193 221.576 423.083" stroke="#1E0F44"/>
  <path d="M-7.53662 -186.027C-7.53662 -186.027 102.894 -154.619 107.754 -114.007C112.614 -73.3947 26.9376 2.15701 54.5923 37.134C81.9456 71.8104 301.752 139.886 315.428 166.109C324.32 183.203 332.76 202.101 328.163 227.76C324.659 247.033 314.185 269.537 292.408 297.977C251.566 351.326 208.313 382.358 225.117 423.383" stroke="#1F1047"/>
  <path d="M-6.8584 -184.187C-6.8584 -184.187 104.175 -152.478 109.073 -111.903C113.933 -71.3285 28.2563 5.23762 55.8734 40.2522C83.0759 74.7407 301.714 141.126 316.22 167.462C325.488 184.293 333.89 203.152 329.218 228.662C325.639 248.048 315.089 270.401 293.84 298.766C253.186 352.979 212.232 383.56 228.696 423.759" stroke="#21114B"/>
  <path d="M-6.18018 -182.383C-6.18018 -182.383 105.494 -150.412 110.354 -109.837C115.214 -69.2621 29.4997 8.28083 57.1167 43.2954C84.2063 77.6337 301.639 142.29 316.973 168.739C326.581 185.345 334.983 204.129 330.273 229.489C326.618 248.987 316.031 271.228 295.271 299.442C254.769 354.519 216.15 384.65 232.276 424.022" stroke="#23124F"/>
  <path d="M-5.50195 -180.542C-5.50195 -180.542 106.775 -148.308 111.673 -107.733C116.571 -67.1583 30.7807 11.3615 58.3978 46.376C85.3366 80.5265 301.563 143.53 317.764 170.054C327.749 186.397 336.113 205.144 331.328 230.353C327.598 249.964 316.973 272.092 296.741 300.194C256.427 356.134 220.106 385.814 235.893 424.36" stroke="#241353"/>
  <path d="M-4.86182 -178.701C-4.86182 -178.701 108.055 -146.204 112.916 -105.629C117.814 -65.0545 32.0614 14.442 59.6784 49.4566C86.5043 83.4567 301.488 144.732 318.555 171.406C328.841 187.524 337.243 206.195 332.383 231.254C328.577 250.978 317.915 272.994 298.172 300.945C258.046 357.787 224.024 387.016 239.472 424.698" stroke="#261456"/>
  <path d="M-4.18359 -176.898C-4.18359 -176.898 109.336 -144.138 114.234 -103.563C119.132 -62.9883 33.3048 17.5226 60.9218 52.5372C87.597 86.3495 301.375 145.934 319.309 172.721C329.934 188.575 338.298 207.21 333.4 232.118C329.519 251.955 318.819 273.858 299.566 301.659C259.591 359.403 227.905 388.143 243.051 424.999" stroke="#27165A"/>
  <path d="M-3.50537 -175.057C-3.50537 -175.057 110.655 -142.034 115.515 -101.459C120.376 -60.8842 34.5858 20.6035 62.2029 55.618C88.765 89.2425 301.262 147.099 320.1 174.036C331.026 189.665 339.428 208.224 334.493 232.982C330.499 252.932 319.799 274.759 301.036 302.41C261.249 361.056 231.899 389.308 246.668 425.337" stroke="#29175E"/>
  <path d="M-2.82715 -173.216C-2.82715 -173.216 111.936 -139.93 116.834 -99.3176C121.694 -58.7428 35.8669 23.7217 63.4839 58.7362C89.8953 92.2104 301.149 148.339 320.929 175.389C332.157 190.792 340.559 209.239 335.585 233.884C331.516 253.946 320.816 275.661 302.505 303.162C262.907 362.709 235.855 390.473 250.285 425.675" stroke="#2B1862"/>
  <path d="M-2.14893 -171.413C-2.14893 -171.413 113.255 -137.826 118.115 -97.2514C122.975 -56.6766 37.1102 26.7647 64.7273 61.7792C90.988 95.0655 300.998 149.541 321.683 176.704C333.212 191.881 341.651 210.253 336.603 234.748C332.458 254.923 321.72 276.563 303.899 303.913C264.489 364.399 239.736 391.675 253.827 426.013" stroke="#2C1965"/>
  <path d="M-1.4707 -169.572C-1.4707 -169.572 114.574 -135.722 119.434 -95.1474C124.294 -54.5726 38.3913 29.8455 66.0083 64.86C92.156 97.9961 300.847 150.743 322.474 178.019C334.304 192.971 342.744 211.267 337.658 235.612C333.4 255.9 322.7 277.464 305.369 304.627C266.147 366.015 243.692 392.802 257.444 426.314" stroke="#2E1A69"/>
  <path d="M-0.79248 -167.731C-0.79248 -167.731 115.855 -133.618 120.715 -93.0435C125.575 -52.4688 39.6723 32.9261 67.2894 67.9406C93.2863 100.889 300.697 151.945 323.265 179.333C335.359 194.061 343.874 212.282 338.75 236.476C334.417 256.876 323.717 278.366 306.838 305.378C267.805 367.706 247.648 393.966 261.061 426.652" stroke="#301B6D"/>
  <path d="M-0.114258 -165.928C-0.114258 -165.928 117.173 -131.552 122.034 -90.9773C126.894 -50.4026 40.9534 36.0067 68.5704 71.0212C94.4543 103.782 300.546 153.148 324.056 180.648C336.452 195.15 344.967 213.296 339.805 237.34C335.397 257.853 324.697 279.268 308.27 306.092C269.463 369.396 251.604 395.094 264.64 426.952" stroke="#311C71"/>
  <path d="M0.563965 -164.087C0.563965 -164.087 118.454 -129.448 123.352 -88.8733C128.213 -48.2985 42.2344 39.05 69.8515 74.0645C95.5847 106.675 300.395 154.35 324.848 181.926C337.507 196.202 346.097 214.273 340.86 238.167C336.339 258.792 325.714 280.169 309.702 306.806C271.083 371.049 255.522 396.258 268.219 427.253" stroke="#331D74"/>
  <path d="M1.24219 -162.246C1.24219 -162.246 119.773 -127.344 124.633 -86.7695C129.494 -46.1947 43.5155 42.1681 71.1325 77.1451C96.7527 109.605 300.207 155.552 325.639 183.278C338.562 197.329 347.19 215.287 341.915 239.068C337.319 259.807 326.694 281.108 311.133 307.557C272.741 372.777 259.441 397.423 271.799 427.591" stroke="#341E78"/>
  <path d="M1.92041 -160.443C1.92041 -160.443 121.054 -125.278 125.952 -84.6655C130.85 -44.0531 44.7589 45.2114 72.3759 80.2259C97.8454 112.498 299.981 156.792 326.392 184.593C339.579 198.456 348.283 216.302 342.97 239.933C338.298 260.784 327.711 282.048 312.603 308.271C274.436 374.468 263.397 398.55 275.416 427.854" stroke="#361F7C"/>
  <path d="M2.59814 -158.602C2.59814 -158.602 122.372 -123.136 127.233 -82.5617C132.093 -41.9869 46.0394 48.3295 73.6564 83.3441C98.9752 115.466 299.792 158.069 327.183 185.946C340.596 199.621 349.375 217.354 344.025 240.834C339.24 261.798 328.728 283.025 314.034 309.06C276.094 376.234 267.315 399.752 278.995 428.23" stroke="#382080"/>
  <path d="M3.27637 -156.761C3.27637 -156.761 123.654 -121.033 128.552 -80.4579C133.45 -39.8831 47.3205 51.4102 74.9375 86.4247C100.143 118.359 299.604 159.309 328.012 187.261C341.689 200.71 350.505 218.368 345.117 241.698C340.257 262.775 329.783 283.926 315.504 309.774C277.827 377.962 271.309 400.917 282.612 428.53" stroke="#392183"/>
  <path d="M3.95459 -154.958C3.95459 -154.958 124.972 -118.966 129.833 -78.3914C134.693 -37.8166 48.5639 54.4535 76.2186 89.468C101.274 121.252 299.378 160.549 328.804 188.576C342.706 201.838 351.636 219.382 346.21 242.563C341.237 263.752 330.838 284.866 316.973 310.525C279.56 379.69 275.265 402.082 286.229 428.869" stroke="#3B2287"/>
  <path d="M4.63281 -153.117C4.63281 -153.117 126.253 -116.862 131.151 -76.2876C136.049 -35.7128 49.8449 57.5341 77.4996 92.5486C102.442 124.144 299.152 161.789 329.595 189.89C343.761 202.965 352.728 220.397 347.265 243.427C342.216 264.728 331.855 285.842 318.405 311.239C281.255 381.418 279.183 403.209 289.846 429.169" stroke="#3D248B"/>
  <path d="M5.31104 -151.276C5.31104 -151.276 127.572 -114.759 132.432 -74.1838C137.293 -33.609 51.1259 60.6146 78.743 95.6292C103.534 127.037 298.888 163.066 330.348 191.205C344.741 204.092 353.783 221.373 348.282 244.291C343.121 265.705 332.873 286.781 319.799 311.99C282.913 383.184 283.064 404.373 293.387 429.507" stroke="#3E258F"/>
  <path d="M5.98926 -149.473C5.98926 -149.473 128.853 -112.692 133.751 -72.1176C138.611 -31.5428 52.407 63.6576 80.024 98.6721C104.665 129.93 298.662 164.306 331.139 192.482C345.758 205.181 354.876 222.35 349.337 245.117C344.1 266.644 333.928 287.683 321.268 312.666C284.684 384.912 287.02 405.5 297.004 429.77" stroke="#402692"/>
  <path d="M6.66748 -147.632C6.66748 -147.632 130.172 -110.588 135.032 -69.976C139.892 -29.3636 53.6881 66.776 81.3051 101.791C105.833 132.86 298.398 165.621 331.931 193.835C346.775 206.346 356.006 223.402 350.43 246.019C345.08 267.659 334.983 288.698 322.738 313.418C286.455 386.678 291.014 406.665 300.621 430.108" stroke="#412796"/>
  <path d="M7.3457 -145.828C7.3457 -145.828 131.491 -108.485 136.351 -67.9098C141.211 -27.335 54.9691 69.8567 82.5862 104.834C106.963 135.753 298.172 166.898 332.722 195.15C347.793 207.473 357.099 224.417 351.485 246.883C346.06 268.636 336.038 289.637 324.169 314.169C288.188 388.481 294.932 407.83 304.201 430.446" stroke="#43289A"/>
  <path d="M8.02393 -143.987C8.02393 -143.987 132.772 -106.38 137.632 -65.8057C142.492 -25.2309 56.2125 72.9375 83.8295 107.952C108.093 138.684 297.871 168.213 333.476 196.503C348.772 208.675 358.154 225.469 352.502 247.785C346.964 269.65 337.055 290.651 325.564 314.921C289.884 390.285 298.813 409.032 307.742 430.785" stroke="#45299E"/>
  <path d="M8.70215 -142.146C8.70215 -142.146 134.09 -104.277 138.951 -63.7019C143.811 -23.1271 57.4935 76.0181 85.1106 110.995C109.224 141.576 297.607 169.49 334.267 197.78C349.79 209.765 359.246 226.408 353.557 248.611C347.943 270.589 338.11 291.553 326.995 315.635C291.692 392.051 302.731 410.159 311.322 431.085" stroke="#462AA1"/>
  <path d="M9.38037 -140.343C9.38037 -140.343 135.371 -102.21 140.232 -61.6357C145.092 -21.0609 58.7746 79.0611 86.3916 114.076C110.392 144.469 297.344 170.843 335.058 199.095C350.807 210.929 360.339 227.422 354.65 249.475C348.923 271.566 339.24 292.53 328.502 316.348C293.538 393.854 306.725 411.286 314.976 431.385" stroke="#482BA5"/>
  <path d="M10.0581 -138.502C10.0581 -138.502 136.69 -100.106 141.55 -59.5317C146.41 -18.9569 60.0551 82.142 87.6722 117.156C111.522 147.4 297.079 172.158 335.887 200.448C351.861 212.094 361.469 228.474 355.742 250.377C349.94 272.58 340.332 293.544 329.971 317.138C295.384 395.695 310.681 412.488 318.593 431.761" stroke="#4A2CA9"/>
  <path d="M10.7363 -136.661C10.7363 -136.661 137.971 -98.0026 142.869 -57.4279C147.767 -16.8531 61.2985 85.2226 88.9533 120.237C112.652 150.292 296.816 173.51 336.678 201.762C352.879 213.259 362.599 229.488 356.797 251.241C350.882 273.557 341.425 294.521 331.403 317.851C297.193 397.498 314.637 413.653 322.172 432.062" stroke="#4B2DAD"/>
  <path d="M11.4146 -134.858C11.4146 -134.858 139.289 -95.9364 144.15 -55.3616C149.01 -14.7869 62.6172 88.2656 90.2343 123.28C113.82 153.185 296.552 174.825 337.469 203.04C353.896 214.386 363.692 230.465 357.89 252.067C351.862 274.496 342.555 295.422 332.872 318.565C299.076 399.301 318.593 414.78 325.789 432.362" stroke="#4D2EB0"/>
  <path d="M12.0928 -133.017C12.0928 -133.017 140.57 -93.7948 145.468 -53.22C150.366 -12.6452 63.8606 91.384 91.4776 126.399C114.913 156.116 296.213 176.215 338.223 204.392C354.876 215.55 364.747 231.48 358.907 252.969C352.803 275.511 343.61 296.437 334.267 319.317C300.923 401.142 322.474 415.945 329.331 432.701" stroke="#4E2FB4"/>
  <path d="M12.7334 -131.176C12.7334 -131.176 141.852 -91.691 146.712 -51.1162C151.572 -10.5414 65.1417 94.4646 92.7588 129.479C116.081 159.009 295.949 177.568 339.014 205.707C355.893 216.715 365.84 232.494 359.962 253.833C353.746 276.45 344.703 297.414 335.698 320.03C302.807 402.983 326.392 417.072 332.91 433.001" stroke="#5031B8"/>
  <path d="M13.4116 -129.373C13.4116 -129.373 143.133 -89.6248 148.031 -49.05C152.891 -8.47522 66.3851 97.5452 94.0022 132.522C117.173 161.901 295.61 178.92 339.767 207.022C356.835 217.88 366.895 233.508 360.98 254.697C354.65 277.427 345.758 298.39 337.13 320.782C304.69 404.824 330.311 418.274 336.49 433.339" stroke="#5232BC"/>
  <path d="M14.0898 -127.532C14.0898 -127.532 144.451 -87.5207 149.312 -46.9459C154.172 -6.37116 67.6662 100.626 95.2832 135.641C118.341 164.832 295.347 180.348 340.559 208.375C357.852 219.082 367.987 234.56 362.072 255.599C355.629 278.441 346.888 299.405 338.6 321.533C306.687 406.703 334.304 419.439 340.144 433.677" stroke="#5333BF"/>
  <path d="M14.7681 -125.691C14.7681 -125.691 145.732 -85.4169 150.63 -44.8422C155.491 -4.26737 68.9472 103.707 96.5643 138.721C119.472 167.762 295.045 181.738 341.35 209.689C358.87 220.284 369.08 235.537 363.127 256.463C356.609 279.418 347.981 300.382 340.031 322.284C308.609 408.581 338.223 420.603 343.724 434.015" stroke="#5534C3"/>
  <path d="M15.4463 -123.888C15.4463 -123.888 147.051 -83.3507 151.911 -42.776C156.772 -2.20118 70.2283 106.787 97.8453 141.764C120.602 170.617 294.782 183.128 342.141 210.967C359.887 221.411 370.173 236.514 364.182 257.29C357.551 280.357 349.111 301.321 341.463 322.961C310.606 410.384 342.141 421.693 347.303 434.278" stroke="#5735C7"/>
  <path d="M16.1245 -122.047C16.1245 -122.047 148.37 -81.2469 153.23 -40.6722C158.09 -0.0973743 71.4716 109.83 99.1264 144.845C121.77 173.548 294.48 184.518 342.97 212.319C360.942 222.613 371.303 237.566 365.275 258.191C358.531 281.371 350.242 302.335 342.933 323.749C312.64 412.3 346.097 422.932 350.92 434.654" stroke="#5836CB"/>
  <path d="M16.8022 -120.206C16.8022 -120.206 149.65 -79.1429 154.511 -38.5305C159.371 2.04423 72.7522 112.949 100.369 147.963C122.862 176.478 294.141 185.983 343.723 213.672C361.921 223.815 372.358 238.58 366.329 259.093C359.472 282.386 351.372 303.387 344.364 324.501C314.674 414.179 350.015 424.097 354.499 434.992" stroke="#5A37CE"/>
  <path d="M17.4805 -118.403C17.4805 -118.403 150.969 -77.0391 155.829 -36.4643C160.69 4.11045 74.0332 115.992 101.65 151.006C124.03 179.371 293.839 187.373 344.514 214.949C362.901 224.98 373.45 239.557 367.384 259.919C360.414 283.325 352.502 304.326 345.833 325.215C316.784 416.057 354.009 425.224 358.116 435.293" stroke="#5B38D2"/>
  <path d="M18.1587 -116.562C18.1587 -116.562 152.25 -74.9351 157.11 -34.3603C161.971 6.2145 75.3143 119.073 102.931 154.087C125.161 182.264 293.538 188.801 345.306 216.264C363.918 226.145 374.543 240.571 368.439 260.784C361.394 284.264 353.632 305.303 347.265 325.929C318.857 417.936 357.927 426.351 361.695 435.593" stroke="#5D39D6"/>
  <path d="M18.8369 -114.721C18.8369 -114.721 153.569 -72.8312 158.429 -32.2565C163.29 8.3183 76.5954 122.191 104.212 157.168C126.329 185.194 293.237 190.266 346.097 217.617C364.936 227.385 375.636 241.623 369.532 261.685C362.373 285.279 354.8 306.317 348.735 326.68C321.042 419.814 361.884 427.553 365.312 435.931" stroke="#5F3ADA"/>
  <path d="M19.5151 -112.918C19.5151 -112.918 154.85 -70.765 159.748 -30.1903C164.646 10.3845 77.8764 125.234 105.493 160.248C127.459 188.087 292.973 191.694 346.888 218.931C365.953 228.549 376.691 242.6 370.587 262.549C363.315 286.255 355.931 307.294 350.166 327.431C323.19 421.73 365.802 428.718 368.892 436.269" stroke="#603BDD"/>
  <path d="M20.1934 -111.077C20.1934 -111.077 156.169 -68.661 161.029 -28.0862C165.889 12.4886 79.1198 128.315 106.737 163.329C128.552 190.98 292.634 193.159 347.642 220.246C366.932 229.751 377.746 243.614 371.604 263.413C364.22 287.232 357.023 308.271 351.56 328.145C325.337 423.609 369.683 429.845 372.433 436.57" stroke="#623CE1"/>
  <path d="M20.8716 -109.236C20.8716 -109.236 157.45 -66.5572 162.348 -25.9824C167.246 14.5924 80.4008 131.395 108.018 166.41C129.72 193.91 292.332 194.624 348.433 221.561C367.95 230.916 378.838 244.629 372.659 264.278C365.162 288.209 358.191 309.248 353.03 328.897C327.598 425.525 373.676 431.01 376.05 436.908" stroke="#643DE5"/>
  <path d="M21.5498 -107.433C21.5498 -107.433 158.768 -64.491 163.629 -23.8786C168.489 16.7337 81.6819 134.476 109.299 169.49C130.85 196.803 292.031 196.089 349.224 222.876C368.967 232.118 379.931 245.606 373.752 265.142C366.141 289.186 359.359 310.225 354.499 329.61C329.896 427.403 377.633 432.174 379.667 437.209" stroke="#653FE9"/>
  <path d="M22.228 -105.592C22.228 -105.592 160.05 -62.3496 164.948 -21.7748C169.808 18.7999 82.9629 137.556 110.58 172.571C132.018 199.733 291.73 197.592 350.053 224.229C370.022 233.358 381.061 246.657 374.845 266.043C367.121 290.163 360.565 311.239 355.969 330.399C332.232 429.357 381.589 433.376 383.284 437.547" stroke="#6740EC"/>
  <path d="M22.9062 -103.751C22.9062 -103.751 161.368 -60.2455 166.229 -19.6708C171.089 20.904 84.2063 140.637 111.823 175.652C133.111 202.626 291.391 199.057 350.807 225.544C371.002 234.523 382.116 247.672 375.862 266.945C368.025 291.177 361.658 312.254 357.363 331.151C334.568 431.273 385.469 434.541 386.863 437.885" stroke="#6841F0"/>
  <path d="M23.5845 -101.948C23.5845 -101.948 162.649 -58.1793 167.547 -17.6046C172.445 22.9702 85.4874 143.718 113.104 178.695C134.279 205.519 291.089 200.522 351.598 226.821C372.019 235.687 383.209 248.611 376.917 267.771C368.967 292.116 362.826 313.155 358.794 331.827C336.942 433.114 389.388 435.668 390.443 438.148" stroke="#6A42F4"/>
  <path d="M24.2622 -100.106C24.2622 -100.106 163.968 -56.0753 168.828 -15.5005C173.688 25.0742 86.7679 146.799 114.385 181.776C135.409 208.412 290.787 202.025 352.389 228.136C373.036 236.89 384.263 249.626 378.009 268.636C369.871 293.056 364.031 314.132 360.263 332.578C339.428 435.03 393.343 436.833 394.059 438.486" stroke="#6C43F8"/>
  <path d="M24.9404 -98.3032C24.9404 -98.3032 165.249 -54.0091 170.147 -13.4343C175.045 27.1405 88.049 149.842 115.666 184.856C136.539 211.343 290.524 203.528 353.18 229.488C374.053 238.129 385.356 250.678 379.064 269.537C370.851 294.07 365.199 315.146 361.733 333.33C341.915 436.946 397.337 437.998 397.676 438.824" stroke="#6D44FB"/>
  <path d="M25.6187 -96.4624C25.6187 -96.4624 166.567 -51.9053 171.428 -11.3305C176.288 29.2443 89.2923 152.922 116.909 187.937C144.526 222.951 405.513 195.075 380.081 270.364C323.265 438.711 401.218 439.125 401.218 439.125" stroke="#6F45FF"/>
</svg>
