<svg width="1043" height="811" viewBox="0 0 1043 811" fill="none" xmlns="http://www.w3.org/2000/svg">
<g clip-path="url(#clip0)">
<path d="M0.37793 917.924C0.37793 917.924 31.8154 692.396 111.316 671.453C190.816 650.511 472.167 775.712 534.286 711.07C596.405 646.428 558.544 190.532 614.92 178.662C701.071 160.442 1156.61 447.21 1156.61 447.21" stroke="#FF6365"/>
<path d="M3.85425 916.034C3.85425 916.034 35.594 689.145 115.095 668.278C194.595 647.411 475.945 772.537 538.064 707.895C600.184 643.253 562.323 187.357 618.699 175.487C704.849 157.266 1156.76 441.54 1156.76 441.54" stroke="#FC6268"/>
<path d="M7.25488 914.22C7.25488 914.22 39.3725 686.045 118.873 665.102C198.374 644.16 479.724 769.361 541.843 704.719C603.962 640.153 566.101 184.182 622.477 172.312C708.628 154.091 1156.84 435.869 1156.84 435.869" stroke="#F9626B"/>
<path d="M10.7312 912.405C10.7312 912.405 43.2267 682.945 122.727 662.003C202.228 641.06 483.578 766.261 545.697 701.619C607.816 636.977 569.955 181.082 626.331 169.212C712.482 150.991 1157.07 430.274 1157.07 430.274" stroke="#F7616E"/>
<path d="M14.2073 910.515C14.2073 910.515 47.0806 679.694 126.581 658.827C206.082 637.96 487.432 763.086 549.551 698.444C611.67 633.802 573.809 177.906 630.185 166.036C716.336 147.816 1157.29 424.604 1157.29 424.604" stroke="#F46171"/>
<path d="M17.6836 908.7C17.6836 908.7 50.8592 676.594 130.435 655.652C209.936 634.709 491.286 759.911 553.405 695.269C615.525 630.702 577.664 174.731 634.039 162.861C720.19 144.64 1157.44 418.934 1157.44 418.934" stroke="#F16074"/>
<path d="M21.0845 906.81C21.0845 906.81 54.6379 673.419 134.138 652.477C213.639 631.534 494.989 756.735 557.108 692.093C619.228 627.451 581.442 171.556 637.818 159.686C723.969 141.465 1157.59 413.264 1157.59 413.264" stroke="#EE5F77"/>
<path d="M24.5605 904.996C24.5605 904.996 58.4919 670.243 137.992 649.301C217.493 628.359 498.843 753.56 560.962 688.918C623.082 624.276 585.221 168.38 641.596 156.51C727.747 138.29 1157.75 407.593 1157.75 407.593" stroke="#EB5F7A"/>
<path d="M28.0369 903.106C28.0369 903.106 62.346 667.068 141.847 646.126C221.347 625.183 502.697 750.385 564.817 685.743C626.936 621.176 589.075 165.205 645.451 153.335C731.601 135.114 1157.9 401.847 1157.9 401.847" stroke="#E85E7D"/>
<path d="M31.4375 901.291C31.4375 901.291 66.1245 663.968 145.625 643.026C225.126 622.083 506.476 747.285 568.595 682.643C630.714 618.001 592.853 162.105 649.229 150.16C735.38 131.939 1158.05 396.177 1158.05 396.177" stroke="#E65E80"/>
<path d="M34.9138 899.401C34.9138 899.401 69.9031 660.717 149.479 639.775C229.055 618.833 510.33 744.034 572.449 679.392C634.568 614.75 596.707 158.854 653.083 146.984C739.234 128.763 1158.2 390.507 1158.2 390.507" stroke="#E35D83"/>
<path d="M38.3901 897.587C38.3901 897.587 73.7573 657.618 153.258 636.675C232.758 615.733 514.109 740.934 576.228 676.292C638.347 611.726 600.486 155.754 656.862 143.884C743.013 125.664 1158.35 384.912 1158.35 384.912" stroke="#E05D86"/>
<path d="M41.8665 895.696C41.8665 895.696 77.6115 654.367 157.112 633.5C236.613 612.557 517.963 737.758 580.082 673.116C642.201 608.475 604.34 152.579 660.716 140.709C746.867 122.488 1158.5 379.241 1158.5 379.241" stroke="#DD5C89"/>
<path d="M45.2671 893.882C45.2671 893.882 81.39 651.267 160.89 630.324C240.391 609.382 521.741 734.583 583.86 669.941C645.98 605.299 608.119 149.403 664.495 137.534C750.645 119.313 1158.65 373.571 1158.65 373.571" stroke="#DA5B8C"/>
<path d="M48.7432 891.992C48.7432 891.992 85.2439 648.092 164.744 627.149C244.245 606.207 525.595 731.408 587.714 666.766C649.834 602.2 611.973 146.228 668.348 134.358C754.499 116.138 1158.88 367.901 1158.88 367.901" stroke="#D75B8F"/>
<path d="M52.2195 890.177C52.2195 890.177 89.0225 644.916 168.523 624.049C248.023 603.107 529.374 728.308 591.493 663.666C653.612 599.024 615.751 143.128 672.127 131.259C758.278 113.038 1158.95 362.306 1158.95 362.306" stroke="#D55A92"/>
<path d="M55.6201 888.287C55.6201 888.287 92.801 641.741 172.301 620.798C251.802 599.856 533.152 725.057 595.271 660.415C657.391 595.773 619.53 139.877 675.906 128.007C762.056 109.787 1159.11 356.56 1159.11 356.56" stroke="#D25A95"/>
<path d="M59.0964 886.473C59.0964 886.473 96.6552 638.641 176.156 617.698C255.656 596.756 537.006 721.957 599.126 657.315C661.245 592.749 623.384 136.778 679.76 124.908C765.91 106.687 1159.33 350.965 1159.33 350.965" stroke="#CF5998"/>
<path d="M62.5728 884.583C62.5728 884.583 100.509 635.39 180.01 614.448C259.51 593.505 540.861 718.706 602.98 654.064C665.099 589.422 627.238 133.602 683.614 121.732C769.765 103.512 1159.48 345.295 1159.48 345.295" stroke="#CC589B"/>
<path d="M66.0491 882.768C66.0491 882.768 104.363 632.29 183.864 611.348C263.365 590.405 544.715 715.606 606.834 650.965C668.953 586.323 631.017 130.427 687.392 118.557C773.543 100.336 1159.63 339.549 1159.63 339.549" stroke="#C9589E"/>
<path d="M69.4497 880.878C69.4497 880.878 108.066 629.115 187.567 608.173C267.067 587.23 548.418 712.431 610.537 647.789C672.656 583.223 634.795 127.251 691.171 115.381C777.322 97.1608 1159.79 333.879 1159.79 333.879" stroke="#C757A1"/>
<path d="M72.926 879.063C72.926 879.063 111.921 625.939 191.421 604.997C270.922 584.054 552.272 709.256 614.391 644.614C676.51 579.972 638.649 124.076 695.025 112.206C781.176 93.9853 1159.94 328.208 1159.94 328.208" stroke="#C457A4"/>
<path d="M76.4021 877.173C76.4021 877.173 115.775 622.764 195.275 601.821C274.776 580.879 556.126 706.08 618.245 641.438C680.364 576.796 642.503 120.901 698.879 109.031C785.03 90.8099 1160.16 322.538 1160.16 322.538" stroke="#C156A7"/>
<path d="M79.803 875.359C79.803 875.359 119.553 619.588 199.054 598.722C278.554 577.779 559.904 702.98 622.024 638.338C684.143 573.772 646.282 117.801 702.658 105.931C788.809 87.7101 1160.24 316.943 1160.24 316.943" stroke="#BE55AA"/>
<path d="M83.2791 873.469C83.2791 873.469 123.407 616.413 202.908 595.471C282.408 574.528 563.758 699.729 625.878 635.087C687.997 570.446 650.136 114.625 706.512 102.68C792.662 84.4591 1160.47 311.197 1160.47 311.197" stroke="#BB55AD"/>
<path d="M86.7554 871.654C86.7554 871.654 127.186 613.313 206.686 592.371C286.187 571.428 567.537 696.629 629.656 631.988C691.776 567.346 653.99 111.45 710.366 99.58C796.517 81.3593 1160.69 305.602 1160.69 305.602" stroke="#B854B0"/>
<path d="M90.2317 869.764C90.2317 869.764 131.04 610.062 210.54 589.196C290.041 568.253 571.391 693.454 633.51 628.812C695.63 564.246 657.769 108.275 714.145 96.4047C800.295 78.184 1160.77 299.932 1160.77 299.932" stroke="#B654B4"/>
<path d="M93.6323 867.95C93.6323 867.95 134.818 606.962 214.319 586.02C293.819 565.077 575.17 690.279 637.289 625.637C699.408 560.995 661.547 105.099 717.923 93.2292C804.074 75.0085 1160.92 294.262 1160.92 294.262" stroke="#B353B7"/>
<path d="M97.1086 866.059C97.1086 866.059 138.673 603.787 218.173 582.845C297.674 561.902 579.024 687.103 641.143 622.461C703.262 557.819 665.401 101.924 721.777 90.0539C807.928 71.8332 1161.07 288.592 1161.07 288.592" stroke="#B053BA"/>
<path d="M100.585 864.245C100.585 864.245 142.527 600.612 222.027 579.669C301.528 558.727 582.878 683.928 644.997 619.286C707.117 554.72 669.256 98.7483 725.631 86.8784C811.782 68.6577 1161.3 282.921 1161.3 282.921" stroke="#AD52BD"/>
<path d="M104.061 862.355C104.061 862.355 146.305 597.437 225.806 576.494C305.306 555.552 586.656 680.753 648.776 616.111C710.895 551.469 673.034 95.573 729.41 83.7031C815.56 65.4824 1161.45 277.251 1161.45 277.251" stroke="#AA51C0"/>
<path d="M107.462 860.54C107.462 860.54 150.084 594.337 229.584 573.394C309.085 552.452 590.435 677.653 652.554 613.011C714.674 548.369 676.888 92.4731 733.264 80.6032C819.415 62.3825 1161.6 271.58 1161.6 271.58" stroke="#A751C3"/>
<path d="M110.938 858.65C110.938 858.65 153.938 591.086 233.438 570.143C312.939 549.201 594.289 674.402 656.408 609.76C718.528 545.194 680.667 89.2223 737.042 77.3524C823.193 59.1317 1161.75 265.835 1161.75 265.835" stroke="#A550C6"/>
<path d="M114.414 856.835C114.414 856.835 157.792 587.986 237.292 567.043C316.793 546.101 598.143 671.302 660.262 606.66C722.382 542.018 684.521 86.1224 740.897 74.2524C827.047 56.0317 1161.98 260.24 1161.98 260.24" stroke="#A250C9"/>
<path d="M117.815 854.946C117.815 854.946 161.57 584.735 241.071 563.868C320.572 543.001 601.922 668.127 664.041 603.485C726.16 538.843 688.299 82.9471 744.675 71.0771C830.826 52.8564 1162.05 254.569 1162.05 254.569" stroke="#9F4FCC"/>
<path d="M121.291 853.131C121.291 853.131 165.349 581.635 244.85 560.692C324.35 539.75 605.7 664.951 667.82 600.309C730.014 535.743 692.153 79.8472 748.529 67.9017C834.68 49.681 1162.28 248.899 1162.28 248.899" stroke="#9C4ECF"/>
<path d="M124.768 851.241C124.768 851.241 169.203 578.46 248.704 557.517C328.204 536.575 609.554 661.776 671.674 597.134C733.793 532.492 695.932 76.6718 752.308 64.7263C838.459 46.5056 1162.36 243.229 1162.36 243.229" stroke="#994ED2"/>
<path d="M128.244 849.427C128.244 849.427 173.057 575.284 252.558 554.417C332.058 533.55 613.409 658.676 675.528 594.034C737.647 529.392 699.786 73.4966 756.162 61.6267C842.313 43.406 1162.58 237.634 1162.58 237.634" stroke="#974DD5"/>
<path d="M131.645 847.537C131.645 847.537 176.836 572.109 256.336 551.166C335.837 530.224 617.187 655.425 679.306 590.783C741.426 526.217 703.565 70.2455 759.94 58.3755C846.091 40.1548 1162.73 231.888 1162.73 231.888" stroke="#944DD8"/>
<path d="M135.121 845.722C135.121 845.722 180.69 569.009 260.191 548.067C339.691 527.124 621.041 652.325 683.161 587.683C745.28 523.117 707.419 67.1456 763.795 55.2757C849.945 37.055 1162.88 226.293 1162.88 226.293" stroke="#914CDB"/>
<path d="M138.597 843.908C138.597 843.908 184.468 565.834 263.969 544.891C343.469 523.949 624.82 649.15 686.939 584.508C749.058 519.866 711.197 63.9704 767.573 52.1005C853.724 33.8798 1163.04 220.623 1163.04 220.623" stroke="#8E4BDE"/>
<path d="M141.998 842.017C141.998 842.017 188.247 562.658 267.747 541.716C347.248 520.773 628.598 645.975 690.717 581.333C752.837 516.766 714.976 60.7949 771.352 48.925C857.502 30.7043 1163.19 214.953 1163.19 214.953" stroke="#8B4BE1"/>
<path d="M145.474 840.203C145.474 840.203 192.101 559.558 271.602 538.616C351.102 517.673 632.452 642.875 694.572 578.233C756.691 513.666 718.83 57.695 775.206 45.8251C861.356 27.6044 1163.34 209.282 1163.34 209.282" stroke="#884AE4"/>
<path d="M148.95 838.312C148.95 838.312 195.955 556.307 275.456 535.365C354.956 514.422 636.307 639.624 698.426 575.057C760.545 510.491 722.684 54.5196 779.06 42.6497C865.211 24.429 1163.56 203.612 1163.56 203.612" stroke="#864AE7"/>
<path d="M152.427 836.498C152.427 836.498 199.809 553.208 279.31 532.265C358.81 511.323 640.161 636.524 702.28 571.882C764.399 507.24 726.538 51.3444 782.914 39.4745C869.065 21.2538 1163.72 197.942 1163.72 197.942" stroke="#8349EA"/>
<path d="M155.827 834.608C155.827 834.608 203.512 549.957 283.013 529.09C362.513 508.147 643.864 633.349 705.983 568.707C768.102 504.14 730.241 48.1689 786.617 36.299C872.768 18.0783 1163.79 192.271 1163.79 192.271" stroke="#8049ED"/>
<path d="M159.303 832.793C159.303 832.793 207.367 546.857 286.867 525.914C366.368 504.972 647.718 630.173 709.837 565.531C771.956 500.889 734.095 44.9934 790.471 33.1235C876.622 14.9028 1164.02 186.601 1164.02 186.601" stroke="#7D48F0"/>
<path d="M162.78 830.903C162.78 830.903 211.221 543.682 290.721 522.739C370.222 501.797 651.572 626.998 713.691 562.356C775.81 497.714 737.949 41.8182 794.325 29.9483C880.476 11.7276 1164.17 180.931 1164.17 180.931" stroke="#7A47F3"/>
<path d="M166.18 829.089C166.18 829.089 214.999 540.506 294.5 519.639C374 498.697 655.35 623.898 717.47 559.256C779.589 494.69 741.728 38.7185 798.104 26.8485C884.254 8.62782 1164.32 175.336 1164.32 175.336" stroke="#7747F6"/>
<path d="M169.657 827.199C169.657 827.199 218.853 537.331 298.354 516.388C377.854 495.446 659.205 620.647 721.324 556.005C783.443 491.363 745.582 35.4674 801.958 23.5975C888.109 5.37675 1164.47 169.59 1164.47 169.59" stroke="#7546F9"/>
<path d="M173.133 825.384C173.133 825.384 222.632 534.231 302.132 513.288C381.633 492.346 662.983 617.547 725.102 552.905C787.221 488.339 749.36 32.3675 805.736 20.4976C891.887 2.27688 1164.62 163.995 1164.62 163.995" stroke="#7246FC"/>
<path d="M176.609 823.494C176.609 823.494 226.486 530.98 305.986 510.038C385.487 489.095 666.837 614.296 728.956 549.654C791.076 485.088 753.215 29.1166 809.59 17.2467C895.741 -0.974027 1164.85 158.249 1164.85 158.249" stroke="#6F45FF"/>
<path d="M200.792 -369.622C200.792 -369.622 419.796 -307.475 429.545 -225.822C439.293 -144.169 267.596 4.01591 322.99 74.4794C378.383 144.943 823.949 288.743 848.132 341.061C876.395 402.377 907.379 472.689 799.313 608.777C716.714 712.809 620.588 776.846 655.728 862.809" stroke="#1C0E40"/>
<path d="M202.152 -365.993C202.152 -365.993 422.366 -303.317 432.19 -221.664C441.938 -140.011 270.166 10.1398 325.635 80.6033C380.802 150.689 824.025 291.162 849.794 343.707C866.873 378.561 883.877 416.741 874.808 468.682C867.931 507.24 847.074 552.83 802.336 610.289C720.115 715.984 628.598 779.19 663.059 863.489" stroke="#1E0F44"/>
<path d="M203.512 -362.288C203.512 -362.288 425.01 -299.083 434.759 -217.354C444.508 -135.626 272.66 16.4151 328.129 86.803C382.993 156.586 823.873 293.582 851.305 346.354C869.14 380.754 886.068 418.783 876.848 470.421C869.82 509.206 848.812 554.493 805.132 611.726C723.213 719.084 636.458 781.534 670.162 864.094" stroke="#1F1047"/>
<path d="M204.873 -358.584C204.873 -358.584 427.58 -294.773 437.404 -213.12C447.153 -131.468 275.305 22.6147 330.698 93.0782C385.26 162.483 823.798 296.076 852.892 349.075C871.483 382.946 888.335 420.9 878.964 472.235C871.785 511.247 850.625 556.232 808.003 613.313C726.462 722.411 644.317 783.953 677.341 864.85" stroke="#21114B"/>
<path d="M206.233 -354.955C206.233 -354.955 430.225 -290.615 439.974 -208.962C449.722 -127.309 277.798 28.7385 333.192 99.202C387.527 168.305 823.647 298.42 854.404 351.646C873.675 385.063 890.527 422.865 881.081 473.898C873.75 513.137 852.515 557.895 810.875 614.674C729.637 725.511 652.176 786.145 684.521 865.379" stroke="#23124F"/>
<path d="M207.593 -351.25C207.593 -351.25 432.794 -286.381 442.618 -204.729C452.442 -123.076 280.368 34.9381 335.761 105.402C389.794 174.126 823.495 300.915 855.991 354.292C876.017 387.18 892.794 424.907 883.196 475.637C875.715 515.103 854.404 559.634 813.822 616.186C732.961 728.762 660.111 788.489 691.775 866.06" stroke="#241353"/>
<path d="M208.878 -347.545C208.878 -347.545 435.364 -282.147 445.112 -200.494C454.937 -118.841 282.937 41.1379 338.331 111.601C392.137 180.024 823.344 303.335 857.578 357.014C878.209 389.448 895.061 427.024 885.312 477.452C877.68 517.145 856.293 561.449 816.694 617.699C736.211 732.088 667.971 790.909 698.955 866.74" stroke="#261456"/>
<path d="M210.238 -343.917C210.238 -343.917 437.933 -277.989 447.757 -196.336C457.581 -114.683 285.431 47.3373 340.824 117.801C394.329 185.845 823.118 305.754 859.089 359.66C880.4 391.565 897.177 429.065 887.353 479.191C879.569 519.11 858.107 563.188 819.49 619.135C739.309 735.339 675.754 793.177 706.134 867.345" stroke="#27165A"/>
<path d="M211.598 -340.212C211.598 -340.212 440.578 -273.755 450.327 -192.102C460.075 -110.45 288.001 53.5369 343.394 124C396.671 191.667 822.891 308.098 860.676 362.306C882.592 393.758 899.444 431.106 889.544 480.93C881.534 521.076 860.072 565.002 822.438 620.647C742.635 738.666 683.765 795.521 713.389 868.025" stroke="#29175E"/>
<path d="M212.959 -336.507C212.959 -336.507 443.148 -269.522 452.972 -187.793C462.72 -106.14 290.57 59.812 345.963 130.276C398.939 197.639 822.664 310.593 862.339 365.028C884.859 396.026 901.711 433.148 891.736 482.744C883.574 523.117 862.112 566.817 825.385 622.159C745.96 741.992 691.7 797.864 720.644 868.706" stroke="#2B1862"/>
<path d="M214.319 -332.878C214.319 -332.878 445.792 -265.288 455.541 -183.635C465.29 -101.982 293.064 65.9361 348.457 136.4C401.13 203.385 822.362 313.012 863.85 367.674C886.975 398.218 903.903 435.189 893.776 484.483C885.463 525.083 863.926 568.631 828.181 623.671C749.134 745.395 699.484 800.284 727.747 869.386" stroke="#2C1965"/>
<path d="M215.679 -329.174C215.679 -329.174 448.437 -261.054 458.186 -179.401C467.935 -97.7479 295.633 72.1356 351.027 142.599C403.473 209.282 822.06 315.431 865.437 370.32C889.166 400.411 906.094 437.23 895.892 486.222C887.353 527.049 865.891 570.446 831.128 625.108C752.459 748.646 707.419 802.552 735.002 869.991" stroke="#2E1A69"/>
<path d="M217.04 -325.469C217.04 -325.469 451.007 -256.82 460.755 -175.167C470.504 -93.5141 298.203 78.3352 353.596 148.799C405.74 215.104 821.757 317.851 867.024 372.966C891.283 402.603 908.362 439.272 898.084 487.961C889.393 529.014 867.931 572.26 834.075 626.62C755.784 752.048 715.354 804.895 742.257 870.671" stroke="#301B6D"/>
<path d="M218.4 -321.84C218.4 -321.84 453.652 -252.662 463.4 -171.009C473.149 -89.3557 300.772 84.5349 356.165 154.998C408.082 220.926 821.455 320.27 868.611 375.613C893.474 404.796 910.553 441.313 900.2 489.7C891.358 530.98 869.896 574.075 836.947 628.056C759.109 755.45 723.288 807.164 749.436 871.276" stroke="#311C71"/>
<path d="M219.76 -318.135C219.76 -318.135 456.221 -248.428 466.045 -166.775C475.794 -85.1219 303.341 90.6588 358.735 161.122C410.35 226.747 821.153 322.689 870.198 378.183C895.59 406.913 912.82 443.279 902.316 491.363C893.247 532.87 871.936 575.889 839.819 629.493C762.359 758.777 731.148 809.507 756.615 871.881" stroke="#331D74"/>
<path d="M221.12 -314.431C221.12 -314.431 458.866 -244.194 468.615 -162.541C478.363 -80.8881 305.911 96.934 361.304 167.322C412.692 232.644 820.775 325.109 871.785 380.905C897.706 409.181 915.012 445.32 904.432 493.178C895.212 534.911 873.901 577.779 842.69 631.005C765.684 762.254 739.007 811.851 763.794 872.562" stroke="#341E78"/>
<path d="M222.48 -310.802C222.48 -310.802 461.435 -240.036 471.26 -158.307C481.084 -76.5787 308.405 103.058 363.798 173.521C414.884 238.466 820.321 327.604 873.297 383.551C899.746 411.449 917.203 447.361 906.548 494.916C897.177 536.877 875.941 579.669 845.638 632.441C769.084 765.657 746.942 814.119 771.049 873.091" stroke="#361F7C"/>
<path d="M223.841 -307.097C223.841 -307.097 464.08 -235.726 473.829 -154.073C483.578 -72.4205 310.974 109.333 366.367 179.796C417.151 244.438 819.943 330.174 874.883 386.273C901.787 413.793 919.395 449.478 908.664 496.731C899.066 538.918 877.982 581.635 848.509 634.029C772.409 769.21 754.801 816.538 778.228 873.847" stroke="#382080"/>
<path d="M225.201 -303.393C225.201 -303.393 466.65 -231.493 476.474 -149.84C486.298 -68.1867 313.543 115.533 368.937 185.996C419.494 250.26 819.566 332.669 876.546 388.919C903.979 415.985 921.662 451.519 910.855 498.47C901.107 540.884 880.098 583.449 851.457 635.465C775.886 772.688 762.812 818.882 785.483 874.451" stroke="#392183"/>
<path d="M226.561 -299.763C226.561 -299.763 469.295 -227.334 479.044 -145.681C488.792 -64.0282 316.037 121.657 371.506 192.12C421.761 256.082 819.112 335.164 878.133 391.565C906.019 418.254 923.929 453.561 913.047 500.209C903.071 542.85 882.214 585.34 854.404 636.978C779.362 776.166 770.747 821.226 792.738 875.132" stroke="#3B2287"/>
<path d="M227.922 -296.059C227.922 -296.059 471.864 -223.1 481.688 -141.447C491.513 -59.7945 318.607 127.856 374.076 198.32C424.103 261.903 818.659 337.659 879.72 394.211C908.135 420.522 926.121 455.602 915.163 501.948C905.036 544.816 884.254 587.305 857.276 638.414C782.763 779.643 778.606 823.494 799.993 875.737" stroke="#3D248B"/>
<path d="M229.282 -292.354C229.282 -292.354 474.509 -218.867 484.258 -137.214C494.007 -55.5606 321.176 134.056 376.57 204.519C426.295 267.725 818.13 340.229 881.232 396.857C910.1 422.79 928.237 457.568 917.203 503.687C906.85 546.781 886.295 589.196 860.072 639.926C786.088 783.197 786.39 825.838 807.097 876.417" stroke="#3E258F"/>
<path d="M230.642 -288.725C230.642 -288.725 477.079 -214.708 486.903 -133.055C496.652 -51.4023 323.746 140.18 379.139 210.643C428.562 273.546 817.676 342.724 882.818 399.428C912.14 424.982 930.428 459.534 919.319 505.35C908.815 548.671 888.411 591.01 863.019 641.287C789.64 786.675 794.325 828.106 814.351 876.947" stroke="#402692"/>
<path d="M232.002 -285.021C232.002 -285.021 479.724 -210.474 489.472 -128.746C499.221 -47.0172 326.315 146.455 381.708 216.918C430.905 279.443 817.147 345.371 884.406 402.15C914.18 427.326 932.695 461.65 921.511 507.164C910.78 550.713 890.527 593.051 865.966 642.799C793.192 790.228 802.336 830.45 821.606 877.627" stroke="#412796"/>
<path d="M233.363 -281.392C233.363 -281.392 482.369 -206.241 492.117 -124.588C501.866 -42.9347 328.884 152.654 384.278 223.042C433.172 285.265 816.694 347.941 885.993 404.796C916.221 429.594 934.887 463.692 923.627 508.903C912.745 552.678 892.643 594.941 868.838 644.311C796.668 793.857 810.195 832.793 828.785 878.307" stroke="#43289A"/>
<path d="M234.723 -277.687C234.723 -277.687 484.938 -202.007 494.687 -120.354C504.435 -38.7009 331.378 158.854 386.772 229.317C435.439 291.162 816.09 350.587 887.504 407.518C918.186 432.013 937.003 465.809 925.667 510.718C914.558 554.72 894.683 596.983 871.634 645.823C800.069 797.486 817.979 835.213 835.889 878.988" stroke="#45299E"/>
<path d="M236.083 -273.982C236.083 -273.982 487.583 -197.773 497.332 -116.12C507.08 -34.4668 333.948 165.054 389.341 235.442C437.706 296.984 815.56 353.158 889.091 410.088C920.226 434.206 939.194 467.699 927.783 512.381C916.523 556.61 896.799 598.797 874.506 647.26C803.696 801.04 825.838 837.481 843.068 879.593" stroke="#462AA1"/>
<path d="M237.444 -270.353C237.444 -270.353 490.152 -193.615 499.901 -111.962C509.65 -30.3087 336.517 171.178 391.91 241.641C440.049 302.805 815.031 355.88 890.678 412.734C922.266 436.55 941.386 469.74 929.975 514.12C918.488 558.575 899.066 600.763 877.529 648.696C807.399 804.668 833.849 839.749 850.399 880.197" stroke="#482BA5"/>
<path d="M238.804 -266.649C238.804 -266.649 492.798 -189.381 502.546 -107.728C512.295 -26.0749 339.086 177.377 394.48 247.841C442.316 308.702 814.503 358.526 892.341 415.456C924.383 438.893 943.653 471.857 932.166 515.935C920.529 560.617 901.258 602.804 880.476 650.284C811.102 808.373 841.784 842.168 857.654 880.953" stroke="#4A2CA9"/>
<path d="M240.164 -262.944C240.164 -262.944 495.367 -185.147 505.191 -103.494C515.015 -21.8408 341.58 183.577 397.049 254.04C444.583 314.524 813.973 361.248 893.927 418.102C926.423 441.237 945.92 473.899 934.282 517.674C922.418 562.583 903.449 604.77 883.347 651.721C814.729 812.002 849.718 844.512 864.833 881.559" stroke="#4B2DAD"/>
<path d="M241.524 -259.315C241.524 -259.315 498.012 -180.989 507.76 -99.3356C517.509 -17.6826 344.225 189.701 399.619 260.164C446.926 320.346 813.445 363.894 895.514 420.673C928.463 443.505 948.112 475.864 936.474 519.337C924.383 564.473 905.717 606.585 886.295 653.157C818.508 815.631 857.653 846.78 872.088 882.163" stroke="#4D2EB0"/>
<path d="M242.885 -255.61C242.885 -255.61 500.581 -176.679 510.406 -95.0261C520.23 -13.3732 346.719 195.976 402.112 266.439C449.118 326.243 812.764 366.691 897.026 423.395C930.428 445.849 950.228 477.906 938.514 521.151C926.272 566.514 907.833 608.626 889.091 654.669C822.211 819.336 865.437 849.124 879.191 882.844" stroke="#4E2FB4"/>
<path d="M244.169 -251.906C244.169 -251.906 503.151 -172.445 512.899 -90.7924C522.648 -9.13942 349.288 202.175 404.682 272.639C451.46 332.064 812.235 369.413 898.613 426.041C932.469 448.193 952.419 479.947 940.63 522.89C928.161 568.404 910.024 610.591 891.963 656.105C825.989 823.04 873.297 851.392 886.37 883.448" stroke="#5031B8"/>
<path d="M245.53 -248.277C245.53 -248.277 505.72 -168.287 515.544 -86.634C525.293 -4.98102 351.782 208.375 407.176 278.763C453.652 337.886 811.555 372.135 900.124 428.687C934.358 450.537 954.535 481.988 942.671 524.629C929.975 570.37 912.14 612.557 894.834 657.618C829.768 826.745 881.156 853.812 893.55 884.129" stroke="#5232BC"/>
<path d="M246.89 -244.572C246.89 -244.572 508.365 -164.053 518.114 -82.4002C527.862 -0.747187 354.352 214.575 409.745 285.038C455.994 343.783 811.026 375.008 901.711 431.409C936.398 452.956 956.727 484.105 944.862 526.444C931.94 572.411 914.407 614.599 897.781 659.13C833.773 830.525 889.166 856.155 900.88 884.809" stroke="#5333BF"/>
<path d="M248.25 -240.867C248.25 -240.867 510.934 -159.819 520.759 -78.1663C530.507 3.48661 356.921 220.774 412.315 291.238C458.262 349.68 810.422 377.805 903.298 434.055C938.439 455.375 958.918 486.071 946.978 528.183C933.904 574.377 916.599 616.564 900.653 660.642C837.627 834.305 897.026 858.499 908.059 885.49" stroke="#5534C3"/>
<path d="M249.611 -237.239C249.611 -237.239 513.58 -155.661 523.328 -74.0082C533.077 7.64477 359.491 226.974 414.884 297.362C460.529 355.426 809.893 380.602 904.885 436.625C940.479 457.643 961.11 488.036 949.094 529.846C935.794 576.267 918.866 618.454 903.525 662.003C841.632 837.935 904.885 860.692 915.238 886.019" stroke="#5735C7"/>
<path d="M250.971 -233.534C250.971 -233.534 516.224 -151.427 525.973 -69.7741C535.722 11.8788 361.984 233.098 417.453 303.561C462.871 361.323 809.288 383.4 906.548 439.347C942.595 460.063 963.377 490.154 951.286 531.66C937.758 578.308 921.133 620.496 906.472 663.59C845.713 841.791 912.82 863.187 922.493 886.775" stroke="#5836CB"/>
<path d="M252.331 -229.829C252.331 -229.829 518.794 -147.193 528.542 -65.4647C538.291 16.1882 364.554 239.373 419.947 309.837C465.063 367.22 808.608 386.348 908.059 442.069C944.56 462.482 965.493 492.195 953.402 533.475C939.648 580.35 923.4 622.613 909.344 665.102C849.794 845.571 920.679 865.53 929.672 887.456" stroke="#5A37CE"/>
<path d="M253.691 -226.2C253.691 -226.2 521.439 -142.96 531.187 -61.3066C540.936 20.3464 367.123 245.497 422.517 315.96C467.406 373.042 808.003 389.146 909.646 444.639C946.525 464.826 967.685 494.16 955.518 535.138C941.537 582.24 925.667 624.503 912.291 666.539C854.026 849.351 928.69 867.798 936.927 888.06" stroke="#5B38D2"/>
<path d="M255.052 -222.496C255.052 -222.496 524.008 -138.726 533.757 -57.0728C543.505 24.5802 369.692 251.696 425.086 322.16C469.673 378.863 807.399 392.019 911.233 447.286C948.565 467.17 969.876 496.202 957.633 536.877C943.502 584.13 927.934 626.468 915.163 667.975C858.182 853.131 936.549 870.067 944.106 888.665" stroke="#5D39D6"/>
<path d="M256.412 -218.791C256.412 -218.791 526.653 -134.492 536.402 -52.8387C546.15 28.8143 372.262 257.972 427.655 328.36C472.016 384.761 806.794 394.967 912.82 450.007C950.606 469.665 972.068 498.319 959.825 538.692C945.467 586.171 930.277 628.51 918.11 669.488C862.566 856.911 944.484 872.486 951.361 889.346" stroke="#5F3ADA"/>
<path d="M257.772 -215.162C257.772 -215.162 529.223 -130.334 539.047 -48.6805C548.871 32.9724 374.831 264.096 430.225 334.559C474.283 390.582 806.265 397.84 914.407 452.654C952.646 472.008 974.184 500.284 961.941 540.43C947.356 588.137 932.544 630.476 920.982 671C866.873 860.767 952.344 874.83 958.541 890.026" stroke="#603BDD"/>
<path d="M259.132 -211.457C259.132 -211.457 531.868 -126.1 541.616 -44.4467C551.365 37.2062 377.325 270.295 432.719 340.759C476.474 396.404 805.585 400.789 915.919 455.3C954.611 474.428 976.3 502.326 963.982 542.169C949.17 590.103 934.736 632.441 923.778 672.436C871.181 864.547 960.128 877.098 965.644 890.631" stroke="#623CE1"/>
<path d="M260.493 -207.753C260.493 -207.753 534.437 -121.866 544.261 -40.2129C554.085 41.4401 379.895 276.495 435.288 346.958C478.817 402.301 804.98 403.737 917.505 457.946C956.651 476.771 978.491 504.367 966.097 543.908C951.059 592.068 937.078 634.407 926.725 673.948C875.715 868.403 968.138 879.442 972.899 891.311" stroke="#643DE5"/>
<path d="M261.853 -204.124C261.853 -204.124 537.082 -117.707 546.831 -35.9789C556.579 45.7497 382.464 282.695 437.858 353.158C481.084 408.123 804.376 406.686 919.093 460.592C958.692 479.191 980.683 506.333 968.289 545.647C953.024 594.034 939.421 636.373 929.673 675.385C880.325 872.184 976.073 881.785 980.154 891.916" stroke="#653FE9"/>
<path d="M263.213 -200.419C263.213 -200.419 539.651 -113.398 549.476 -31.7451C559.224 49.9079 385.034 288.894 440.427 359.358C483.427 414.02 803.772 409.71 920.755 463.314C960.808 481.686 982.95 508.45 970.481 547.462C954.989 596 941.839 638.414 932.62 676.972C885.01 876.115 984.008 884.205 987.409 892.597" stroke="#6740EC"/>
<path d="M264.573 -196.714C264.573 -196.714 542.296 -109.164 552.045 -27.5113C561.794 54.1417 387.527 295.094 442.921 365.557C485.618 419.841 803.091 412.659 922.266 465.96C962.772 484.029 985.066 510.491 972.521 549.276C956.802 598.041 944.031 640.455 935.416 678.485C889.695 879.971 991.792 886.548 994.588 893.277" stroke="#6841F0"/>
<path d="M265.934 -193.085C265.934 -193.085 544.866 -105.006 554.69 -23.3531C564.514 58.2999 390.097 301.293 445.49 371.681C487.961 425.663 802.487 415.607 923.854 468.53C964.813 486.373 987.258 512.381 974.637 550.94C958.692 599.931 946.374 642.27 938.288 679.845C894.457 883.675 999.651 888.817 1001.77 893.806" stroke="#6A42F4"/>
<path d="M267.294 -189.381C267.294 -189.381 547.511 -100.772 557.26 -19.119C567.008 62.5339 392.666 307.493 448.06 377.881C490.228 431.484 801.882 418.632 925.441 471.177C966.853 488.793 989.374 514.423 976.829 552.679C960.505 601.822 948.792 644.236 941.235 681.358C899.444 887.531 1007.59 891.16 1009.02 894.487" stroke="#6C43F8"/>
<path d="M268.654 -185.752C268.654 -185.752 550.08 -96.6139 559.904 -14.9609C569.729 66.6921 395.235 313.617 450.629 384.08C492.495 437.381 801.353 421.656 927.027 473.898C968.894 491.287 991.565 516.54 978.945 554.493C962.47 603.863 951.135 646.277 944.182 682.87C904.432 891.387 1015.6 893.504 1016.28 895.167" stroke="#6D44FB"/>
<path d="M270.015 -182.047C270.015 -182.047 552.725 -92.3801 562.474 -10.7271C572.222 70.9259 397.729 319.816 453.123 390.28C508.516 460.743 1032 404.645 980.985 556.156C867.024 894.941 1023.38 895.772 1023.38 895.772" stroke="#6F45FF"/>
</g>
<defs>
<clipPath id="clip0">
<rect width="1043" height="811" fill="white"/>
</clipPath>
</defs>
</svg>
