<svg width="32" height="32" viewBox="0 0 32 32" fill="none" xmlns="http://www.w3.org/2000/svg">
  <path d="M32 15.9999C32 24.8365 24.8367 32 16.0001 32C7.16344 32 0 24.8365 0 15.9999C0 7.1634 7.16344 0 16.0001 0C24.8366 0 32 7.1634 32 15.9999Z" fill="url(#paint0_linear)"/>
  <path opacity="0.4" d="M21.979 17.0449C22.468 16.191 23.2571 16.191 23.7461 17.0449L26.7913 22.4494C27.2803 23.3034 26.8802 24 25.9022 24H19.7673C18.8004 24 18.4003 23.3034 18.8782 22.4494L21.979 17.0449ZM16.0887 6.64045C16.5777 5.78652 17.3556 5.78652 17.8447 6.64045L18.5226 7.8764L20.123 10.7191C20.512 11.5281 20.512 12.4831 20.123 13.2921L14.755 22.6966C14.266 23.4607 13.4547 23.9438 12.5545 24H8.09781C7.1198 24 6.7197 23.3146 7.20871 22.4494L16.0887 6.64045Z" fill="white"/>
  <defs>
    <linearGradient id="paint0_linear" x1="0" y1="16" x2="32" y2="16" gradientUnits="userSpaceOnUse">
      <stop stop-color="#0E071F"/>
      <stop offset="1" stop-color="#3E3E3E"/>
    </linearGradient>
  </defs>
</svg>
