<svg width="32" height="32" viewBox="0 0 32 32" fill="none" xmlns="http://www.w3.org/2000/svg">
  <path d="M32 15.9999C32 24.8365 24.8367 32 16.0001 32C7.16344 32 0 24.8365 0 15.9999C0 7.1634 7.16344 0 16.0001 0C24.8366 0 32 7.1634 32 15.9999Z" fill="url(#paint0_linear)"/>
  <g opacity="0.4">
    <path d="M12.6544 9.69717V11.5732C11.1118 12.1398 9.82391 13.2187 9.00488 14.598V9H11.9446C12.3363 9 12.6544 9.31183 12.6544 9.69717Z" fill="white"/>
    <path d="M17.7268 12.0719V13.8694C17.7268 14.8606 16.907 15.6641 15.8958 15.6641H15.2988C13.8428 15.6641 12.6612 16.8193 12.6583 18.2479V23.2715H9.71492C9.32178 23.2715 9.00437 22.9597 9.00437 22.5751V18.32C9.00146 18.2458 9 18.1716 9 18.0967C9 14.7671 11.7541 12.0669 15.1518 12.0669C15.2282 12.0669 15.3039 12.0683 15.3804 12.0712H17.7268V12.0719Z" fill="white"/>
    <path d="M18.6753 22.5744V20.6984C20.2187 20.1311 21.5066 19.0522 22.3249 17.6729V23.2716H19.3851C18.9942 23.2716 18.6753 22.9598 18.6753 22.5744Z" fill="white"/>
    <path d="M13.603 20.1997V18.4021C13.603 17.411 14.4228 16.6075 15.434 16.6075H16.031C17.487 16.6075 18.6686 15.4522 18.6715 14.0236V9H21.6149C22.008 9 22.3254 9.31183 22.3254 9.69646V13.9515C22.3291 14.0258 22.3298 14.1 22.3298 14.1756C22.3298 17.5052 19.5757 20.2054 16.178 20.2054C16.1016 20.2054 16.0259 20.2039 15.9494 20.2011H13.603V20.1997Z" fill="white"/>
  </g>
  <defs>
    <linearGradient id="paint0_linear" x1="0" y1="16" x2="32" y2="16" gradientUnits="userSpaceOnUse">
      <stop stop-color="#0E071F"/>
      <stop offset="1" stop-color="#3E3E3E"/>
    </linearGradient>
  </defs>
</svg>
