<svg width="32" height="32" viewBox="0 0 32 32" fill="none" xmlns="http://www.w3.org/2000/svg">
  <path d="M32 15.9999C32 24.8365 24.8367 32 16.0001 32C7.16344 32 0 24.8365 0 15.9999C0 7.1634 7.16344 0 16.0001 0C24.8366 0 32 7.1634 32 15.9999Z" fill="url(#paint0_linear)"/>
  <path opacity="0.4" fill-rule="evenodd" clip-rule="evenodd" d="M12.742 15.5017L17.6077 20.5375L20.6789 17.3594C21.2281 16.8477 22.0683 16.8705 22.5908 17.4112C23.1134 17.9519 23.1354 18.8214 22.6409 19.3897L18.5879 23.5845C18.0435 24.1385 17.1703 24.1385 16.6259 23.5845L10.7785 17.532V21.1294C10.7785 21.9234 10.1565 22.567 9.38923 22.567C8.62198 22.567 8 21.9234 8 21.1294V9.86933C8 9.07538 8.62198 8.43175 9.38923 8.43175C10.1565 8.43175 10.7785 9.07538 10.7785 9.86933V13.4668L16.6252 7.41584C17.1694 6.86139 18.0429 6.86139 18.5871 7.41584L22.6432 11.6099C23.1377 12.1782 23.1157 13.0476 22.5931 13.5883C22.0705 14.1291 21.2304 14.1518 20.6812 13.6401L17.6099 10.462L12.742 15.5017ZM17.6099 14.0626C17.0474 14.0623 16.54 14.4127 16.3245 14.9504C16.109 15.4882 16.2278 16.1073 16.6255 16.5191C17.0232 16.9308 17.6214 17.0541 18.1412 16.8314C18.661 16.6087 18.9999 16.0839 18.9999 15.5017C19.0001 15.12 18.8538 14.7539 18.5931 14.4839C18.3324 14.2138 17.9788 14.062 17.6099 14.0618V14.0626Z" fill="white"/>
  <defs>
    <linearGradient id="paint0_linear" x1="0" y1="16" x2="32" y2="16" gradientUnits="userSpaceOnUse">
      <stop stop-color="#0E071F"/>
      <stop offset="1" stop-color="#3E3E3E"/>
    </linearGradient>
  </defs>
</svg>
