<svg width="32" height="32" viewBox="0 0 32 32" fill="none" xmlns="http://www.w3.org/2000/svg">
  <path d="M32 15.9999C32 24.8365 24.8367 32 16.0001 32C7.16344 32 0 24.8365 0 15.9999C0 7.1634 7.16344 0 16.0001 0C24.8366 0 32 7.1634 32 15.9999Z" fill="url(#paint0_linear)"/>
  <path d="M16.0724 6C13.934 6.00799 11.8853 6.85916 10.3732 8.36797C8.86106 9.87679 8.008 11.9209 8 14.0546C7.9999 14.9443 8.14354 15.8281 8.4254 16.6722C8.5266 16.9484 8.72985 17.1755 8.99349 17.3071C9.25713 17.4386 9.5612 17.4645 9.84339 17.3796C10.1173 17.2757 10.3411 17.0715 10.4691 16.8085C10.5971 16.5455 10.6196 16.2437 10.5321 15.9647C10.2924 15.3084 10.1856 14.611 10.2181 13.9132C10.2516 12.7866 10.6127 11.6941 11.2574 10.7687C11.9021 9.8433 12.8026 9.12491 13.8492 8.70105C14.8958 8.27718 16.0433 8.16613 17.152 8.38142C18.2607 8.59672 19.2828 9.12906 20.0937 9.91361C20.9046 10.6982 21.4693 11.7011 21.7192 12.8002C21.969 13.8993 21.8931 15.0472 21.5007 16.104C21.1084 17.1609 20.4165 18.0811 19.5094 18.7526C18.6022 19.424 17.5189 19.8178 16.3915 19.8859C16.3915 19.8859 15.2622 19.9567 14.695 20.0274C14.487 20.0567 14.2807 20.0972 14.0771 20.1487C14.0625 20.1596 14.0444 20.165 14.0262 20.1637C14.0079 20.1624 13.9908 20.1545 13.9778 20.1416C13.9649 20.1287 13.9571 20.1116 13.9558 20.0934C13.9545 20.0752 13.9598 20.0572 13.9708 20.0426L14.148 19.0875L15.2115 14.282C15.2726 13.9959 15.2173 13.6973 15.0578 13.4518C14.8982 13.2064 14.6475 13.0343 14.3607 12.9733C14.074 12.9123 13.7747 12.9675 13.5287 13.1267C13.2827 13.2859 13.1102 13.5361 13.0491 13.8222C13.0491 13.8222 10.5169 25.5555 10.5169 25.6616C10.4821 25.8032 10.4765 25.9504 10.5007 26.0941C10.5248 26.2379 10.5781 26.3753 10.6572 26.4978C10.7364 26.6203 10.8398 26.7254 10.9611 26.8067C11.0824 26.8879 11.219 26.9436 11.3627 26.9704C11.5049 27.0044 11.6525 27.0092 11.7966 26.9845C11.9408 26.9598 12.0783 26.9061 12.201 26.8267C12.3237 26.7473 12.4289 26.6438 12.5103 26.5226C12.5916 26.4014 12.6474 26.2649 12.6743 26.1215C12.7098 25.98 13.0288 24.4236 13.0288 24.4236C13.1463 23.8507 13.437 23.3276 13.8617 22.9246C14.2864 22.5217 14.8246 22.2583 15.404 22.1699C15.647 22.1346 16.6751 22.0638 16.6751 22.0638C18.7295 21.8744 20.6331 20.9067 21.9945 19.3598C23.3559 17.813 24.0715 15.8045 23.9943 13.7473C23.9172 11.6901 23.053 9.74057 21.5795 8.29959C20.1061 6.85861 18.1353 6.03568 16.0724 6Z" fill="white" fill-opacity="0.4"/>
  <defs>
    <linearGradient id="paint0_linear" x1="0" y1="16" x2="32" y2="16" gradientUnits="userSpaceOnUse">
      <stop stop-color="#0E071F"/>
      <stop offset="1" stop-color="#3E3E3E"/>
    </linearGradient>
  </defs>
</svg>
