<svg width="32" height="32" viewBox="0 0 32 32" fill="none" xmlns="http://www.w3.org/2000/svg">
  <path d="M32 15.9999C32 24.8365 24.8367 32 16.0001 32C7.16344 32 0 24.8365 0 15.9999C0 7.1634 7.16344 0 16.0001 0C24.8366 0 32 7.1634 32 15.9999Z" fill="url(#paint0_linear)"/>
  <path d="M9.08776 20.3665C9.20402 20.2503 9.36164 20.1851 9.52599 20.1851H24.6894C24.9656 20.1851 25.1039 20.5191 24.9085 20.7143L21.9123 23.7082C21.796 23.8244 21.6384 23.8896 21.474 23.8896H6.3106C6.03439 23.8896 5.89611 23.5556 6.09148 23.3603L9.08776 20.3665Z" fill="white" fill-opacity="0.4"/>
  <path d="M9.08776 9.18143C9.20402 9.06525 9.36164 9 9.52599 9H24.6894C24.9656 9 25.1039 9.33403 24.9085 9.5293L21.9123 12.5232C21.796 12.6393 21.6384 12.7046 21.474 12.7046H6.3106C6.03439 12.7046 5.89611 12.3705 6.09148 12.1753L9.08776 9.18143Z" fill="white" fill-opacity="0.4"/>
  <path d="M21.9123 14.7385C21.796 14.6224 21.6384 14.5571 21.474 14.5571H6.3106C6.03439 14.5571 5.89611 14.8912 6.09148 15.0864L9.08776 18.0803C9.20402 18.1964 9.36164 18.2617 9.52599 18.2617H24.6894C24.9656 18.2617 25.1039 17.9277 24.9085 17.7324L21.9123 14.7385Z" fill="white" fill-opacity="0.4"/>
  <defs>
    <linearGradient id="paint0_linear" x1="0" y1="16" x2="32" y2="16" gradientUnits="userSpaceOnUse">
      <stop stop-color="#0E071F"/>
      <stop offset="1" stop-color="#3E3E3E"/>
    </linearGradient>
  </defs>
</svg>
