<svg width="270" height="53" viewBox="0 0 270 53" fill="none" xmlns="http://www.w3.org/2000/svg">
<path d="M16.5083 22.26L26.9998 11.9629L37.4912 22.26L43.5855 16.2786L26.9998 0L10.4141 16.2786L16.5083 22.26Z" fill="#6F45FF"/>
<path d="M0 26.5L6.09429 20.5186L12.1886 26.5L6.09429 32.4814L0 26.5Z" fill="#6F45FF"/>
<path d="M16.5083 30.74L26.9998 41.0371L37.4912 30.74L43.5855 36.7214L26.9998 53L10.4141 36.7214L16.5083 30.74Z" fill="#6F45FF"/>
<path d="M41.8115 26.5L47.9058 20.5186L54.0001 26.5L47.9058 32.4814L41.8115 26.5Z" fill="#6F45FF"/>
<path d="M33.1715 26.5L27 20.4429L22.4486 24.91L21.9086 25.44L20.8286 26.5L27 32.5572L33.1715 26.5Z" fill="#6F45FF"/>
<path d="M63.5273 12.8715H76.7959C80.1131 12.8715 82.5816 13.7043 84.2788 15.37C85.5902 16.6572 86.2845 18.3229 86.2073 20.14V20.2157C86.2073 20.9729 86.1302 21.6543 85.8988 22.3357C85.7445 22.9415 85.4359 23.4715 85.0502 24.0015C84.7416 24.4557 84.3559 24.91 83.8931 25.2886C83.4302 25.6672 82.9673 25.97 82.4273 26.2729C83.8931 26.8029 85.2816 27.6357 86.3616 28.7715C87.2873 29.8315 87.7502 31.27 87.7502 33.1629V33.2386C87.7502 34.3743 87.5188 35.5857 86.9788 36.6457C86.4388 37.63 85.7445 38.4629 84.8188 39.0686C83.8159 39.75 82.6588 40.2043 81.4245 40.5072C79.9588 40.81 78.4931 41.0372 77.0273 40.9615H63.5273V12.8715ZM75.4845 24.2286C76.6416 24.3043 77.7988 24.0772 78.8016 23.5472C79.6502 23.0929 80.1131 22.1843 80.0359 21.2757V21.2C80.1131 20.3672 79.6502 19.5343 78.9559 19.08C78.2616 18.55 77.2588 18.3229 75.8702 18.3229H69.6988V24.2286H75.4845ZM77.1045 35.51C78.2616 35.5857 79.4188 35.2829 80.4216 34.7529C81.1931 34.2229 81.6559 33.39 81.5788 32.4057V32.33C81.5788 31.4215 81.1931 30.5886 80.4988 30.1343C79.7273 29.6043 78.5702 29.3015 76.9502 29.3015H69.6988V35.51H77.1045Z" fill="#6F45FF"/>
<path d="M95.6958 12.8715H102.022V40.9615H95.6958V12.8715Z" fill="#6F45FF"/>
<path d="M111.587 12.8715H117.373L130.796 30.1343V12.8715H137.045V40.9615H131.722L117.836 23.0929V40.9615H111.587V12.8715Z" fill="#6F45FF"/>
<path d="M156.099 12.6443H161.884L174.15 40.9614H167.593L164.97 34.6771H152.859L150.236 40.9614H143.833L156.099 12.6443ZM162.733 29.15L158.953 20.0643L155.173 29.15H162.733Z" fill="#6F45FF"/>
<path d="M180.938 12.8715H186.724L200.224 30.1343V12.8715H206.473V40.9615H201.15L187.264 23.0929V40.9615H180.938V12.8715Z" fill="#6F45FF"/>
<path d="M229.076 41.4157C227.07 41.4157 225.065 41.0371 223.213 40.28C219.665 38.8414 216.888 36.1157 215.499 32.6329C214.728 30.8157 214.419 28.9229 214.419 26.9543V26.8786C214.419 23.0171 215.885 19.3829 218.585 16.5814C219.896 15.2186 221.516 14.1586 223.29 13.4771C225.219 12.72 227.302 12.3414 229.308 12.3414C230.542 12.3414 231.776 12.4171 232.933 12.6443C233.936 12.8714 234.939 13.0986 235.942 13.5529C236.79 13.9314 237.639 14.3857 238.41 14.9157C239.182 15.4457 239.876 16.0514 240.57 16.6571L236.559 21.2C235.556 20.2914 234.399 19.4586 233.165 18.8529C231.93 18.2471 230.619 18.02 229.23 18.02C226.993 18.02 224.756 18.9286 223.29 20.5943C222.519 21.4271 221.979 22.3357 221.593 23.3957C221.208 24.4557 220.976 25.6671 220.976 26.8029V26.8786C220.976 28.0143 221.208 29.15 221.593 30.2857C221.979 31.3457 222.596 32.2543 223.29 33.0871C224.833 34.7529 226.993 35.7371 229.23 35.6614C230.696 35.7371 232.085 35.4343 233.396 34.7529C234.63 34.0714 235.788 33.3143 236.79 32.33L240.802 36.3429C240.108 37.1 239.336 37.7814 238.488 38.4629C237.716 39.0686 236.79 39.5986 235.865 40.0529C234.862 40.5071 233.859 40.81 232.779 41.0371C231.622 41.34 230.31 41.4157 229.076 41.4157Z" fill="#6F45FF"/>
<path d="M248.207 12.8715H269.73V18.3986H254.378V24.0772H267.878V29.5286H254.378V35.4343H269.961V40.9615H248.207V12.8715Z" fill="#6F45FF"/>
</svg>
