<svg width="271" height="75" viewBox="0 0 271 75" fill="none" xmlns="http://www.w3.org/2000/svg">
<path d="M88.0153 39.719C88.0153 40.1826 87.6289 40.4917 87.1653 40.4917H71.5559C71.9422 44.3554 74.8787 47.91 78.9742 47.91C81.7561 47.91 83.8425 46.8282 85.388 44.5873C85.6198 44.2782 85.9289 44.0463 86.3925 44.2782C86.6243 44.3554 86.7789 44.5873 86.8562 44.8191C86.9334 45.0509 86.8562 45.2054 86.7789 45.36C85.2334 48.1419 82.0652 49.4555 78.9742 49.4555C73.7195 49.4555 69.9331 44.7418 69.9331 39.719C69.9331 34.6962 73.7195 29.9824 78.9742 29.9824C84.2288 30.0597 88.0153 34.6962 88.0153 39.719ZM86.3925 39.0235C86.0834 35.1598 83.0697 31.6052 78.9742 31.6052C74.8787 31.6052 71.9422 35.1598 71.5559 39.0235H86.3925ZM107.025 30.4461C107.488 30.4461 107.797 30.8324 107.797 31.2188C107.797 31.6825 107.488 31.9916 107.025 31.9916H102.852V48.451C102.852 48.8373 102.543 49.2237 102.079 49.2237C101.616 49.2237 101.306 48.8373 101.306 48.451V31.9916H97.2882C96.8245 31.9916 96.5154 31.6825 96.5154 31.2188C96.5154 30.8324 96.8245 30.4461 97.2882 30.4461H101.306V24.4187C101.306 24.0323 101.538 23.7232 101.925 23.6459C102.466 23.5687 102.852 23.955 102.852 24.4187V30.4461H107.025ZM132.603 38.4053V48.3737C132.603 48.8373 132.216 49.1464 131.83 49.1464C131.366 49.1464 131.057 48.8373 131.057 48.3737V38.4053C131.057 35.0052 129.125 31.6825 125.416 31.6825C120.625 31.6825 118.539 35.8553 118.77 40.1826C118.77 40.2599 118.848 40.8008 118.848 40.8781V48.3737C118.848 48.7601 118.616 49.0692 118.23 49.1464C117.689 49.2237 117.302 48.8373 117.302 48.3737V15.6094C117.302 15.223 117.611 14.8367 118.075 14.8367C118.539 14.8367 118.848 15.223 118.848 15.6094V34.1552C120.161 31.7597 122.634 30.137 125.416 30.137C129.975 30.0597 132.603 34.1552 132.603 38.4053ZM160.653 39.719C160.653 40.1826 160.267 40.4917 159.803 40.4917H144.116C144.503 44.3554 147.439 47.91 151.535 47.91C154.317 47.91 156.403 46.8282 157.948 44.5873C158.18 44.2782 158.489 44.0463 158.953 44.2782C159.185 44.3554 159.339 44.5873 159.417 44.8191C159.494 45.0509 159.417 45.2054 159.339 45.36C157.794 48.1419 154.626 49.4555 151.535 49.4555C146.28 49.4555 142.494 44.7418 142.494 39.719C142.494 34.6962 146.28 29.9824 151.535 29.9824C156.867 30.0597 160.653 34.6962 160.653 39.719ZM159.03 39.0235C158.721 35.1598 155.708 31.6052 151.612 31.6052C147.516 31.6052 144.58 35.1598 144.194 39.0235H159.03ZM179.894 31.1415C179.894 31.6825 179.585 31.9143 179.199 31.9916C174.64 32.687 172.553 36.3962 172.553 40.8008V48.2964C172.553 48.6828 172.321 48.9919 171.935 49.0692C171.394 49.1464 171.008 48.7601 171.008 48.2964V31.2188C171.008 30.8324 171.24 30.5233 171.626 30.4461C172.167 30.3688 172.553 30.7552 172.553 31.2188V34.6962C173.867 32.5325 176.417 30.4461 179.122 30.4461C179.431 30.4461 179.894 30.6779 179.894 31.1415ZM205.627 39.719C205.627 40.1826 205.24 40.4917 204.777 40.4917H189.09C189.476 44.3554 192.413 47.91 196.508 47.91C199.29 47.91 201.377 46.8282 202.922 44.5873C203.154 44.2782 203.463 44.0463 203.927 44.2782C204.158 44.3554 204.313 44.5873 204.39 44.8191C204.468 45.0509 204.39 45.2054 204.313 45.36C202.768 48.1419 199.599 49.4555 196.508 49.4555C191.254 49.4555 187.467 44.7418 187.467 39.719C187.467 34.6962 191.254 29.9824 196.508 29.9824C201.763 30.0597 205.627 34.6962 205.627 39.719ZM203.927 39.0235C203.618 35.1598 200.604 31.6052 196.508 31.6052C192.413 31.6052 189.476 35.1598 189.09 39.0235H203.927ZM230.895 31.3734V48.451C230.895 48.9146 230.509 49.2237 230.123 49.2237C229.659 49.2237 229.35 48.9146 229.35 48.451V45.2054C228.036 47.7555 225.795 49.6101 222.859 49.6101C218.222 49.6101 215.595 45.5918 215.595 41.3417V31.2961C215.595 30.9097 215.904 30.5233 216.368 30.5233C216.831 30.5233 217.141 30.9097 217.141 31.2961V41.3417C217.141 44.7418 219.072 48.0646 222.782 48.0646C228.036 48.0646 229.273 43.119 229.273 37.7098V31.2961C229.273 30.8324 229.736 30.3688 230.277 30.5233C230.664 30.6779 230.895 30.987 230.895 31.3734ZM270.46 38.328V48.3737C270.46 48.8373 270.073 49.1464 269.687 49.1464C269.223 49.1464 268.914 48.8373 268.914 48.3737V38.328C268.914 34.928 266.982 31.6825 263.273 31.6825C258.56 31.6825 256.782 36.7053 256.782 40.6463V48.3737C256.782 48.8373 256.396 49.1464 256.009 49.1464C255.546 49.1464 255.237 48.8373 255.237 48.3737V38.328C255.237 34.928 253.305 31.6825 249.596 31.6825C244.805 31.6825 242.873 35.4689 243.027 40.4144C243.027 40.4917 243.105 40.7235 243.027 40.8008V48.3737C243.027 48.7601 242.796 49.0692 242.409 49.1464C241.868 49.2237 241.482 48.8373 241.482 48.3737V31.2188C241.482 30.8324 241.714 30.5233 242.1 30.4461C242.641 30.3688 243.027 30.7552 243.027 31.2188V34.078C244.341 31.6825 246.814 30.137 249.596 30.137C252.764 30.137 255.237 32.1461 256.241 35.1598C257.555 32.2234 260.028 30.137 263.273 30.137C267.832 30.0597 270.46 34.078 270.46 38.328Z" fill="#6F45FF"/>
<g opacity="0.45">
<g opacity="0.45">
<path opacity="0.45" d="M0 37.7098L22.7186 51.1555V0L0 37.7098Z" fill="#6F45FF"/>
</g>
</g>
<g opacity="0.8">
<g opacity="0.8">
<path opacity="0.8" d="M22.7192 0V51.1555L45.4379 37.7098L22.7192 0Z" fill="#6F45FF"/>
</g>
</g>
<g opacity="0.45">
<g opacity="0.45">
<path opacity="0.45" d="M0 42.0374L22.7186 74.0289V55.4058L0 42.0374Z" fill="#6F45FF"/>
</g>
</g>
<g opacity="0.8">
<g opacity="0.8">
<path opacity="0.8" d="M22.7192 55.4058V74.0289L45.4379 42.0374L22.7192 55.4058Z" fill="#6F45FF"/>
</g>
</g>
<g opacity="0.6">
<g opacity="0.6">
<path opacity="0.6" d="M22.7186 27.3552L0 37.71L22.7186 51.1557L45.4373 37.71L22.7186 27.3552Z" fill="#6F45FF"/>
</g>
</g>
</svg>
