<svg width="240" height="56" viewBox="0 0 240 56" fill="none" xmlns="http://www.w3.org/2000/svg">
<path d="M94.1313 17.2857C95.5984 18.2285 96.834 19.4857 97.6062 21.2142C98.5328 22.9428 98.9961 24.9857 98.9961 27.3428C98.9961 29.6999 98.5328 31.5857 97.5289 33.3142C96.6023 35.0428 95.2896 36.2999 93.5907 37.0857C91.8919 38.0285 89.8842 38.4999 87.722 38.4999C86.4865 38.4999 85.3282 38.2642 84.2471 37.7928C83.0888 37.4785 82.0849 36.7714 81.3127 35.9857V47.9285H74.749V16.3428H80.3861L80.9266 18.8571C83.3977 16.8142 86.1004 15.7142 88.9575 15.7142C90.888 15.7928 92.6641 16.1857 94.1313 17.2857ZM90.5019 31.5071C91.6602 30.4857 92.2008 29.0714 92.2008 27.3428C92.2008 25.6142 91.6602 24.1999 90.6564 23.0999C89.6525 21.9214 88.2625 21.5285 86.7954 21.5285C85.5598 21.5285 84.4015 21.7642 83.5521 22.3142C82.6255 22.7857 82.0077 23.5714 81.3899 24.5928V29.7785C81.6988 30.7999 82.3938 31.5857 83.166 32.2142C84.0926 32.7642 85.0965 33.1571 86.332 33.1571C88.0309 33.1571 89.4208 32.5285 90.5019 31.5071Z" fill="#6F45FF"/>
<path d="M102.857 21.2929C103.861 19.7215 105.251 18.3072 107.027 17.3643C108.803 16.4215 110.888 15.8715 113.127 15.8715C115.366 15.8715 117.451 16.3429 119.227 17.3643C120.926 18.3072 122.316 19.6429 123.32 21.3715C124.324 23.1 124.787 24.9072 124.787 27.1072C124.787 29.3072 124.324 31.1143 123.32 32.8429C122.316 34.5715 121.081 35.9857 119.227 36.85C117.529 37.7929 115.366 38.3429 113.127 38.3429C110.888 38.3429 108.803 37.8715 107.027 36.9286C105.251 35.9857 103.861 34.7286 102.857 33C101.93 31.2715 101.39 29.3072 101.39 27.0286C101.39 24.9857 101.93 23.0215 102.857 21.2929ZM109.498 31.2715C110.424 32.45 111.66 32.8429 113.127 32.8429C114.594 32.8429 115.83 32.2929 116.756 31.2715C117.683 30.25 118.146 28.7572 118.146 27.1072C118.146 25.3786 117.683 23.9643 116.756 22.9429C115.753 21.7643 114.594 21.2143 113.05 21.2143C111.583 21.2143 110.424 21.7643 109.421 22.7857C108.494 23.9643 108.031 25.3 108.031 27.0286C108.031 28.7572 108.494 30.1715 109.498 31.2715Z" fill="#6F45FF"/>
<path d="M135.444 0V37.8714H128.88V0H135.444Z" fill="#6F45FF"/>
<path d="M162.316 16.8928L148.957 47.9285H142.625L147.567 36.7714L138.069 16.8928H145.56L150.965 29.3071L156.371 16.8928H162.316Z" fill="#6F45FF"/>
<path d="M187.413 16.8928V37.7928C187.413 39.7571 186.872 41.5643 185.714 43.2143C184.556 44.7857 183.088 46.1214 181.158 46.9857C179.227 47.9286 177.22 48.4 174.903 48.4C173.204 48.4 171.737 48.1643 170.502 47.85C169.266 47.3786 168.262 46.9071 167.413 46.4357C166.486 45.8857 165.637 45.1786 164.556 44.2357L168.417 39.6C169.343 40.5429 170.347 41.1714 171.274 41.6429C172.2 42.1143 173.436 42.4286 174.749 42.4286C176.448 42.4286 177.838 41.9571 178.919 41.1714C180.077 40.3857 180.617 39.1286 180.617 37.6357V34.65C179.922 35.6714 179.073 36.6143 177.683 37.3214C176.293 38.0286 174.749 38.3428 172.973 38.3428C171.197 38.3428 169.343 37.8714 167.799 36.85C166.254 35.9071 164.942 34.5714 163.938 32.8428C163.011 31.1143 162.471 29.3071 162.471 27.1857C162.471 25.1428 162.934 23.1786 163.938 21.45C164.942 19.7214 166.177 18.3071 167.876 17.2857C169.421 16.2643 171.119 15.7928 172.973 15.7928C174.671 15.7928 176.139 16.0286 177.529 16.5C178.919 16.9714 179.922 17.6786 180.617 18.4643L181.312 16.8928H187.413ZM180.772 29.7786V24.5928C180.309 23.5714 179.614 22.7857 178.61 22.1571C177.606 21.6071 176.448 21.2143 175.135 21.2143C173.59 21.2143 172.2 21.7643 171.042 22.7857C169.884 23.8071 169.343 25.2214 169.343 26.95C169.343 28.5214 169.884 30.0928 171.042 31.1928C172.2 32.3714 173.513 32.9214 175.135 32.9214C177.683 32.9214 179.614 31.9 180.772 29.7786Z" fill="#6F45FF"/>
<path d="M192.819 21.2928C193.823 19.5643 195.213 18.3071 196.989 17.2857C198.765 16.3428 200.85 15.7928 203.089 15.7928C205.328 15.7928 207.413 16.2643 209.189 17.2857C210.888 18.2286 212.278 19.5643 213.282 21.2928C214.209 23.0214 214.749 24.8286 214.749 27.0286C214.749 29.2286 214.286 31.0357 213.282 32.7643C212.355 34.4928 211.043 35.9071 209.189 36.7714C207.491 37.7143 205.328 38.2643 203.089 38.2643C200.85 38.2643 198.765 37.7928 196.989 36.85C195.213 35.9071 193.823 34.65 192.819 32.9214C191.815 31.1928 191.352 29.2286 191.352 26.7928C191.352 24.9857 191.815 23.0214 192.819 21.2928ZM199.382 31.2714C200.309 32.45 201.545 32.8428 203.012 32.8428C204.479 32.8428 205.714 32.2928 206.641 31.2714C207.568 30.25 208.031 28.7571 208.031 27.1071C208.031 25.3786 207.568 23.9643 206.641 22.9428C205.714 21.9214 204.479 21.3714 203.012 21.3714C201.545 21.3714 200.386 21.9214 199.382 22.9428C198.379 23.9643 197.915 25.4571 197.915 27.1071C198.07 28.7571 198.533 30.1714 199.382 31.2714Z" fill="#6F45FF"/>
<path d="M237.915 17.6C239.305 18.7786 239.846 20.2714 239.923 22.0786V37.8714H233.282V24.5928C233.205 22.55 232.124 21.45 230.193 21.45C228.726 21.45 227.491 22.1571 226.564 23.65C225.637 25.1428 225.174 26.95 225.174 29.15V37.7928H218.61V16.8928H224.634L225.097 20.1928C225.869 18.7786 226.873 17.7571 228.263 16.9714C229.653 16.1857 231.197 15.7928 232.973 15.7928C234.981 15.8714 236.68 16.4214 237.915 17.6Z" fill="#6F45FF"/>
<path d="M46.7182 16.8143C45.5598 16.1072 44.0927 16.1072 42.8571 16.8143L33.9768 22.1572L27.9537 25.6143L19.0734 30.9571C17.9151 31.6643 16.4479 31.6643 15.2124 30.9571L8.10811 26.7929C6.94981 26.0857 6.17761 24.8286 6.17761 23.4143V15.1643C6.17761 13.75 6.87259 12.4929 8.10811 11.7857L15.0579 7.70001C16.2162 6.99287 17.6834 6.99287 18.9189 7.70001L25.8687 11.7857C27.027 12.4929 27.7992 13.75 27.7992 15.1643V20.5072L33.8224 16.8929V11.55C33.8224 10.1357 33.1274 8.87858 31.8919 8.17144L18.9961 0.55001C17.8378 -0.157132 16.3707 -0.157132 15.1351 0.55001L2.00772 8.25001C0.694981 8.87858 0 10.1357 0 11.55V27.0286C0 28.4429 0.694981 29.7 1.9305 30.4072L15.0579 38.1071C16.2162 38.8143 17.6834 38.8143 18.9189 38.1071L27.7992 32.8429L33.8224 29.2286L42.7027 23.9643C43.861 23.2572 45.3282 23.2572 46.5637 23.9643L53.5135 28.05C54.6718 28.7572 55.444 30.0143 55.444 31.4286V39.6786C55.444 41.0929 54.749 42.35 53.5135 43.0571L46.5637 47.2214C45.4054 47.9286 43.9382 47.9286 42.7027 47.2214L35.7529 43.1357C34.749 42.5071 33.9768 41.25 33.9768 39.8357V34.4929L27.9537 38.1071V43.45C27.9537 44.8643 28.6487 46.1214 29.8842 46.8286L43.0116 54.5286C44.1699 55.2357 45.6371 55.2357 46.8726 54.5286L60 46.8286C61.1583 46.1214 61.9305 44.8643 61.9305 43.45V27.9714C61.9305 26.5571 61.2355 25.3 60 24.5929L46.7182 16.8143Z" fill="#6F45FF"/>
</svg>
