<svg width="202" height="206" viewBox="0 0 202 206" fill="none" xmlns="http://www.w3.org/2000/svg">
<path d="M101.077 103.039C101 103.039 101 103.039 101.077 103.039C101 103.039 101 103.039 101.077 103.039C101 102.962 101 102.962 101.077 103.039C101 103.039 101 103.039 101.077 103.039C101 102.962 101 102.962 101.077 103.039C101 102.962 101.077 102.962 101.077 103.039ZM101 102.962C101 103.039 101 103.039 101 102.962C101 103.039 101 103.039 101 102.962C101.077 102.962 101 102.962 101 102.962C101 103.039 101 103.039 101 102.962Z" fill="url(#paint0_linear)"/>
<path d="M101.077 103.039C101 103.039 101 103.039 101.077 103.039C101 103.039 101 103.039 101.077 103.039C101 102.962 101 102.962 101.077 103.039C101 103.039 101 103.039 101.077 103.039C101 102.962 101 102.962 101.077 103.039C101.077 102.962 101.077 102.962 101.077 103.039ZM101 102.962C101 103.039 101 103.039 101 102.962C101 103.039 101 103.039 101 102.962C101.077 102.962 101.077 102.962 101 102.962C101 103.039 101 103.039 101 102.962Z" fill="url(#paint1_linear)"/>
<path d="M101.077 103.039C101.077 103.039 101 103.039 101.077 103.039C101 103.039 101 103.039 101.077 103.039C101 102.962 101 102.962 101.077 103.039C101 103.039 101 103.039 101.077 103.039C101 102.962 101 102.962 101.077 103.039C101.077 102.962 101.077 102.962 101.077 103.039ZM101 102.962C101 103.039 101 103.039 101 102.962C101 103.039 101.077 103.039 101 102.962C101.077 102.962 101.077 102.962 101 102.962C101 103.039 101 103.039 101 102.962Z" fill="url(#paint2_linear)"/>
<path d="M101.076 103.038C101.076 103.038 101 103.038 101.076 103.038C101 103.038 101 103.038 101 103.038C101 103.038 101 103.038 101.076 103.038C101 102.962 101 102.962 101.076 103.038C101.076 102.962 101.076 102.962 101.076 103.038ZM101 102.962C100.925 103.038 101 103.038 101 102.962C101.076 103.038 101.076 103.038 101.076 102.962C101.076 102.962 101.076 102.962 101 102.962C101 103.038 101 103.038 101 102.962Z" fill="url(#paint3_linear)"/>
<path d="M101.076 103.038C101.076 103.038 101 103.038 101.076 103.038C101 103.038 101 103.038 101 103.038C101 102.962 101 103.038 101.076 103.038C101 102.962 101 102.962 101.076 103.038C101.076 102.962 101.076 102.962 101.076 103.038ZM101 102.962C100.925 103.038 101 103.038 101 102.962C101.076 103.038 101.076 103.038 101.076 102.962C101.076 102.962 101.076 102.962 101 102.962C101 103.038 101 103.038 101 102.962Z" fill="url(#paint4_linear)"/>
<path d="M101.076 103.038C101.076 103.038 101 103.038 101.076 103.038C101 103.038 101 103.038 101 103.038C101 102.962 101 103.038 101.076 103.038C101 102.962 101 102.962 101.076 103.038C101.076 102.962 101.076 102.962 101.076 103.038ZM100.925 102.962C100.925 103.038 101 103.038 100.925 102.962C101 103.038 101 103.038 101 102.962V102.886C101 102.962 101 102.962 100.925 102.962C101 103.038 101 103.038 100.925 102.962Z" fill="url(#paint5_linear)"/>
<path d="M101.076 103.038C101.076 103.038 101 103.038 101.076 103.038C101 103.038 100.925 103.038 101 103.038C101 102.962 101 103.038 101.076 103.038C101 102.962 101.076 102.962 101.076 103.038C101.076 102.962 101.076 102.962 101.076 103.038ZM100.925 102.962C100.925 103.038 100.925 103.038 100.925 102.962C101 103.038 101 103.038 101 102.962V102.886C101.076 102.962 101 102.962 100.925 102.962C101 103.038 101 102.962 100.925 102.962Z" fill="url(#paint6_linear)"/>
<path d="M101.076 103.038L101 103.114L100.925 103.038C100.925 102.962 101 103.038 101.076 103.038C101 102.962 101.076 102.962 101.076 103.038C101.076 102.962 101.076 102.962 101.076 103.038ZM100.925 102.962C100.925 102.962 100.925 103.038 101 103.038C101 103.038 101.076 103.038 101.076 102.962V102.886C101.076 102.962 101 102.962 100.925 102.962C101 103.038 100.925 102.962 100.925 102.962Z" fill="url(#paint7_linear)"/>
<path d="M101.076 103.038L101 103.114L100.925 103.038C100.925 102.962 101 103.038 101.076 103.038C101 103.038 101.076 102.962 101.076 102.962C101.076 102.962 101.076 102.962 101.076 103.038ZM100.925 102.962C100.925 102.962 100.925 103.038 101 103.038C101 103.038 101.076 103.038 101.076 102.962V102.886C101.076 102.962 101 102.962 100.925 102.962C101 103.038 100.925 102.962 100.925 102.962Z" fill="url(#paint8_linear)"/>
<path d="M101.076 103.038C101.076 103.114 101 103.114 101 103.114C100.925 103.114 100.925 103.038 100.925 103.038C100.925 103.038 101 103.114 101 103.038C101 103.038 101.076 103.038 101.076 102.962C101.076 102.962 101.076 102.962 101.076 103.038ZM100.925 102.962C100.925 103.038 100.925 103.038 101 103.038C101.076 103.038 101.076 103.038 101.076 102.962V102.886C101.076 102.962 101 103.038 100.925 102.962C101 103.038 100.925 102.962 100.925 102.962Z" fill="url(#paint9_linear)"/>
<path d="M101.076 103.038C101.076 103.114 101.001 103.114 100.925 103.114C100.85 103.114 100.85 103.038 100.85 102.962L100.925 103.038C100.925 103.038 101.001 103.038 101.001 102.962C101.076 102.962 101.076 102.962 101.076 103.038ZM100.925 102.962C100.925 103.038 100.925 103.038 101.001 103.114C101.076 103.114 101.076 103.114 101.152 103.038V102.962C101.076 102.962 101.001 103.038 100.925 102.962C101.001 103.038 100.925 102.962 100.925 102.962Z" fill="url(#paint10_linear)"/>
<path d="M101.076 103.038C101.076 103.114 101.001 103.114 100.925 103.114C100.85 103.114 100.85 103.038 100.85 102.962L100.925 103.038L101.001 102.962C101.076 102.962 101.152 102.962 101.076 103.038ZM100.925 102.962C100.925 103.038 100.925 103.038 101.001 103.114C101.076 103.114 101.076 103.114 101.152 103.038C101.152 102.962 101.152 102.962 101.152 102.886C101.152 102.962 101.152 102.962 101.076 102.962C101.001 103.038 100.925 102.962 100.925 102.962Z" fill="url(#paint11_linear)"/>
<path d="M101.076 103.038C101.076 103.114 101.001 103.114 100.925 103.114C100.85 103.114 100.85 103.038 100.85 102.962C100.85 103.038 100.925 103.038 100.925 103.038C101.001 103.038 101.001 102.962 101.001 102.962C101.152 102.962 101.152 102.962 101.076 103.038ZM100.925 102.962C100.925 103.038 100.925 103.114 101.001 103.114C101.076 103.114 101.152 103.114 101.152 103.038C101.152 102.962 101.152 102.962 101.152 102.886C101.152 102.962 101.152 102.962 101.076 102.962C101.001 103.038 100.925 102.962 100.925 102.962Z" fill="url(#paint12_linear)"/>
<path d="M101.151 103.038C101.151 103.114 101.076 103.114 101 103.114C100.925 103.114 100.925 103.038 100.925 102.962C100.925 103.038 101 103.038 101 103.038C101.076 103.038 101.076 102.962 101.076 102.962C101.151 102.962 101.151 103.038 101.151 103.038ZM100.925 102.962C100.925 103.038 100.925 103.114 101 103.114C101.076 103.114 101.151 103.114 101.151 103.038C101.151 102.962 101.151 102.962 101.151 102.886C101.151 102.962 101.076 102.962 101.076 102.962C100.925 103.038 100.925 102.962 100.925 102.962Z" fill="url(#paint13_linear)"/>
<path d="M101.151 103.038C101.151 103.114 101 103.114 101 103.114C100.925 103.114 100.925 102.962 100.925 102.962C100.925 103.038 101 103.038 101 103.038C101.076 103.038 101.076 102.962 101.076 102.962C101.151 102.962 101.151 103.038 101.151 103.038ZM100.925 102.962C100.925 103.038 100.925 103.114 101 103.114C101.076 103.114 101.151 103.114 101.151 103.038C101.151 102.962 101.151 102.886 101.151 102.886C101.151 102.962 101.076 102.962 101.076 102.962C100.925 103.038 100.925 102.962 100.925 102.962Z" fill="url(#paint14_linear)"/>
<path d="M101.151 103.038C101.075 103.114 101 103.114 100.924 103.114C100.849 103.038 100.849 102.962 100.849 102.886C100.849 102.962 100.924 102.962 101 102.962C101.075 102.962 101.075 102.886 101.075 102.81C101.151 102.962 101.151 103.038 101.151 103.038ZM100.849 102.962C100.773 103.038 100.849 103.114 100.924 103.19C101 103.266 101.075 103.19 101.151 103.114C101.151 103.038 101.151 102.962 101.151 102.962C101.151 103.038 101.075 103.114 101.075 103.114C100.924 103.038 100.924 102.962 100.849 102.962Z" fill="url(#paint15_linear)"/>
<path d="M101.151 103.114C101.075 103.19 101 103.19 100.924 103.19C100.849 103.114 100.849 103.038 100.849 102.962C100.849 103.038 100.924 103.038 101 103.038C101.075 103.038 101.075 102.962 101.151 102.886C101.151 102.962 101.226 103.038 101.151 103.114ZM100.849 102.886C100.773 102.962 100.849 103.038 100.924 103.114C101 103.19 101.075 103.114 101.151 103.038C101.151 102.962 101.151 102.886 101.151 102.81C101.151 102.886 101.075 102.962 101 102.962C100.924 103.038 100.924 102.962 100.849 102.886Z" fill="url(#paint16_linear)"/>
<path d="M101.151 103.114C101.075 103.19 101 103.266 100.924 103.19C100.849 103.114 100.773 103.038 100.849 102.962C100.849 103.038 100.924 103.038 101 103.038C101.075 103.038 101.151 102.962 101.151 102.886C101.226 102.962 101.226 103.038 101.151 103.114ZM100.849 102.886C100.773 102.962 100.849 103.114 100.924 103.114C101 103.114 101.151 103.114 101.151 103.038C101.226 102.962 101.151 102.886 101.151 102.81C101.151 102.886 101.075 102.962 101 102.962C100.924 103.038 100.849 102.962 100.849 102.886Z" fill="url(#paint17_linear)"/>
<path d="M101.151 103.114C101.075 103.19 101 103.266 100.849 103.19C100.773 103.114 100.698 103.038 100.773 102.886C100.773 102.962 100.849 103.038 100.924 103.038C101 103.038 101.075 102.962 101.075 102.886C101.226 102.886 101.226 103.038 101.151 103.114ZM100.849 102.886C100.773 102.962 100.849 103.114 100.924 103.19C101 103.266 101.151 103.19 101.226 103.114C101.302 103.038 101.226 102.962 101.226 102.886C101.226 102.962 101.151 103.038 101.075 103.038C100.924 103.038 100.849 102.962 100.849 102.886Z" fill="url(#paint18_linear)"/>
<path d="M101.226 103.114C101.151 103.19 101 103.266 100.924 103.19C100.849 103.114 100.773 102.962 100.849 102.886C100.849 102.962 100.924 103.038 101 103.038C101.075 103.038 101.151 102.962 101.151 102.886C101.226 102.886 101.226 103.038 101.226 103.114ZM100.849 102.886C100.773 102.962 100.849 103.114 100.924 103.19C101 103.266 101.151 103.19 101.226 103.114C101.302 103.038 101.302 102.886 101.226 102.81C101.226 102.886 101.151 102.962 101.075 102.962C100.924 103.038 100.849 102.962 100.849 102.886Z" fill="url(#paint19_linear)"/>
<path d="M101.226 103.114C101.151 103.266 101 103.266 100.849 103.19C100.698 103.114 100.698 102.962 100.773 102.81C100.773 102.886 100.849 102.962 101 102.962C101.075 102.962 101.151 102.886 101.226 102.81C101.302 102.886 101.302 103.038 101.226 103.114ZM100.773 102.886C100.698 103.038 100.698 103.19 100.849 103.266C101 103.341 101.151 103.341 101.226 103.19C101.302 103.114 101.302 102.962 101.226 102.886C101.226 102.962 101.151 103.038 101 103.038C100.924 103.038 100.849 102.962 100.773 102.886Z" fill="url(#paint20_linear)"/>
<path d="M101.226 103.19C101.151 103.341 101 103.341 100.849 103.266C100.698 103.19 100.698 103.038 100.773 102.886C100.773 102.962 100.924 103.038 101 103.038C101.075 103.038 101.226 102.962 101.226 102.81C101.302 102.886 101.302 103.038 101.226 103.19ZM100.773 102.81C100.698 102.962 100.698 103.114 100.849 103.19C101 103.266 101.151 103.266 101.226 103.114C101.302 103.038 101.302 102.886 101.226 102.81C101.226 102.962 101.075 103.038 101 103.038C100.924 103.038 100.849 102.962 100.773 102.81Z" fill="url(#paint21_linear)"/>
<path d="M101.302 103.19C101.226 103.341 101 103.341 100.849 103.266C100.698 103.19 100.698 102.962 100.773 102.81C100.773 102.962 100.924 103.038 101 103.038C101.151 103.038 101.226 102.962 101.226 102.81C101.377 102.886 101.377 103.038 101.302 103.19ZM100.773 102.81C100.698 102.962 100.698 103.114 100.849 103.266C101 103.417 101.151 103.341 101.302 103.19C101.377 103.038 101.377 102.886 101.302 102.81C101.302 102.962 101.151 103.038 101.075 103.038C100.849 103.038 100.773 102.962 100.773 102.81Z" fill="url(#paint22_linear)"/>
<path d="M101.302 103.19C101.226 103.341 101 103.417 100.849 103.266C100.698 103.19 100.623 102.962 100.774 102.81C100.774 102.962 100.924 103.038 101 103.038C101.151 103.038 101.226 102.962 101.302 102.81C101.377 102.886 101.377 103.038 101.302 103.19ZM100.698 102.81C100.623 102.962 100.623 103.19 100.774 103.266C100.924 103.341 101.151 103.341 101.226 103.19C101.302 103.038 101.302 102.886 101.226 102.734C101.151 102.886 101.075 102.962 100.924 102.962C100.849 103.038 100.774 102.886 100.698 102.81Z" fill="url(#paint23_linear)"/>
<path d="M101.302 103.266C101.151 103.417 100.925 103.493 100.774 103.341C100.623 103.19 100.548 102.962 100.699 102.81C100.699 102.962 100.849 103.038 101 103.038C101.151 103.038 101.302 102.962 101.302 102.81C101.453 102.886 101.453 103.114 101.302 103.266ZM100.699 102.734C100.548 102.886 100.623 103.114 100.774 103.266C100.925 103.417 101.151 103.341 101.302 103.19C101.378 103.038 101.378 102.886 101.302 102.734C101.227 102.886 101.151 103.038 101 102.962C100.849 103.038 100.774 102.886 100.699 102.734Z" fill="url(#paint24_linear)"/>
<path d="M101.378 103.266C101.227 103.417 101 103.493 100.774 103.341C100.623 103.19 100.548 102.962 100.699 102.734C100.774 102.886 100.849 103.038 101 103.038C101.151 103.038 101.302 102.962 101.378 102.734C101.453 102.886 101.453 103.114 101.378 103.266ZM100.699 102.734C100.548 102.886 100.623 103.19 100.774 103.341C100.925 103.493 101.227 103.417 101.378 103.266C101.529 103.114 101.529 102.886 101.378 102.734C101.302 102.886 101.151 103.038 101 103.038C100.849 103.038 100.699 102.886 100.699 102.734Z" fill="url(#paint25_linear)"/>
<path d="M101.378 103.266C101.227 103.493 100.925 103.493 100.698 103.341C100.472 103.19 100.472 102.886 100.623 102.659C100.698 102.81 100.774 102.962 100.925 102.962C101.076 102.962 101.302 102.886 101.302 102.659C101.529 102.886 101.529 103.114 101.378 103.266ZM100.623 102.734C100.472 102.962 100.472 103.266 100.698 103.417C100.925 103.569 101.227 103.569 101.378 103.341C101.529 103.19 101.529 102.962 101.378 102.734C101.302 102.962 101.151 103.038 100.925 103.038C100.849 103.038 100.698 102.886 100.623 102.734C100.623 102.659 100.623 102.659 100.623 102.734Z" fill="url(#paint26_linear)"/>
<path d="M101.453 103.341C101.302 103.569 100.925 103.569 100.698 103.417C100.472 103.266 100.472 102.886 100.623 102.659C100.698 102.886 100.774 103.038 101 103.038C101.227 103.038 101.378 102.962 101.453 102.734C101.604 102.886 101.604 103.114 101.453 103.341ZM100.623 102.659C100.472 102.886 100.472 103.19 100.698 103.417C100.925 103.569 101.227 103.569 101.453 103.341C101.604 103.19 101.604 102.886 101.453 102.734C101.378 102.962 101.151 103.114 101 103.038C100.774 103.038 100.623 102.886 100.623 102.659Z" fill="url(#paint27_linear)"/>
<path d="M101.453 103.417C101.226 103.645 100.849 103.721 100.622 103.493C100.396 103.266 100.32 102.886 100.547 102.659C100.622 102.886 100.773 103.038 100.924 103.114C101.151 103.114 101.377 102.962 101.453 102.734C101.679 102.886 101.604 103.19 101.453 103.417ZM100.547 102.583C100.32 102.81 100.396 103.19 100.622 103.417C100.849 103.645 101.226 103.569 101.453 103.341C101.604 103.114 101.679 102.886 101.528 102.659C101.453 102.886 101.226 103.038 101 103.038C100.773 103.038 100.622 102.81 100.547 102.583Z" fill="url(#paint28_linear)"/>
<path d="M101.528 103.417C101.302 103.721 100.849 103.721 100.623 103.493C100.321 103.266 100.321 102.81 100.547 102.583C100.623 102.81 100.774 103.038 101 103.038C101.227 103.114 101.453 102.886 101.604 102.659C101.755 102.886 101.679 103.19 101.528 103.417ZM100.547 102.583C100.321 102.886 100.321 103.266 100.623 103.493C100.925 103.721 101.302 103.721 101.528 103.417C101.755 103.19 101.755 102.886 101.604 102.659C101.528 102.962 101.227 103.114 101 103.038C100.774 102.962 100.547 102.81 100.547 102.583Z" fill="url(#paint29_linear)"/>
<path d="M101.528 103.493C101.226 103.797 100.774 103.797 100.472 103.493C100.17 103.19 100.17 102.734 100.472 102.431C100.547 102.734 100.698 102.962 100.924 102.962C101.226 103.038 101.453 102.81 101.604 102.507C101.83 102.886 101.755 103.266 101.528 103.493ZM100.472 102.507C100.17 102.81 100.245 103.266 100.472 103.493C100.774 103.797 101.226 103.721 101.453 103.493C101.679 103.266 101.679 102.886 101.528 102.583C101.377 102.886 101.151 103.038 100.849 103.038C100.698 102.962 100.547 102.81 100.472 102.507Z" fill="url(#paint30_linear)"/>
<path d="M101.604 103.569C101.302 103.873 100.774 103.873 100.472 103.569C100.17 103.266 100.17 102.734 100.472 102.431C100.547 102.734 100.698 102.962 101 103.038C101.302 103.114 101.604 102.886 101.755 102.583C101.906 102.886 101.83 103.266 101.604 103.569ZM100.472 102.431C100.17 102.734 100.17 103.266 100.472 103.569C100.774 103.873 101.302 103.873 101.604 103.569C101.83 103.341 101.906 102.886 101.679 102.583C101.528 102.886 101.226 103.114 100.924 103.038C100.698 102.962 100.472 102.734 100.472 102.431Z" fill="url(#paint31_linear)"/>
<path d="M101.68 103.645C101.302 104.024 100.774 104.024 100.396 103.645C100.019 103.266 100.019 102.734 100.396 102.355C100.396 102.734 100.623 102.962 100.925 103.038C101.227 103.114 101.604 102.886 101.755 102.507C101.982 102.886 101.906 103.341 101.68 103.645ZM100.396 102.355C100.019 102.734 100.019 103.266 100.396 103.645C100.774 104.024 101.302 104.024 101.68 103.645C101.982 103.341 102.057 102.886 101.831 102.583C101.68 102.962 101.302 103.114 101 103.114C100.623 102.962 100.472 102.734 100.396 102.355Z" fill="url(#paint32_linear)"/>
<path d="M101.679 103.721C101.302 104.1 100.622 104.1 100.245 103.721C99.8676 103.341 99.8676 102.659 100.245 102.279C100.245 102.659 100.547 102.962 100.849 103.038C101.226 103.114 101.604 102.886 101.755 102.507C102.132 102.886 102.057 103.417 101.679 103.721ZM100.32 102.279C99.943 102.659 99.943 103.266 100.32 103.645C100.698 104.024 101.302 104.024 101.679 103.645C101.981 103.341 102.057 102.81 101.83 102.431C101.604 102.81 101.226 103.038 100.924 102.962C100.622 102.962 100.396 102.659 100.32 102.279Z" fill="url(#paint33_linear)"/>
<path d="M101.755 103.797C101.302 104.252 100.622 104.176 100.17 103.721C99.7166 103.266 99.7921 102.583 100.245 102.127C100.245 102.583 100.547 102.886 100.849 102.962C101.226 103.038 101.679 102.81 101.906 102.355C102.208 102.886 102.132 103.417 101.755 103.797ZM100.245 102.203C99.7921 102.583 99.7921 103.341 100.17 103.721C100.547 104.176 101.302 104.176 101.679 103.797C102.057 103.493 102.132 102.886 101.906 102.507C101.679 102.962 101.226 103.19 100.849 103.114C100.547 102.962 100.321 102.583 100.245 102.203Z" fill="url(#paint34_linear)"/>
<path d="M101.83 103.873C101.302 104.328 100.547 104.252 100.094 103.797C99.6414 103.266 99.7169 102.507 100.17 102.052C100.17 102.507 100.472 102.886 100.849 103.038C101.302 103.19 101.755 102.886 102.057 102.431C102.359 102.886 102.283 103.493 101.83 103.873ZM100.245 102.052C99.7169 102.507 99.7169 103.266 100.17 103.797C100.623 104.328 101.378 104.328 101.906 103.873C102.283 103.493 102.434 102.886 102.208 102.431C101.981 102.886 101.453 103.19 101 103.038C100.547 102.962 100.245 102.583 100.245 102.052Z" fill="url(#paint35_linear)"/>
<path d="M101.906 104.024C101.302 104.555 100.471 104.48 100.018 103.873C99.49 103.266 99.5655 102.431 100.169 101.976C100.169 102.507 100.471 102.962 100.924 103.114C101.377 103.266 101.981 102.962 102.207 102.431C102.509 102.962 102.358 103.645 101.906 104.024ZM100.169 101.976C99.641 102.431 99.5655 103.341 100.018 103.873C100.471 104.404 101.377 104.48 101.906 104.024C102.358 103.645 102.509 102.962 102.207 102.431C101.906 102.962 101.377 103.266 100.849 103.114C100.471 102.962 100.169 102.507 100.169 101.976Z" fill="url(#paint36_linear)"/>
<path d="M101.982 104.176C101.378 104.707 100.396 104.631 99.868 104.024C99.3396 103.417 99.4151 102.431 100.019 101.9C100.019 102.507 100.321 102.962 100.849 103.114C101.378 103.266 101.982 102.962 102.359 102.431C102.661 102.962 102.51 103.721 101.982 104.176ZM100.094 101.824C99.4906 102.355 99.4151 103.341 99.9435 103.948C100.472 104.555 101.453 104.631 102.057 104.1C102.585 103.645 102.736 102.962 102.435 102.279C102.133 102.886 101.453 103.19 100.925 102.962C100.396 102.886 100.094 102.431 100.094 101.824Z" fill="url(#paint37_linear)"/>
<path d="M102.057 104.328C101.302 104.935 100.246 104.783 99.7172 104.1C99.1888 103.417 99.2643 102.279 99.9436 101.748C99.9436 102.431 100.321 102.962 100.849 103.114C101.453 103.341 102.133 102.962 102.51 102.355C102.888 102.962 102.661 103.797 102.057 104.328ZM99.9436 101.672C99.2643 102.279 99.1133 103.341 99.7172 104.024C100.321 104.707 101.378 104.859 102.057 104.252C102.661 103.797 102.812 102.962 102.51 102.279C102.133 102.962 101.453 103.266 100.849 103.038C100.321 102.886 100.019 102.355 99.9436 101.672C100.019 101.672 100.019 101.672 99.9436 101.672Z" fill="url(#paint38_linear)"/>
<path d="M102.208 104.48C101.377 105.087 100.245 104.935 99.5655 104.176C98.8862 103.417 99.1126 102.203 99.8675 101.52C99.8675 102.279 100.245 102.886 100.849 103.114C101.528 103.341 102.283 103.038 102.736 102.279C103.113 103.038 102.887 103.948 102.208 104.48ZM99.8675 101.52C99.0371 102.127 98.8862 103.341 99.5655 104.1C100.169 104.935 101.377 105.087 102.132 104.404C102.811 103.873 103.038 102.962 102.66 102.203C102.208 102.886 101.453 103.266 100.773 103.038C100.245 102.886 99.8675 102.279 99.8675 101.52Z" fill="url(#paint39_linear)"/>
<path d="M102.283 104.631C101.377 105.314 100.094 105.162 99.3392 104.252C98.6598 103.341 98.8108 102.052 99.7166 101.293C99.7166 102.127 100.094 102.81 100.773 103.038C101.528 103.341 102.359 102.962 102.812 102.127C103.34 103.038 103.038 104.1 102.283 104.631ZM99.7921 101.369C98.8863 102.052 98.7353 103.341 99.4147 104.252C100.094 105.162 101.377 105.314 102.283 104.631C103.038 104.1 103.264 103.038 102.963 102.203C102.434 102.962 101.604 103.341 100.849 103.038C100.17 102.81 99.7921 102.127 99.7921 101.369C99.7921 101.293 99.7921 101.293 99.7921 101.369Z" fill="url(#paint40_linear)"/>
<path d="M102.358 104.859C101.302 105.618 99.8673 105.39 99.1125 104.328C98.3576 103.266 98.5841 101.824 99.6409 101.065C99.6409 101.065 99.6409 101.065 99.7163 101.065C99.6409 101.976 100.094 102.734 100.849 103.038C101.679 103.341 102.585 102.962 103.189 102.127C103.566 103.114 103.264 104.252 102.358 104.859ZM99.7163 101.141C98.735 101.9 98.5086 103.341 99.1879 104.328C99.9428 105.314 101.377 105.542 102.358 104.859C103.189 104.252 103.491 103.114 103.113 102.203C102.509 103.038 101.603 103.417 100.773 103.114C100.094 102.81 99.6409 102.052 99.7163 101.141Z" fill="url(#paint41_linear)"/>
<path d="M102.51 105.087C101.378 105.921 99.7169 105.618 98.962 104.48C98.1317 103.341 98.4336 101.672 99.5659 100.913C99.5659 100.913 99.5659 100.913 99.6414 100.913C99.5659 101.9 100.019 102.81 100.849 103.114C101.755 103.493 102.812 103.038 103.416 102.127C103.869 103.19 103.491 104.404 102.51 105.087ZM99.5659 100.913C98.4336 101.748 98.1317 103.341 98.962 104.48C99.7924 105.618 101.378 105.921 102.51 105.087C103.416 104.404 103.869 103.19 103.416 102.127C102.736 103.038 101.68 103.493 100.774 103.114C100.019 102.734 99.5659 101.9 99.5659 100.913Z" fill="url(#paint42_linear)"/>
<path d="M102.661 105.39C101.378 106.301 99.5662 105.921 98.7359 104.631C97.9055 103.341 98.2075 101.52 99.4907 100.686C99.4907 100.686 99.4907 100.686 99.5662 100.686C99.4907 101.824 99.9437 102.81 100.849 103.19C101.831 103.645 103.039 103.19 103.718 102.127C104.171 103.266 103.718 104.631 102.661 105.39ZM99.4907 100.61C98.2075 101.52 97.83 103.266 98.7359 104.555C99.6417 105.845 101.378 106.225 102.661 105.314C103.718 104.631 104.171 103.266 103.718 102.052C102.963 103.114 101.755 103.493 100.774 103.114C99.9436 102.734 99.4152 101.748 99.4907 100.61Z" fill="url(#paint43_linear)"/>
<path d="M102.736 105.618C101.302 106.604 99.3396 106.149 98.3583 104.707C97.377 103.266 97.8299 101.293 99.2641 100.306H99.3396C99.1887 101.52 99.7171 102.659 100.698 103.114C101.755 103.569 103.114 103.114 103.944 101.976C104.473 103.341 104.02 104.859 102.736 105.618ZM99.3396 100.306C97.9054 101.217 97.4525 103.19 98.4338 104.631C99.3396 106.073 101.302 106.528 102.736 105.542C103.944 104.783 104.473 103.266 104.02 101.9C103.189 103.038 101.831 103.493 100.774 102.962C99.7925 102.659 99.2641 101.596 99.3396 100.306Z" fill="url(#paint44_linear)"/>
<path d="M102.887 105.997C101.226 107.059 99.0373 106.528 98.056 104.859C97.0747 103.19 97.5276 100.989 99.1883 100.003C99.1883 100.003 99.2638 100.003 99.2638 99.9271V100.003C99.1128 101.369 99.6412 102.583 100.698 103.114C101.906 103.645 103.34 103.19 104.321 101.976C104.925 103.417 104.246 105.087 102.887 105.997ZM99.1883 100.003C97.5276 100.989 97.0747 103.19 98.056 104.859C99.0373 106.528 101.226 106.983 102.887 105.997C104.246 105.162 104.85 103.493 104.397 101.976C103.415 103.19 101.906 103.721 100.773 103.114C99.6412 102.583 99.1128 101.369 99.1883 100.003C99.2638 100.003 99.1883 100.003 99.1883 100.003Z" fill="url(#paint45_linear)"/>
<path d="M103.038 106.376C101.226 107.515 98.8103 106.908 97.6781 105.011C96.5458 103.19 97.1497 100.762 99.0368 99.6236C99.0368 99.6236 99.1123 99.6236 99.1123 99.5477H99.1878V99.6236C98.9613 101.141 99.5652 102.507 100.773 103.114C102.056 103.797 103.717 103.266 104.849 101.9V101.976C105.302 103.569 104.623 105.39 103.038 106.376ZM99.0368 99.6236C97.2251 100.762 96.6213 103.114 97.6781 104.935C98.8103 106.756 101.15 107.363 102.962 106.301C104.472 105.39 105.151 103.569 104.698 101.9C103.566 103.266 101.905 103.721 100.622 103.114C99.4897 102.507 98.8858 101.141 99.0368 99.6236C99.1123 99.6236 99.1123 99.6236 99.0368 99.6236Z" fill="url(#paint46_linear)"/>
<path d="M103.265 106.756C101.227 107.97 98.5094 107.211 97.3017 105.162C96.0939 103.114 96.8487 100.382 98.8869 99.1683C98.8869 99.1683 98.9623 99.1683 98.9623 99.0925H99.0378V99.1683C98.8114 100.838 99.4153 102.431 100.699 103.038C102.133 103.797 104.02 103.266 105.228 101.748V101.824C105.756 103.721 104.926 105.769 103.265 106.756ZM98.8869 99.2442C96.8487 100.458 96.0939 103.114 97.3017 105.162C98.5094 107.211 101.151 107.97 103.19 106.756C104.85 105.769 105.681 103.797 105.228 101.9C103.944 103.417 102.133 103.873 100.699 103.19C99.3398 102.431 98.7359 100.913 98.8869 99.2442C98.9623 99.2442 98.9623 99.2442 98.8869 99.2442Z" fill="url(#paint47_linear)"/>
<path d="M103.416 107.211C101.076 108.501 98.1318 107.666 96.8485 105.314C95.5653 102.962 96.3956 100.003 98.7357 98.7131C98.7357 98.7131 98.8112 98.7131 98.8112 98.6372H98.8866V98.7131C98.5847 100.61 99.2641 102.279 100.698 103.114C102.284 103.948 104.322 103.417 105.756 101.748V101.672V101.748C106.284 103.873 105.303 106.149 103.416 107.211ZM98.7357 98.789C96.4711 100.079 95.5653 102.962 96.8485 105.314C98.1318 107.59 101 108.501 103.34 107.211C105.227 106.149 106.209 103.948 105.68 101.824C104.246 103.493 102.208 104.024 100.623 103.114C99.1886 102.355 98.5092 100.61 98.7357 98.789C98.8112 98.789 98.7357 98.789 98.7357 98.789Z" fill="url(#paint48_linear)"/>
<path d="M103.566 107.742C100.924 109.108 97.6784 108.122 96.3196 105.542C94.9609 102.886 95.9422 99.6236 98.5087 98.2578C98.5087 98.2578 98.5842 98.2578 98.5842 98.1819H98.6597V98.2578C98.2823 100.306 99.0371 102.279 100.547 103.114C102.283 104.1 104.623 103.569 106.208 101.748V101.672V101.748C106.888 104.1 105.755 106.604 103.566 107.742ZM98.5842 98.2578C96.0177 99.6236 95.0364 102.886 96.3951 105.466C97.7539 108.046 101 109.032 103.566 107.666C105.68 106.528 106.812 104.1 106.208 101.748C104.623 103.569 102.283 104.1 100.547 103.114C99.0371 102.203 98.2823 100.306 98.5842 98.2578Z" fill="url(#paint49_linear)"/>
<path d="M103.793 108.273C100.849 109.791 97.3012 108.577 95.7915 105.694C94.2817 102.734 95.4895 99.1683 98.358 97.6508C98.4335 97.6508 98.4335 97.575 98.5089 97.575H98.5844V97.6508C98.1315 99.9271 98.8864 102.127 100.623 103.114C102.51 104.252 105.152 103.645 106.888 101.672L106.963 101.596V101.672C107.492 104.328 106.208 107.059 103.793 108.273ZM98.4335 97.6508C95.565 99.1683 94.3572 102.734 95.8669 105.618C97.3767 108.501 100.924 109.715 103.793 108.197C106.208 106.983 107.416 104.328 106.888 101.672C105.076 103.645 102.51 104.176 100.547 103.038C98.8109 102.127 97.9805 100.003 98.4335 97.6508Z" fill="url(#paint50_linear)"/>
<path d="M104.02 108.956C100.774 110.55 96.7731 109.184 95.1878 105.921C93.6026 102.659 94.9614 98.6372 98.2073 97.0438C98.2828 97.0438 98.2828 96.968 98.3583 96.968H98.4337V97.0438C97.8299 99.6236 98.6602 101.976 100.547 103.114C102.661 104.404 105.529 103.797 107.568 101.672L107.643 101.596V101.672C108.171 104.631 106.737 107.59 104.02 108.956ZM98.2073 97.0438C94.9614 98.6372 93.6026 102.583 95.1878 105.845C96.7731 109.108 100.698 110.474 103.944 108.88C106.586 107.59 108.096 104.631 107.492 101.748C105.454 103.873 102.51 104.48 100.396 103.19C98.5847 101.976 97.7544 99.5477 98.2073 97.0438C98.2828 97.0438 98.2073 97.0438 98.2073 97.0438Z" fill="url(#paint51_linear)"/>
<path d="M104.246 109.639C100.547 111.384 96.1686 109.791 94.4324 106.073C92.6963 102.355 94.2815 97.9543 97.9803 96.2092C98.0558 96.2092 98.0558 96.1333 98.1312 96.1333H98.2067V96.2092C97.5274 99.0166 98.3577 101.748 100.471 103.038C102.811 104.48 105.982 103.873 108.322 101.52L108.397 101.445V101.52C108.926 104.935 107.265 108.197 104.246 109.639ZM98.0558 96.361C94.4324 98.0302 92.8472 102.431 94.5079 106.073C96.1686 109.715 100.547 111.308 104.17 109.639C107.19 108.273 108.85 105.011 108.246 101.748C105.906 104.1 102.66 104.707 100.396 103.19C98.3577 101.824 97.4519 99.0924 98.0558 96.361C98.0558 96.2851 98.0558 96.2851 98.0558 96.361Z" fill="url(#paint52_linear)"/>
<path d="M104.472 110.474C100.32 112.295 95.4891 110.474 93.6774 106.301C91.8658 102.127 93.6775 97.2715 97.8292 95.4505C97.9047 95.4505 97.9047 95.3746 97.9801 95.3746H98.0556V95.4505C97.2253 98.5613 98.1311 101.596 100.396 103.114C102.962 104.783 106.51 104.176 109.152 101.596L109.228 101.52V101.596C109.831 105.314 107.869 108.956 104.472 110.474ZM97.8292 95.5263C93.7529 97.3473 91.9413 102.127 93.7529 106.225C95.5646 110.322 100.32 112.143 104.396 110.322C107.718 108.804 109.68 105.238 109.077 101.596C106.435 104.176 102.887 104.707 100.32 103.038C98.0556 101.52 97.0743 98.5613 97.9047 95.3746C97.9047 95.5263 97.8292 95.5263 97.8292 95.5263Z" fill="url(#paint53_linear)"/>
<path d="M104.699 111.384C100.095 113.357 94.735 111.157 92.7724 106.528C90.8098 101.9 92.9989 96.5127 97.6035 94.54C97.679 94.54 97.7545 94.4641 97.7545 94.4641L97.83 94.3882V94.4641C96.8487 97.9543 97.83 101.293 100.321 102.962C103.114 104.859 107.115 104.252 110.059 101.445L110.134 101.369V101.445C110.738 105.694 108.473 109.715 104.699 111.384ZM97.6035 94.6158C93.0744 96.5886 90.8853 101.9 92.8479 106.452C94.8105 111.005 100.095 113.205 104.624 111.232C108.398 109.639 110.587 105.694 109.983 101.672C107.039 104.48 103.038 105.011 100.246 103.114C97.7545 101.369 96.7732 98.0302 97.679 94.6158C97.679 94.6158 97.679 94.6158 97.6035 94.6158Z" fill="url(#paint54_linear)"/>
<path d="M104.926 112.371C99.7926 114.495 93.9047 111.915 91.7911 106.756C89.6775 101.596 92.2441 95.6781 97.3771 93.5536C97.4526 93.5536 97.5281 93.4777 97.6035 93.4777L97.679 93.4018V93.4777C96.5467 97.2715 97.5281 101.065 100.246 102.962C103.265 105.162 107.719 104.555 111.04 101.52L111.115 101.445V101.52C111.795 106.225 109.228 110.625 104.926 112.371ZM97.3771 93.6295C92.2441 95.6781 89.8285 101.596 91.8666 106.68C93.9047 111.839 99.7926 114.267 104.85 112.219C109.077 110.55 111.568 106.225 111.04 101.672C107.719 104.707 103.265 105.314 100.17 103.114C97.4526 101.141 96.3958 97.4232 97.5281 93.5536C97.4526 93.6295 97.4526 93.6295 97.3771 93.6295Z" fill="url(#paint55_linear)"/>
<path d="M105.152 113.433C99.4147 115.633 92.8475 112.75 90.6584 106.983C88.4693 101.217 91.3378 94.6158 97.0747 92.4155C97.1502 92.4155 97.2256 92.3396 97.3011 92.3396L97.4521 92.2637L97.3766 92.4155C96.0179 96.6645 97.0747 100.838 100.094 103.038C103.415 105.542 108.398 104.935 112.172 101.596L112.247 101.52V101.672C112.927 106.756 109.983 111.612 105.152 113.433ZM97.1502 92.5672C91.4132 94.7676 88.5448 101.217 90.8094 106.983C92.9984 112.75 99.4147 115.633 105.152 113.357C109.832 111.536 112.7 106.832 112.172 101.824C108.398 105.087 103.415 105.694 100.019 103.19C96.9992 100.989 95.9424 96.8162 97.2256 92.5672C97.2256 92.4913 97.2256 92.4913 97.1502 92.5672Z" fill="url(#paint56_linear)"/>
<path d="M105.453 114.723C98.9614 117.075 91.8658 113.736 89.4502 107.211C87.1102 100.686 90.4315 93.5536 96.9233 91.1256C96.9988 91.1256 97.0743 91.0497 97.1498 91.0497L97.3008 90.9738L97.2253 91.1256C95.6401 95.8298 96.6969 100.458 100.018 102.962C103.717 105.769 109.228 105.238 113.455 101.596L113.53 101.52V101.672C114.134 107.439 110.813 112.75 105.453 114.723ZM96.9233 91.2773C90.507 93.6295 87.2611 100.762 89.5257 107.135C91.8658 113.585 98.9614 116.847 105.302 114.571C110.586 112.674 113.832 107.439 113.379 101.824C109.152 105.39 103.566 105.921 99.8673 103.114C96.5459 100.534 95.4136 95.9057 96.9988 91.2773C97.0743 91.2773 96.9988 91.2773 96.9233 91.2773Z" fill="url(#paint57_linear)"/>
<path d="M105.68 116.088C98.4335 118.592 90.583 114.723 88.0919 107.439C85.6009 100.155 89.4507 92.2637 96.6973 89.7598C96.7728 89.7598 96.9238 89.684 96.9993 89.684L97.1502 89.6081L97.0748 89.7598C95.1876 94.9193 96.3199 100.079 99.9432 102.962C103.944 106.149 110.134 105.694 114.889 101.748L114.965 101.672V101.824C115.493 108.122 111.719 114.04 105.68 116.088ZM96.7728 89.9116C89.6017 92.4155 85.8274 100.231 88.3184 107.439C90.8094 114.647 98.5845 118.441 105.756 115.937C111.644 113.888 115.418 108.197 114.965 101.976C110.134 105.921 104.019 106.376 99.9432 103.114C96.3199 100.231 95.1876 95.0711 96.9993 89.8357C96.8483 89.9116 96.7728 89.9116 96.7728 89.9116Z" fill="url(#paint58_linear)"/>
<path d="M105.982 117.606C97.9051 120.262 89.2242 115.785 86.5822 107.666C83.9402 99.5477 88.3939 90.8221 96.4708 88.1665C96.5463 88.1665 96.6973 88.0906 96.7728 88.0906L96.9238 88.0147L96.8483 88.1665C94.6592 93.8571 95.867 99.6236 99.7922 102.886C104.17 106.528 111.04 106.073 116.399 101.824L116.55 101.748V101.9C117.003 109.032 112.625 115.481 105.982 117.606ZM96.5463 88.3941C88.5448 90.9739 84.1667 99.6236 86.8087 107.666C89.3752 115.709 97.9806 120.11 105.982 117.454C112.549 115.33 116.852 109.032 116.475 102.127C111.04 106.376 104.246 106.756 99.7922 103.114C95.867 99.8512 94.6592 94.0847 96.7728 88.3182C96.6218 88.3941 96.5463 88.3941 96.5463 88.3941Z" fill="url(#paint59_linear)"/>
<path d="M106.208 119.351C97.2254 122.083 87.6387 116.999 84.8457 107.97C82.1282 98.9407 87.1857 89.3046 96.1686 86.4972C96.3195 86.4972 96.395 86.4214 96.546 86.4214L96.697 86.3455L96.6215 86.4972C94.1304 92.7948 95.2627 99.2442 99.5654 102.962C104.396 107.135 112.021 106.756 118.059 102.052L118.21 101.976V102.127C118.663 110.018 113.681 117.075 106.208 119.351ZM96.3195 86.649C87.4122 89.3805 82.3547 98.9407 85.0721 107.894C87.7896 116.847 97.3008 121.931 106.208 119.199C113.53 116.923 118.437 110.018 118.135 102.355C112.021 106.983 104.396 107.287 99.5654 103.114C95.2627 99.3959 94.055 92.9466 96.4705 86.649C96.395 86.649 96.3195 86.649 96.3195 86.649Z" fill="url(#paint60_linear)"/>
<path d="M106.51 121.248C96.4706 124.131 85.9026 118.289 83.0341 108.197C80.1657 98.1061 85.9781 87.4836 96.0177 84.6004C96.1686 84.5245 96.3196 84.5245 96.3951 84.5245L96.6216 84.4486L96.5461 84.6762C93.6776 91.5808 94.8099 98.789 99.5655 102.962C104.85 107.666 113.304 107.439 120.098 102.355L120.249 102.203V102.431C120.475 111.081 114.814 118.896 106.51 121.248ZM96.0932 84.7521C86.129 87.6354 80.3921 98.1061 83.1851 108.122C86.0536 118.137 96.4706 123.904 106.435 121.096C114.587 118.744 120.173 111.157 120.022 102.659C113.153 107.666 104.699 107.894 99.4145 103.114C94.6589 98.8648 93.4512 91.7326 96.3196 84.7521C96.2441 84.7521 96.1687 84.7521 96.0932 84.7521Z" fill="url(#paint61_linear)"/>
<path d="M106.737 123.372C95.4899 126.407 83.9406 119.655 80.9212 108.349C77.9017 97.0438 84.62 85.435 95.8674 82.4C96.0183 82.3241 96.1693 82.3241 96.3203 82.3241L96.5467 82.2483L96.4712 82.4759C93.0744 90.1392 94.2821 98.1061 99.4152 102.886C105.228 108.197 114.588 108.122 122.212 102.583L122.363 102.431V102.659C122.514 112.371 116.098 120.869 106.737 123.372ZM95.8674 82.6276C84.7709 85.5867 78.1282 97.1197 81.1476 108.349C84.0916 119.503 95.5654 126.18 106.737 123.145C115.871 120.717 122.212 112.371 122.212 102.886C114.512 108.349 105.077 108.349 99.2642 103.038C94.0557 98.2578 92.8479 90.2151 96.1693 82.5518C96.0183 82.6276 95.9428 82.6276 95.8674 82.6276Z" fill="url(#paint62_linear)"/>
<path d="M107.039 125.8C94.5086 128.911 81.7515 121.248 78.6566 108.653C75.5617 96.0575 83.1857 83.2346 95.7164 80.1238C95.8673 80.0479 96.0183 80.0479 96.2448 79.972L96.4712 79.8961L96.3957 80.1238C92.546 88.5459 93.6783 97.4991 99.2642 102.886C105.605 108.88 116.022 108.956 124.627 103.038L124.854 102.886V103.114C124.703 113.812 117.381 123.145 107.039 125.8ZM95.7164 80.2755C83.3367 83.3864 75.7126 96.0575 78.8076 108.501C81.9025 120.944 94.5086 128.608 106.888 125.497C117.079 122.917 124.325 113.812 124.476 103.266C115.796 109.184 105.379 109.032 98.9623 102.962C93.3008 97.5749 92.0931 88.6217 95.8673 80.1996C95.8673 80.2755 95.7919 80.2755 95.7164 80.2755Z" fill="url(#paint63_linear)"/>
<path d="M107.265 128.456C93.3001 131.719 79.2598 122.917 76.0139 108.804C72.768 94.7676 81.5243 80.6549 95.5647 77.3923C95.7157 77.3164 95.9421 77.3164 96.0931 77.2405L96.3951 77.1646L96.2441 77.3923C91.7904 86.649 92.8472 96.5886 99.0371 102.734C105.906 109.563 117.531 109.791 127.193 103.341L127.42 103.19V103.493C127.118 115.481 118.814 125.724 107.265 128.456ZM95.5647 77.6958C81.7508 80.8825 73.0699 94.8435 76.2403 108.729C79.4107 122.614 93.3001 131.339 107.114 128.152C118.512 125.497 126.665 115.557 127.042 103.797C117.305 110.17 105.68 109.867 98.7351 102.962C92.5453 96.8162 91.413 86.8766 95.7912 77.6199C95.7157 77.6199 95.6402 77.6958 95.5647 77.6958Z" fill="url(#paint64_linear)"/>
<path d="M107.416 131.339C91.7903 134.678 76.3912 124.586 73.0698 108.956C69.7484 93.2501 79.788 77.7716 95.3381 74.4331C95.5645 74.3573 95.7155 74.3573 95.942 74.2814L96.2439 74.2055L96.0929 74.509C90.9599 84.7521 91.9412 95.754 98.735 102.659C106.284 110.398 119.116 110.853 130.062 103.948L130.288 103.797V104.1C129.76 117.378 120.399 128.608 107.416 131.339ZM95.4891 74.7366C80.0145 77.9993 70.1258 93.326 73.4472 108.88C76.6931 124.435 91.9412 134.374 107.416 131.036C120.097 128.304 129.382 117.378 130.062 104.404C119.116 111.308 106.208 110.701 98.6595 102.962C91.8657 96.0575 90.8089 84.9797 95.8665 74.7366C95.64 74.7366 95.5645 74.7366 95.4891 74.7366Z" fill="url(#paint65_linear)"/>
<path d="M107.567 134.678C90.1299 138.092 73.221 126.635 69.8997 109.108C66.5028 91.5809 77.9012 74.5849 95.3384 71.2464C95.5648 71.1706 95.7913 71.1705 96.0178 71.0947L96.3952 71.0188L96.2442 71.3223C90.3563 82.5518 91.2622 94.8435 98.5843 102.659C106.812 111.384 121.079 112.219 133.308 104.631L133.61 104.48V104.783C132.704 119.579 122.06 131.794 107.567 134.678ZM95.4139 71.5499C78.2031 74.8884 66.9557 91.7326 70.2771 109.032C73.5985 126.332 90.3563 137.637 107.567 134.298C121.758 131.567 132.251 119.579 133.232 105.162C120.928 112.598 106.586 111.688 98.3578 102.886C90.9602 95.0711 89.9789 82.7794 95.7913 71.474C95.6403 71.474 95.4894 71.5499 95.4139 71.5499Z" fill="url(#paint66_linear)"/>
<path d="M107.719 138.244C88.3188 141.658 69.7493 128.608 66.3525 109.108C62.9556 89.6081 75.9392 70.9429 95.339 67.5285C95.5655 67.4527 95.8674 67.4527 96.0939 67.3768L96.4713 67.3009L96.2449 67.6803C89.4511 80.0479 90.206 93.7812 98.283 102.583C107.266 112.446 123.118 113.585 136.856 105.466L137.158 105.238V105.618C135.875 122.007 123.797 135.436 107.719 138.244ZM95.339 67.9079C76.1656 71.3223 63.2576 89.7598 66.6544 109.032C70.0513 128.304 88.3943 141.279 107.568 137.864C123.344 135.057 135.271 122.007 136.63 105.997C122.816 114.04 106.964 112.75 97.9055 102.81C89.8286 94.0088 88.9982 80.2755 95.641 67.832C95.641 67.9079 95.49 67.9079 95.339 67.9079Z" fill="url(#paint67_linear)"/>
<path d="M107.794 142.341C86.2051 145.755 65.824 130.884 62.3516 109.184C58.9548 87.4836 73.75 66.9974 95.3389 63.5072C95.6409 63.4313 95.9428 63.4313 96.1693 63.3554L96.6222 63.2796L96.3957 63.6589C88.6207 77.3164 89.2246 92.4914 97.9809 102.431C107.719 113.509 125.382 115.178 140.781 106.376L141.159 106.149L141.083 106.604C139.423 124.814 125.684 139.458 107.794 142.341ZM95.4144 63.9624C74.0519 67.3768 59.4077 87.6354 62.8045 109.108C66.2014 130.58 86.3561 145.3 107.719 141.886C125.307 139.078 138.819 124.814 140.63 107.059C125.156 115.709 107.492 113.964 97.679 102.81C88.9226 92.8707 88.1678 77.6199 95.8673 63.8866C95.7163 63.8866 95.5654 63.8866 95.4144 63.9624Z" fill="url(#paint68_linear)"/>
<path d="M107.794 146.818C83.7135 150.232 61.3698 133.312 57.9729 109.108C54.576 84.9039 71.4094 62.4449 95.4893 59.0306C95.7913 58.9547 96.0932 58.9547 96.4706 58.8788L96.999 58.8029L96.7726 59.2582C87.8653 74.2814 88.2427 91.2015 97.7539 102.355C108.397 114.874 127.948 117.075 145.234 107.59L145.612 107.363L145.536 107.818C143.272 128.001 127.722 144.01 107.794 146.818ZM95.5648 59.4858C71.7113 62.8243 55.1044 85.0556 58.4258 109.032C61.7472 133.008 83.8645 149.701 107.718 146.362C127.344 143.631 142.592 128.001 144.933 108.273C127.571 117.53 108.02 115.33 97.301 102.659C87.7143 91.4291 87.2614 74.509 96.0177 59.4099C95.8668 59.4858 95.7158 59.4858 95.5648 59.4858Z" fill="url(#paint69_linear)"/>
<path d="M107.643 151.825C80.8455 155.164 56.3126 135.892 52.9912 108.956C49.6698 82.0206 68.8432 57.3613 95.6407 54.0228C96.0181 53.947 96.3201 53.947 96.6975 53.8711L97.2259 53.7952L96.9239 54.2505C86.7334 70.7153 86.8088 89.5322 97.1504 102.127C108.7 116.24 130.364 119.048 149.764 108.88L150.217 108.653L150.141 109.184C147.424 131.567 129.911 149.094 107.643 151.825ZM95.7917 54.554C69.2961 57.8166 50.3492 82.1724 53.5951 108.88C56.841 135.512 81.0719 154.557 107.643 151.294C129.458 148.639 146.745 131.567 149.764 109.715C130.289 119.73 108.624 116.771 96.9239 102.583C86.5069 89.9116 86.2804 71.0947 96.3201 54.4781C96.0936 54.554 95.9426 54.554 95.7917 54.554Z" fill="url(#paint70_linear)"/>
<path d="M107.492 157.364C77.5992 160.551 50.8017 138.699 47.6313 108.653C44.4609 78.6062 66.2008 51.6707 96.0932 48.484C96.4706 48.4081 96.848 48.4081 97.301 48.4081L97.9049 48.3322L97.6029 48.8633C85.9781 66.9974 85.7516 87.863 96.999 102.127C109.605 118.061 133.61 121.551 155.35 110.625L155.878 110.398L155.802 111.005C152.028 135.664 132.251 154.709 107.492 157.364ZM96.1687 49.091C66.6537 52.2018 45.1403 78.9098 48.2352 108.577C51.3301 138.244 77.9011 159.868 107.416 156.757C131.722 154.178 151.198 135.588 154.972 111.384C133.081 122.082 109.077 118.441 96.3951 102.431C85.0723 88.1665 85.2232 67.225 96.6971 49.0151C96.5461 49.0151 96.3197 49.091 96.1687 49.091Z" fill="url(#paint71_linear)"/>
<path d="M107.114 163.51C73.9006 166.469 44.4612 141.658 41.5927 108.197C38.6488 74.8125 63.3326 45.2214 96.6219 42.3381C97.0748 42.2622 97.5277 42.2622 97.9051 42.2622L98.5845 42.1864L98.2071 42.7175C84.9216 62.5967 84.2422 85.8144 96.4709 101.824C110.134 119.73 136.705 124.131 161.087 112.446L161.691 112.143L161.615 112.75C157.086 140.292 134.667 161.082 107.114 163.51ZM96.6219 43.021C63.7856 45.9042 39.4036 75.116 42.2721 108.197C45.1406 141.203 74.2026 165.786 107.114 162.903C134.138 160.551 156.18 140.217 160.86 113.433C136.403 124.89 109.756 120.413 96.018 102.355C83.7138 86.2696 84.2422 63.0519 97.3767 43.021C97.0748 42.9451 96.8483 43.021 96.6219 43.021Z" fill="url(#paint72_linear)"/>
<path d="M106.662 170.339C69.6735 172.919 37.5166 144.845 34.8746 107.666C32.308 70.4876 60.2378 38.165 97.2258 35.5094C97.6788 35.5094 98.2072 35.4335 98.6601 35.4335H99.4149L98.962 36.0405C83.7894 57.8924 82.6571 83.614 95.8671 101.672C110.738 121.855 140.177 127.242 167.428 114.723L168.107 114.419L167.956 115.102C162.597 145.452 137.309 168.214 106.662 170.339ZM97.3013 36.2681C60.7662 38.8479 33.0629 70.867 35.6294 107.59C38.1959 144.39 70.0509 172.16 106.586 169.58C136.705 167.456 161.54 145.376 167.201 115.709C139.8 128.001 110.285 122.462 95.3387 102.127C81.9777 83.9934 83.0345 58.1959 97.9807 36.2681C97.7542 36.2681 97.5278 36.2681 97.3013 36.2681Z" fill="url(#paint73_linear)"/>
<path d="M105.982 177.926C64.8422 180.127 29.6659 148.183 27.4768 106.908C25.2877 65.5558 57.0672 30.1223 98.1315 27.9219C98.6599 27.9219 99.1883 27.846 99.7922 27.846H100.623L100.094 28.5289C82.8834 52.5053 80.9962 81.1101 95.414 101.369C111.568 124.055 144.102 130.656 174.674 117.302L175.429 116.999L175.278 117.758C168.635 151.37 140.102 176.105 105.982 177.926ZM98.207 28.7565C57.5201 30.881 26.1935 65.9352 28.3071 106.832C30.4207 147.728 65.2951 179.216 105.982 177.092C139.422 175.347 167.503 151.218 174.372 118.365C143.649 131.491 111.04 124.738 94.8101 101.9C80.3168 81.4895 81.9775 52.8847 98.9618 28.7565C98.7354 28.7565 98.4334 28.7565 98.207 28.7565Z" fill="url(#paint74_linear)"/>
<path d="M105.076 186.348C59.3318 187.942 20.834 151.825 19.2488 105.845C17.6636 59.8652 53.5194 21.1691 99.2638 19.5757C99.8677 19.5757 100.472 19.5757 101.075 19.4998H101.981L101.453 20.2586C81.8266 46.5871 79.26 78.3028 94.8856 101.141C112.323 126.711 148.481 134.602 182.676 120.337L183.506 120.034L183.355 120.869C175.202 158.123 143.046 184.983 105.076 186.348ZM99.3393 20.4862C54.1233 22.0796 18.5695 60.3204 20.1547 105.845C21.7399 151.294 59.7847 187.031 105.076 185.438C142.291 184.148 173.844 157.895 182.223 121.551C147.877 135.512 111.719 127.394 94.1307 101.672C78.4297 78.758 80.8452 46.9665 100.17 20.4862C99.8677 20.4862 99.6412 20.4862 99.3393 20.4862Z" fill="url(#paint75_linear)"/>
<path d="M103.944 195.681C53.0668 196.592 11.0213 155.695 10.1154 104.631C9.20959 53.4917 49.8964 11.2295 100.698 10.319C101.378 10.319 102.057 10.319 102.736 10.319H103.793L103.189 11.1536C80.9211 39.986 77.3733 75.1919 94.2821 100.838C113.229 129.594 153.161 139.078 191.432 123.903L192.338 123.524L192.112 124.51C182.299 165.635 146.065 194.922 103.944 195.681ZM100.698 11.3053C50.4248 12.2158 10.2664 54.0228 11.0967 104.555C12.0026 155.088 53.5952 195.529 103.869 194.619C145.235 193.86 180.864 165.407 190.753 125.193C152.331 139.989 112.323 130.277 93.3008 101.369C76.3165 75.5713 79.5624 40.2895 101.604 11.3053C101.378 11.3053 101.076 11.3053 100.698 11.3053Z" fill="url(#paint76_linear)"/>
<path d="M102.51 206C45.9709 206 0 159.792 0 103.038C0 46.2077 45.9709 0 102.51 0C103.265 0 104.019 0 104.774 0H105.907L105.152 0.910497C79.7885 32.4744 75.2593 71.5499 93.5269 100.382C113.984 132.629 158.143 144.01 201.019 127.849L202 127.47L201.698 128.532C190.149 174.208 149.311 206 102.51 206ZM102.51 1.13812C46.5747 1.13812 1.13229 46.8147 1.13229 103.038C1.13229 159.185 46.5747 204.938 102.434 204.938C148.405 204.938 188.488 173.981 200.339 129.442C157.312 145.148 113.153 133.615 92.5456 101.141C74.2025 72.081 78.5052 32.9296 103.567 1.13812C103.189 1.13812 102.812 1.13812 102.51 1.13812Z" fill="url(#paint77_linear)"/>
<defs>
<linearGradient id="paint0_linear" x1="101.008" y1="103.001" x2="101.008" y2="103.001" gradientUnits="userSpaceOnUse">
<stop stop-color="#6F45FF"/>
<stop offset="1" stop-color="#FF6365"/>
</linearGradient>
<linearGradient id="paint1_linear" x1="101.008" y1="103.001" x2="101.008" y2="103.001" gradientUnits="userSpaceOnUse">
<stop stop-color="#6F45FF"/>
<stop offset="1" stop-color="#FF6365"/>
</linearGradient>
<linearGradient id="paint2_linear" x1="101.008" y1="103.001" x2="101.008" y2="103.001" gradientUnits="userSpaceOnUse">
<stop stop-color="#6F45FF"/>
<stop offset="1" stop-color="#FF6365"/>
</linearGradient>
<linearGradient id="paint3_linear" x1="101.008" y1="103" x2="101.008" y2="103" gradientUnits="userSpaceOnUse">
<stop stop-color="#6F45FF"/>
<stop offset="1" stop-color="#FF6365"/>
</linearGradient>
<linearGradient id="paint4_linear" x1="101.008" y1="103" x2="101.008" y2="103" gradientUnits="userSpaceOnUse">
<stop stop-color="#6F45FF"/>
<stop offset="1" stop-color="#FF6365"/>
</linearGradient>
<linearGradient id="paint5_linear" x1="101.008" y1="103" x2="101.008" y2="103" gradientUnits="userSpaceOnUse">
<stop stop-color="#6F45FF"/>
<stop offset="1" stop-color="#FF6365"/>
</linearGradient>
<linearGradient id="paint6_linear" x1="101.008" y1="103" x2="101.008" y2="103" gradientUnits="userSpaceOnUse">
<stop stop-color="#6F45FF"/>
<stop offset="1" stop-color="#FF6365"/>
</linearGradient>
<linearGradient id="paint7_linear" x1="101.008" y1="103" x2="101.008" y2="103" gradientUnits="userSpaceOnUse">
<stop stop-color="#6F45FF"/>
<stop offset="1" stop-color="#FF6365"/>
</linearGradient>
<linearGradient id="paint8_linear" x1="101.008" y1="103" x2="101.008" y2="103" gradientUnits="userSpaceOnUse">
<stop stop-color="#6F45FF"/>
<stop offset="1" stop-color="#FF6365"/>
</linearGradient>
<linearGradient id="paint9_linear" x1="101.008" y1="103" x2="101.008" y2="103" gradientUnits="userSpaceOnUse">
<stop stop-color="#6F45FF"/>
<stop offset="1" stop-color="#FF6365"/>
</linearGradient>
<linearGradient id="paint10_linear" x1="101.009" y1="103" x2="101.009" y2="103" gradientUnits="userSpaceOnUse">
<stop stop-color="#6F45FF"/>
<stop offset="1" stop-color="#FF6365"/>
</linearGradient>
<linearGradient id="paint11_linear" x1="101.008" y1="103" x2="101.009" y2="103" gradientUnits="userSpaceOnUse">
<stop stop-color="#6F45FF"/>
<stop offset="1" stop-color="#FF6365"/>
</linearGradient>
<linearGradient id="paint12_linear" x1="101.009" y1="103" x2="101.009" y2="103" gradientUnits="userSpaceOnUse">
<stop stop-color="#6F45FF"/>
<stop offset="1" stop-color="#FF6365"/>
</linearGradient>
<linearGradient id="paint13_linear" x1="101.008" y1="103" x2="101.008" y2="103" gradientUnits="userSpaceOnUse">
<stop stop-color="#6F45FF"/>
<stop offset="1" stop-color="#FF6365"/>
</linearGradient>
<linearGradient id="paint14_linear" x1="101.008" y1="103" x2="101.008" y2="103" gradientUnits="userSpaceOnUse">
<stop stop-color="#6F45FF"/>
<stop offset="1" stop-color="#FF6365"/>
</linearGradient>
<linearGradient id="paint15_linear" x1="101.007" y1="103" x2="101.008" y2="103" gradientUnits="userSpaceOnUse">
<stop stop-color="#6F45FF"/>
<stop offset="1" stop-color="#FF6365"/>
</linearGradient>
<linearGradient id="paint16_linear" x1="101.007" y1="103" x2="101.008" y2="103" gradientUnits="userSpaceOnUse">
<stop stop-color="#6F45FF"/>
<stop offset="1" stop-color="#FF6365"/>
</linearGradient>
<linearGradient id="paint17_linear" x1="101.007" y1="103" x2="101.008" y2="103" gradientUnits="userSpaceOnUse">
<stop stop-color="#6F45FF"/>
<stop offset="1" stop-color="#FF6365"/>
</linearGradient>
<linearGradient id="paint18_linear" x1="101.008" y1="103" x2="101.008" y2="103" gradientUnits="userSpaceOnUse">
<stop stop-color="#6F45FF"/>
<stop offset="1" stop-color="#FF6365"/>
</linearGradient>
<linearGradient id="paint19_linear" x1="101.007" y1="103.001" x2="101.008" y2="103" gradientUnits="userSpaceOnUse">
<stop stop-color="#6F45FF"/>
<stop offset="1" stop-color="#FF6365"/>
</linearGradient>
<linearGradient id="paint20_linear" x1="101.007" y1="103.001" x2="101.008" y2="103" gradientUnits="userSpaceOnUse">
<stop stop-color="#6F45FF"/>
<stop offset="1" stop-color="#FF6365"/>
</linearGradient>
<linearGradient id="paint21_linear" x1="101.007" y1="103.001" x2="101.008" y2="103" gradientUnits="userSpaceOnUse">
<stop stop-color="#6F45FF"/>
<stop offset="1" stop-color="#FF6365"/>
</linearGradient>
<linearGradient id="paint22_linear" x1="101.007" y1="103.001" x2="101.008" y2="102.999" gradientUnits="userSpaceOnUse">
<stop stop-color="#6F45FF"/>
<stop offset="1" stop-color="#FF6365"/>
</linearGradient>
<linearGradient id="paint23_linear" x1="101.007" y1="103.001" x2="101.009" y2="102.999" gradientUnits="userSpaceOnUse">
<stop stop-color="#6F45FF"/>
<stop offset="1" stop-color="#FF6365"/>
</linearGradient>
<linearGradient id="paint24_linear" x1="101.008" y1="103.001" x2="101.01" y2="102.999" gradientUnits="userSpaceOnUse">
<stop stop-color="#6F45FF"/>
<stop offset="1" stop-color="#FF6365"/>
</linearGradient>
<linearGradient id="paint25_linear" x1="101.008" y1="103.002" x2="101.01" y2="102.999" gradientUnits="userSpaceOnUse">
<stop stop-color="#6F45FF"/>
<stop offset="1" stop-color="#FF6365"/>
</linearGradient>
<linearGradient id="paint26_linear" x1="101.007" y1="103.002" x2="101.01" y2="102.999" gradientUnits="userSpaceOnUse">
<stop stop-color="#6F45FF"/>
<stop offset="1" stop-color="#FF6365"/>
</linearGradient>
<linearGradient id="paint27_linear" x1="101.007" y1="103.002" x2="101.01" y2="102.998" gradientUnits="userSpaceOnUse">
<stop stop-color="#6F45FF"/>
<stop offset="1" stop-color="#FF6365"/>
</linearGradient>
<linearGradient id="paint28_linear" x1="101.006" y1="103.003" x2="101.01" y2="102.998" gradientUnits="userSpaceOnUse">
<stop stop-color="#6F45FF"/>
<stop offset="1" stop-color="#FF6365"/>
</linearGradient>
<linearGradient id="paint29_linear" x1="101.006" y1="103.004" x2="101.011" y2="102.997" gradientUnits="userSpaceOnUse">
<stop stop-color="#6F45FF"/>
<stop offset="1" stop-color="#FF6365"/>
</linearGradient>
<linearGradient id="paint30_linear" x1="101.005" y1="103.004" x2="101.012" y2="102.997" gradientUnits="userSpaceOnUse">
<stop stop-color="#6F45FF"/>
<stop offset="1" stop-color="#FF6365"/>
</linearGradient>
<linearGradient id="paint31_linear" x1="101.004" y1="103.005" x2="101.013" y2="102.996" gradientUnits="userSpaceOnUse">
<stop stop-color="#6F45FF"/>
<stop offset="1" stop-color="#FF6365"/>
</linearGradient>
<linearGradient id="paint32_linear" x1="101.003" y1="103.006" x2="101.015" y2="102.995" gradientUnits="userSpaceOnUse">
<stop stop-color="#6F45FF"/>
<stop offset="1" stop-color="#FF6365"/>
</linearGradient>
<linearGradient id="paint33_linear" x1="101.002" y1="103.008" x2="101.016" y2="102.994" gradientUnits="userSpaceOnUse">
<stop stop-color="#6F45FF"/>
<stop offset="1" stop-color="#FF6365"/>
</linearGradient>
<linearGradient id="paint34_linear" x1="100.212" y1="103.746" x2="101.811" y2="102.262" gradientUnits="userSpaceOnUse">
<stop stop-color="#6F45FF"/>
<stop offset="1" stop-color="#FF6365"/>
</linearGradient>
<linearGradient id="paint35_linear" x1="100.109" y1="103.813" x2="101.915" y2="102.196" gradientUnits="userSpaceOnUse">
<stop stop-color="#6F45FF"/>
<stop offset="1" stop-color="#FF6365"/>
</linearGradient>
<linearGradient id="paint36_linear" x1="99.9936" y1="103.886" x2="102.031" y2="102.124" gradientUnits="userSpaceOnUse">
<stop stop-color="#6F45FF"/>
<stop offset="1" stop-color="#FF6365"/>
</linearGradient>
<linearGradient id="paint37_linear" x1="99.8646" y1="103.965" x2="102.162" y2="102.047" gradientUnits="userSpaceOnUse">
<stop stop-color="#6F45FF"/>
<stop offset="1" stop-color="#FF6365"/>
</linearGradient>
<linearGradient id="paint38_linear" x1="99.7192" y1="104.049" x2="102.308" y2="101.964" gradientUnits="userSpaceOnUse">
<stop stop-color="#6F45FF"/>
<stop offset="1" stop-color="#FF6365"/>
</linearGradient>
<linearGradient id="paint39_linear" x1="99.5553" y1="104.141" x2="102.471" y2="101.874" gradientUnits="userSpaceOnUse">
<stop stop-color="#6F45FF"/>
<stop offset="1" stop-color="#FF6365"/>
</linearGradient>
<linearGradient id="paint40_linear" x1="99.3722" y1="104.239" x2="102.656" y2="101.777" gradientUnits="userSpaceOnUse">
<stop stop-color="#6F45FF"/>
<stop offset="1" stop-color="#FF6365"/>
</linearGradient>
<linearGradient id="paint41_linear" x1="99.1666" y1="104.345" x2="102.862" y2="101.674" gradientUnits="userSpaceOnUse">
<stop stop-color="#6F45FF"/>
<stop offset="1" stop-color="#FF6365"/>
</linearGradient>
<linearGradient id="paint42_linear" x1="98.937" y1="104.458" x2="103.093" y2="101.562" gradientUnits="userSpaceOnUse">
<stop stop-color="#6F45FF"/>
<stop offset="1" stop-color="#FF6365"/>
</linearGradient>
<linearGradient id="paint43_linear" x1="98.6794" y1="104.579" x2="103.352" y2="101.443" gradientUnits="userSpaceOnUse">
<stop stop-color="#6F45FF"/>
<stop offset="1" stop-color="#FF6365"/>
</linearGradient>
<linearGradient id="paint44_linear" x1="98.3904" y1="104.709" x2="103.642" y2="101.316" gradientUnits="userSpaceOnUse">
<stop stop-color="#6F45FF"/>
<stop offset="1" stop-color="#FF6365"/>
</linearGradient>
<linearGradient id="paint45_linear" x1="98.0666" y1="104.847" x2="103.966" y2="101.18" gradientUnits="userSpaceOnUse">
<stop stop-color="#6F45FF"/>
<stop offset="1" stop-color="#FF6365"/>
</linearGradient>
<linearGradient id="paint46_linear" x1="97.7041" y1="104.995" x2="104.329" y2="101.035" gradientUnits="userSpaceOnUse">
<stop stop-color="#6F45FF"/>
<stop offset="1" stop-color="#FF6365"/>
</linearGradient>
<linearGradient id="paint47_linear" x1="97.3002" y1="105.152" x2="104.736" y2="100.881" gradientUnits="userSpaceOnUse">
<stop stop-color="#6F45FF"/>
<stop offset="1" stop-color="#FF6365"/>
</linearGradient>
<linearGradient id="paint48_linear" x1="96.8471" y1="105.319" x2="105.189" y2="100.718" gradientUnits="userSpaceOnUse">
<stop stop-color="#6F45FF"/>
<stop offset="1" stop-color="#FF6365"/>
</linearGradient>
<linearGradient id="paint49_linear" x1="96.3403" y1="105.495" x2="105.696" y2="100.545" gradientUnits="userSpaceOnUse">
<stop stop-color="#6F45FF"/>
<stop offset="1" stop-color="#FF6365"/>
</linearGradient>
<linearGradient id="paint50_linear" x1="95.7746" y1="105.68" x2="106.263" y2="100.363" gradientUnits="userSpaceOnUse">
<stop stop-color="#6F45FF"/>
<stop offset="1" stop-color="#FF6365"/>
</linearGradient>
<linearGradient id="paint51_linear" x1="95.1425" y1="105.876" x2="106.897" y2="100.172" gradientUnits="userSpaceOnUse">
<stop stop-color="#6F45FF"/>
<stop offset="1" stop-color="#FF6365"/>
</linearGradient>
<linearGradient id="paint52_linear" x1="94.4357" y1="106.08" x2="107.604" y2="99.9716" gradientUnits="userSpaceOnUse">
<stop stop-color="#6F45FF"/>
<stop offset="1" stop-color="#FF6365"/>
</linearGradient>
<linearGradient id="paint53_linear" x1="93.6471" y1="106.294" x2="108.393" y2="99.7624" gradientUnits="userSpaceOnUse">
<stop stop-color="#6F45FF"/>
<stop offset="1" stop-color="#FF6365"/>
</linearGradient>
<linearGradient id="paint54_linear" x1="92.7677" y1="106.516" x2="109.275" y2="99.5452" gradientUnits="userSpaceOnUse">
<stop stop-color="#6F45FF"/>
<stop offset="1" stop-color="#FF6365"/>
</linearGradient>
<linearGradient id="paint55_linear" x1="91.7857" y1="106.746" x2="110.258" y2="99.3207" gradientUnits="userSpaceOnUse">
<stop stop-color="#6F45FF"/>
<stop offset="1" stop-color="#FF6365"/>
</linearGradient>
<linearGradient id="paint56_linear" x1="90.6898" y1="106.986" x2="111.363" y2="99.095" gradientUnits="userSpaceOnUse">
<stop stop-color="#6F45FF"/>
<stop offset="1" stop-color="#FF6365"/>
</linearGradient>
<linearGradient id="paint57_linear" x1="89.4679" y1="107.217" x2="112.566" y2="98.8501" gradientUnits="userSpaceOnUse">
<stop stop-color="#6F45FF"/>
<stop offset="1" stop-color="#FF6365"/>
</linearGradient>
<linearGradient id="paint58_linear" x1="88.1067" y1="107.463" x2="113.932" y2="98.614" gradientUnits="userSpaceOnUse">
<stop stop-color="#6F45FF"/>
<stop offset="1" stop-color="#FF6365"/>
</linearGradient>
<linearGradient id="paint59_linear" x1="86.5892" y1="107.704" x2="115.445" y2="98.3733" gradientUnits="userSpaceOnUse">
<stop stop-color="#6F45FF"/>
<stop offset="1" stop-color="#FF6365"/>
</linearGradient>
<linearGradient id="paint60_linear" x1="84.8984" y1="107.952" x2="117.148" y2="98.1439" gradientUnits="userSpaceOnUse">
<stop stop-color="#6F45FF"/>
<stop offset="1" stop-color="#FF6365"/>
</linearGradient>
<linearGradient id="paint61_linear" x1="83.0158" y1="108.183" x2="119.023" y2="97.91" gradientUnits="userSpaceOnUse">
<stop stop-color="#6F45FF"/>
<stop offset="1" stop-color="#FF6365"/>
</linearGradient>
<linearGradient id="paint62_linear" x1="80.9204" y1="108.413" x2="121.129" y2="97.6956" gradientUnits="userSpaceOnUse">
<stop stop-color="#6F45FF"/>
<stop offset="1" stop-color="#FF6365"/>
</linearGradient>
<linearGradient id="paint63_linear" x1="78.5873" y1="108.622" x2="123.462" y2="97.4922" gradientUnits="userSpaceOnUse">
<stop stop-color="#6F45FF"/>
<stop offset="1" stop-color="#FF6365"/>
</linearGradient>
<linearGradient id="paint64_linear" x1="75.9908" y1="108.808" x2="126.056" y2="97.3105" gradientUnits="userSpaceOnUse">
<stop stop-color="#6F45FF"/>
<stop offset="1" stop-color="#FF6365"/>
</linearGradient>
<linearGradient id="paint65_linear" x1="73.1032" y1="108.966" x2="128.945" y2="97.1594" gradientUnits="userSpaceOnUse">
<stop stop-color="#6F45FF"/>
<stop offset="1" stop-color="#FF6365"/>
</linearGradient>
<linearGradient id="paint66_linear" x1="69.8927" y1="109.075" x2="132.137" y2="97.036" gradientUnits="userSpaceOnUse">
<stop stop-color="#6F45FF"/>
<stop offset="1" stop-color="#FF6365"/>
</linearGradient>
<linearGradient id="paint67_linear" x1="66.3242" y1="109.149" x2="135.718" y2="96.9767" gradientUnits="userSpaceOnUse">
<stop stop-color="#6F45FF"/>
<stop offset="1" stop-color="#FF6365"/>
</linearGradient>
<linearGradient id="paint68_linear" x1="62.3576" y1="109.158" x2="139.688" y2="96.9748" gradientUnits="userSpaceOnUse">
<stop stop-color="#6F45FF"/>
<stop offset="1" stop-color="#FF6365"/>
</linearGradient>
<linearGradient id="paint69_linear" x1="57.9503" y1="109.085" x2="144.087" y2="97.0419" gradientUnits="userSpaceOnUse">
<stop stop-color="#6F45FF"/>
<stop offset="1" stop-color="#FF6365"/>
</linearGradient>
<linearGradient id="paint70_linear" x1="53.0565" y1="108.915" x2="148.968" y2="97.198" gradientUnits="userSpaceOnUse">
<stop stop-color="#6F45FF"/>
<stop offset="1" stop-color="#FF6365"/>
</linearGradient>
<linearGradient id="paint71_linear" x1="47.622" y1="108.637" x2="154.399" y2="97.4711" gradientUnits="userSpaceOnUse">
<stop stop-color="#6F45FF"/>
<stop offset="1" stop-color="#FF6365"/>
</linearGradient>
<linearGradient id="paint72_linear" x1="41.5908" y1="108.221" x2="160.426" y2="97.8766" gradientUnits="userSpaceOnUse">
<stop stop-color="#6F45FF"/>
<stop offset="1" stop-color="#FF6365"/>
</linearGradient>
<linearGradient id="paint73_linear" x1="34.8982" y1="107.647" x2="167.124" y2="98.4478" gradientUnits="userSpaceOnUse">
<stop stop-color="#6F45FF"/>
<stop offset="1" stop-color="#FF6365"/>
</linearGradient>
<linearGradient id="paint74_linear" x1="27.474" y1="106.874" x2="174.546" y2="99.2054" gradientUnits="userSpaceOnUse">
<stop stop-color="#6F45FF"/>
<stop offset="1" stop-color="#FF6365"/>
</linearGradient>
<linearGradient id="paint75_linear" x1="19.2413" y1="105.869" x2="182.775" y2="100.188" gradientUnits="userSpaceOnUse">
<stop stop-color="#6F45FF"/>
<stop offset="1" stop-color="#FF6365"/>
</linearGradient>
<linearGradient id="paint76_linear" x1="10.1149" y1="104.599" x2="191.91" y2="101.442" gradientUnits="userSpaceOnUse">
<stop stop-color="#6F45FF"/>
<stop offset="1" stop-color="#FF6365"/>
</linearGradient>
<linearGradient id="paint77_linear" x1="0" y1="103" x2="202.016" y2="103" gradientUnits="userSpaceOnUse">
<stop stop-color="#6F45FF"/>
<stop offset="1" stop-color="#FF6365"/>
</linearGradient>
</defs>
</svg>
