<svg width="210" height="207" viewBox="0 0 210 207" fill="none" xmlns="http://www.w3.org/2000/svg">
<path d="M208.316 103.577H208.239H208.316ZM208.316 103.577L208.239 103.5L208.316 103.577Z" fill="url(#paint0_linear)"/>
<path d="M208.316 103.577H208.239H208.316ZM208.316 103.577L208.239 103.5L208.316 103.577L208.239 103.5H208.316V103.577Z" fill="url(#paint1_linear)"/>
<path d="M208.316 103.577L208.239 103.654L208.316 103.577ZM208.316 103.577V103.5V103.577Z" fill="url(#paint2_linear)"/>
<path d="M208.316 103.577L208.239 103.654L208.316 103.577ZM208.316 103.577V103.5V103.577Z" fill="url(#paint3_linear)"/>
<path d="M208.316 103.576L208.239 103.653L208.316 103.576ZM208.316 103.653V103.576V103.653Z" fill="url(#paint4_linear)"/>
<path d="M208.316 103.576L208.239 103.653L208.316 103.576ZM208.316 103.653V103.576V103.653Z" fill="url(#paint5_linear)"/>
<path d="M208.316 103.576L208.239 103.653L208.316 103.576ZM208.316 103.653V103.576V103.653Z" fill="url(#paint6_linear)"/>
<path d="M208.315 103.653L208.239 103.729H208.163V103.653V103.576H208.239H208.315V103.653ZM208.315 103.653V103.576H208.239H208.163V103.653V103.729L208.315 103.653Z" fill="url(#paint7_linear)"/>
<path d="M208.315 103.652L208.239 103.728H208.163H208.086V103.652V103.576H208.163H208.239H208.315V103.652ZM208.315 103.652V103.576V103.5H208.239H208.163H208.086V103.576V103.652H208.163H208.239H208.315Z" fill="url(#paint8_linear)"/>
<path d="M208.315 103.652L208.239 103.728H208.163H208.086H208.01V103.652V103.576V103.5V103.424H208.086H208.163H208.239L208.315 103.652ZM208.315 103.728V103.652V103.576H208.239H208.163H208.086V103.652V103.728V103.804V103.881H208.163H208.239L208.315 103.728Z" fill="url(#paint9_linear)"/>
<path d="M208.315 103.652L208.239 103.728H208.163H208.086H208.01V103.652V103.576V103.5V103.424H208.086H208.163H208.239L208.315 103.5V103.652ZM208.315 103.728V103.652V103.576L208.239 103.5H208.163H208.086H208.01V103.576V103.652V103.728V103.804H208.086H208.163L208.315 103.728Z" fill="url(#paint10_linear)"/>
<path d="M208.315 103.652L208.239 103.728H208.162H208.086H208.01V103.652V103.576V103.5L208.086 103.424H208.162H208.239H208.315L208.391 103.5L208.315 103.652ZM208.315 103.728V103.576V103.5L208.239 103.424H208.162H208.086H208.01L207.934 103.5V103.576V103.652V103.728H208.01H208.086H208.315Z" fill="url(#paint11_linear)"/>
<path d="M208.315 103.728L208.239 103.804H208.163H208.086L208.01 103.728V103.652V103.576V103.5L208.086 103.424H208.163H208.239H208.315L208.391 103.5L208.315 103.728ZM208.315 103.728L208.391 103.576V103.5L208.315 103.424H208.239H208.163H208.086L208.01 103.5V103.576V103.652V103.728L208.086 103.804H208.163L208.315 103.728Z" fill="url(#paint12_linear)"/>
<path d="M208.315 103.728L208.239 103.804H208.162H208.086L208.01 103.728L207.934 103.652V103.576V103.5L208.01 103.424H208.086H208.162H208.239L208.315 103.5V103.576V103.728ZM208.315 103.804L208.391 103.652V103.576L208.315 103.5H208.239H208.162H208.086L208.01 103.576V103.652V103.728L208.086 103.804L208.162 103.881H208.239L208.315 103.804Z" fill="url(#paint13_linear)"/>
<path d="M208.315 103.728L208.162 103.881H208.086H208.01L207.934 103.804L207.858 103.728V103.652V103.576L207.934 103.5H208.01H208.086H208.162L208.239 103.576V103.652L208.315 103.728ZM208.315 103.804L208.391 103.652V103.576L208.315 103.5H208.239H208.162H208.086L208.01 103.576V103.652V103.728L208.086 103.804L208.162 103.881H208.239L208.315 103.804Z" fill="url(#paint14_linear)"/>
<path d="M208.315 103.804L208.239 103.881L208.162 103.957H208.086H208.01L207.934 103.881L207.858 103.804V103.728V103.652L207.934 103.576H208.01H208.086L208.162 103.652L208.239 103.728V103.804H208.315ZM208.315 103.881L208.391 103.804V103.728V103.652L208.315 103.576L208.239 103.5H208.162H208.086L208.01 103.576V103.652V103.728L208.086 103.804L208.162 103.881H208.239H208.315Z" fill="url(#paint15_linear)"/>
<path d="M208.391 103.804L208.315 103.881L208.239 103.957H208.162H208.086L208.01 103.881L207.934 103.804V103.728L208.01 103.652L208.086 103.576L208.162 103.5H208.239L208.315 103.576L208.391 103.652V103.728V103.804ZM208.315 103.881L208.391 103.804V103.728V103.652L208.315 103.576L208.239 103.5H208.162H208.086L208.01 103.576V103.652V103.728L208.086 103.804L208.162 103.881H208.239H208.315Z" fill="url(#paint16_linear)"/>
<path d="M208.391 103.881L208.315 103.957L208.239 104.033H208.086H208.01L207.934 103.957L207.858 103.881V103.728L207.934 103.652L208.01 103.576L208.086 103.5H208.239L208.315 103.576L208.391 103.652V103.804V103.881ZM208.315 103.957L208.391 103.881V103.728V103.652L208.315 103.576L208.239 103.5H208.086L208.01 103.576L207.934 103.652L207.858 103.728V103.881L207.934 103.957L208.01 104.033H208.086H208.239L208.315 103.957Z" fill="url(#paint17_linear)"/>
<path d="M208.391 103.88L208.315 103.957L208.239 104.033H208.086L207.934 103.957L207.858 103.88L207.782 103.728V103.576L207.858 103.424L207.934 103.348L208.086 103.272H208.239L208.391 103.348L208.467 103.424V103.576L208.391 103.88ZM208.315 104.033L208.391 103.957V103.804V103.652L208.315 103.576L208.239 103.5H208.086L207.934 103.576L207.858 103.652L207.782 103.804V103.957L207.858 104.109L207.934 104.185L208.086 104.261H208.239L208.315 104.033Z" fill="url(#paint18_linear)"/>
<path d="M208.391 103.957L208.315 104.109L208.162 104.185H208.01L207.858 104.109L207.782 104.033L207.706 103.88V103.728L207.782 103.576L207.858 103.5L208.01 103.424H208.162L208.315 103.5L208.391 103.652V103.804V103.957ZM208.315 104.033L208.391 103.88V103.728V103.576L208.315 103.424L208.162 103.348H208.01L207.858 103.5L207.782 103.576L207.706 103.728V103.88L207.782 104.033L207.858 104.109L208.01 104.185H208.162L208.315 104.033Z" fill="url(#paint19_linear)"/>
<path d="M208.391 103.957L208.315 104.109L208.162 104.185H208.01L207.858 104.109L207.706 104.033L207.629 103.881V103.728L207.706 103.576L207.858 103.5L208.01 103.424H208.162L208.315 103.5L208.391 103.652V103.804V103.957ZM208.238 104.109L208.315 103.957V103.804V103.652L208.238 103.5L208.086 103.424H207.934L207.858 103.5L207.706 103.576L207.629 103.728V103.881L207.706 104.033L207.858 104.109L208.01 104.185H208.162L208.238 104.109Z" fill="url(#paint20_linear)"/>
<path d="M208.391 104.033L208.315 104.185L208.162 104.261H208.01L207.858 104.185L207.706 104.033L207.629 103.881V103.728L207.706 103.576L207.858 103.424L208.01 103.348H208.162L208.315 103.424L208.391 103.576V103.728V104.033ZM208.238 104.185L208.315 104.033L208.391 103.881V103.728L208.315 103.576L208.162 103.5H208.01L207.858 103.576L207.706 103.728L207.629 103.881V104.033L207.706 104.185L207.858 104.337L208.01 104.413H208.162L208.238 104.185Z" fill="url(#paint21_linear)"/>
<path d="M208.391 104.109L208.238 104.261L208.086 104.337H207.858L207.705 104.261L207.553 104.109L207.477 103.957V103.728L207.553 103.576L207.705 103.424L207.934 103.348H208.162L208.315 103.424L208.391 103.576V103.804V104.109ZM208.238 104.261L208.391 104.109L208.467 103.881V103.652L208.391 103.5L208.238 103.424H208.01L207.782 103.5L207.629 103.652L207.553 103.804V104.033L207.629 104.185L207.782 104.337L207.934 104.413H208.162L208.238 104.261Z" fill="url(#paint22_linear)"/>
<path d="M208.391 104.185L208.239 104.337L208.01 104.413H207.782L207.554 104.337L207.401 104.185L207.325 103.957V103.728L207.401 103.5L207.554 103.348L207.782 103.272L208.01 103.348L208.163 103.5L208.315 103.652V103.88L208.391 104.185ZM208.239 104.337L208.391 104.185L208.467 103.957V103.728L208.315 103.576L208.163 103.424L207.934 103.348L207.706 103.424L207.554 103.576L207.477 103.804V104.033L207.554 104.261L207.706 104.413L207.934 104.489H208.163L208.239 104.337Z" fill="url(#paint23_linear)"/>
<path d="M208.391 104.261L208.239 104.413L208.01 104.489H207.782L207.554 104.413L207.401 104.261L207.325 104.033V103.804L207.477 103.576L207.706 103.424L207.934 103.348L208.163 103.424L208.391 103.576L208.543 103.804V104.033L208.391 104.261ZM208.239 104.413L208.391 104.261L208.467 104.033V103.804L208.315 103.576L208.087 103.424L207.858 103.348L207.63 103.424L207.401 103.576L207.249 103.804V104.033L207.325 104.261L207.477 104.413L207.706 104.489H207.934L208.239 104.413Z" fill="url(#paint24_linear)"/>
<path d="M208.391 104.337L208.239 104.565L208.01 104.642H207.706L207.477 104.565L207.325 104.337L207.249 104.109V103.804L207.401 103.576L207.63 103.424L207.934 103.348L208.239 103.424L208.467 103.576L208.619 103.804V104.109L208.391 104.337ZM208.239 104.565L208.391 104.337L208.467 104.109V103.804L208.315 103.576L208.086 103.424L207.782 103.348L207.477 103.424L207.249 103.576L207.097 103.804V104.109L207.173 104.337L207.325 104.565L207.554 104.642H207.858L208.239 104.565Z" fill="url(#paint25_linear)"/>
<path d="M208.391 104.413L208.163 104.642L207.858 104.794H207.553L207.249 104.642L207.02 104.413L206.944 104.109V103.804L207.097 103.576L207.325 103.424L207.63 103.348L207.934 103.424L208.163 103.576L208.315 103.88V104.185L208.391 104.413ZM208.163 104.642L208.391 104.413L208.467 104.109V103.804L208.315 103.576L208.086 103.424L207.782 103.348L207.477 103.424L207.249 103.576L207.097 103.804V104.109L207.173 104.413L207.401 104.642L207.706 104.794H208.01L208.163 104.642Z" fill="url(#paint26_linear)"/>
<path d="M208.391 104.565L208.163 104.794L207.858 104.946H207.553L207.249 104.794L207.02 104.565L206.944 104.261L207.02 103.957L207.173 103.652L207.477 103.424L207.782 103.348L208.086 103.424L208.391 103.652L208.543 103.957V104.261L208.391 104.565ZM208.163 104.794L208.391 104.565L208.543 104.261V103.957L208.391 103.652L208.163 103.424L207.858 103.348L207.553 103.424L207.249 103.576L207.097 103.881L207.02 104.185L207.097 104.489L207.325 104.718L207.63 104.87H207.934L208.163 104.794Z" fill="url(#paint27_linear)"/>
<path d="M208.391 104.642L208.086 104.946L207.706 105.098H207.325L207.02 104.946L206.792 104.642L206.716 104.261L206.792 103.88L207.02 103.576L207.325 103.348L207.706 103.272L208.086 103.348L208.391 103.576L208.543 103.88V104.261L208.391 104.642ZM208.086 104.946L208.315 104.718L208.467 104.337V103.957L208.315 103.652L208.01 103.424L207.629 103.348L207.249 103.424L206.944 103.652L206.716 103.957L206.64 104.337L206.716 104.718L206.944 105.022L207.249 105.174H207.629L208.086 104.946Z" fill="url(#paint28_linear)"/>
<path d="M208.391 104.794L208.086 105.098L207.706 105.25H207.249L206.868 105.022L206.64 104.718L206.563 104.337L206.64 103.957L206.868 103.576L207.249 103.348L207.629 103.272L208.01 103.424L208.315 103.728L208.467 104.109V104.565L208.391 104.794ZM208.086 105.098L208.391 104.794L208.543 104.413V104.033L208.391 103.652L208.086 103.348L207.706 103.196L207.325 103.272L206.944 103.5L206.716 103.881L206.64 104.261L206.716 104.642L206.944 104.946L207.325 105.174H207.706L208.086 105.098Z" fill="url(#paint29_linear)"/>
<path d="M208.391 104.946L208.01 105.25L207.553 105.403L207.096 105.326L206.716 105.098L206.411 104.718L206.335 104.261L206.411 103.804L206.716 103.424L207.096 103.196L207.553 103.12L208.01 103.272L208.391 103.576L208.619 104.033V104.489L208.391 104.946ZM208.01 105.25L208.315 104.946L208.467 104.489V104.033L208.238 103.576L207.858 103.272L207.401 103.12L206.944 103.196L206.563 103.424L206.335 103.804L206.259 104.261L206.335 104.718L206.639 105.098L207.02 105.326L207.477 105.403L208.01 105.25Z" fill="url(#paint30_linear)"/>
<path d="M208.315 105.098L207.934 105.479L207.401 105.631L206.868 105.555L206.411 105.326L206.107 104.87L206.031 104.337L206.107 103.804L206.411 103.348L206.868 103.12L207.401 103.043L207.934 103.196L208.315 103.576L208.543 104.033V104.565L208.315 105.098ZM207.934 105.403L208.315 105.022L208.543 104.565V104.033L208.315 103.576L207.934 103.196L207.477 103.043L206.944 103.12L206.488 103.348L206.183 103.728L206.107 104.261L206.183 104.794L206.488 105.174L206.944 105.403L207.477 105.479L207.934 105.403Z" fill="url(#paint31_linear)"/>
<path d="M208.315 105.25L207.858 105.631L207.325 105.783L206.716 105.707L206.259 105.403L205.955 104.946L205.878 104.413L206.031 103.881L206.411 103.424L206.944 103.12L207.553 103.043L208.086 103.196L208.543 103.576L208.772 104.109V104.718L208.315 105.25ZM207.858 105.631L208.315 105.25L208.543 104.718V104.185L208.315 103.652L207.934 103.272L207.401 103.12L206.868 103.196L206.335 103.5L205.955 103.957L205.802 104.489L205.878 105.022L206.183 105.479L206.64 105.783L207.173 105.859L207.858 105.631Z" fill="url(#paint32_linear)"/>
<path d="M208.315 105.479L207.858 105.859L207.249 106.011L206.64 105.935L206.107 105.631L205.726 105.098L205.65 104.489L205.802 103.881L206.183 103.348L206.716 103.043L207.325 102.967L207.934 103.196L208.391 103.652L208.619 104.261V104.87L208.315 105.479ZM207.782 105.859L208.239 105.479L208.543 104.946V104.337L208.315 103.728L207.858 103.272L207.249 103.043L206.64 103.119L206.107 103.424L205.726 103.957L205.574 104.565L205.65 105.174L206.031 105.707L206.564 106.011L207.173 106.088L207.782 105.859Z" fill="url(#paint33_linear)"/>
<path d="M208.238 105.707L207.705 106.164L207.02 106.316L206.335 106.24L205.726 105.859L205.345 105.25L205.269 104.565L205.421 103.881L205.878 103.348L206.487 103.043H207.172L207.858 103.272L208.391 103.804L208.619 104.489V105.174L208.238 105.707ZM207.705 106.087L208.238 105.631L208.543 105.022V104.337L208.315 103.652L207.782 103.119L207.096 102.891H206.411L205.802 103.196L205.345 103.728L205.193 104.413L205.269 105.098L205.65 105.707L206.259 106.087L206.944 106.164L207.705 106.087Z" fill="url(#paint34_linear)"/>
<path d="M208.239 105.935L207.63 106.392L206.868 106.62L206.107 106.468L205.422 106.011L204.965 105.326L204.889 104.565L205.117 103.804L205.65 103.196L206.335 102.815H207.097L207.858 103.119L208.391 103.652L208.696 104.413L208.619 105.174L208.239 105.935ZM207.63 106.392L208.239 105.935L208.619 105.25L208.696 104.489L208.391 103.728L207.858 103.196L207.097 102.891H206.335L205.65 103.272L205.117 103.881L204.889 104.642L204.965 105.403L205.346 106.087L206.031 106.544L206.792 106.696L207.63 106.392Z" fill="url(#paint35_linear)"/>
<path d="M208.162 106.164L207.477 106.696L206.64 106.925L205.802 106.772L205.117 106.24L204.66 105.479L204.584 104.642L204.812 103.804L205.421 103.119L206.183 102.739H207.097L207.934 103.119L208.543 103.728L208.848 104.565L208.772 105.479L208.162 106.164ZM207.477 106.696L208.162 106.164L208.619 105.403L208.695 104.565L208.391 103.728L207.782 103.119L206.944 102.815H206.107L205.345 103.196L204.812 103.88L204.584 104.718L204.66 105.555L205.117 106.316L205.802 106.849L206.64 107.001L207.477 106.696Z" fill="url(#paint36_linear)"/>
<path d="M208.162 106.468L207.401 107.077L206.411 107.305L205.421 107.077L204.66 106.468L204.203 105.631L204.127 104.642L204.431 103.728L205.117 102.967L206.03 102.587H207.02L207.934 102.967L208.619 103.728L208.924 104.642L208.847 105.631L208.162 106.468ZM207.325 107.001L208.086 106.468L208.543 105.631L208.619 104.642L208.315 103.728L207.705 103.043L206.792 102.663H205.802L204.888 103.043L204.279 103.728L203.975 104.642L204.051 105.631L204.508 106.468L205.269 107.001L206.183 107.229L207.325 107.001Z" fill="url(#paint37_linear)"/>
<path d="M208.086 106.849L207.173 107.457L206.107 107.686L205.041 107.457L204.203 106.772L203.67 105.859L203.594 104.794L203.975 103.728L204.736 102.967L205.726 102.511H206.792L207.782 102.967L208.467 103.804L208.772 104.87L208.619 105.935L208.086 106.849ZM207.173 107.381L208.086 106.772L208.619 105.859L208.772 104.794L208.467 103.804L207.782 102.967L206.792 102.511H205.726L204.736 102.967L203.975 103.728L203.594 104.718L203.67 105.783L204.203 106.696L205.041 107.305L206.107 107.533L207.173 107.381Z" fill="url(#paint38_linear)"/>
<path d="M207.934 107.153L206.945 107.838L205.726 108.066L204.584 107.762L203.671 107.001L203.138 105.935L203.061 104.718L203.442 103.576L204.28 102.739L205.422 102.282L206.64 102.358L207.706 102.891L208.467 103.804L208.772 104.946L208.62 106.164L207.934 107.153ZM206.945 107.838L207.934 107.153L208.543 106.164L208.696 104.946L208.391 103.804L207.63 102.891L206.564 102.358L205.346 102.282L204.204 102.739L203.366 103.576L202.985 104.718L203.061 105.935L203.594 107.001L204.508 107.762L205.65 108.066L206.945 107.838Z" fill="url(#paint39_linear)"/>
<path d="M207.858 107.61L206.716 108.371L205.422 108.599L204.127 108.218L203.061 107.381L202.452 106.164L202.376 104.794L202.833 103.576L203.746 102.663L204.965 102.206L206.335 102.282L207.553 102.891L208.391 103.957L208.772 105.25L208.543 106.544L207.858 107.61ZM206.716 108.294L207.858 107.61L208.543 106.468L208.772 105.174L208.391 103.88L207.553 102.815L206.335 102.206L205.041 102.13L203.823 102.587L202.909 103.5L202.452 104.718L202.528 106.011L203.137 107.229L204.203 108.066L205.498 108.447L206.716 108.294Z" fill="url(#paint40_linear)"/>
<path d="M207.706 107.99L206.411 108.751L204.965 108.979L203.518 108.599L202.376 107.61L201.691 106.24L201.615 104.718L202.148 103.348L203.214 102.282L204.584 101.75L206.107 101.826L207.401 102.511L208.315 103.652L208.696 105.098L208.467 106.544L207.706 107.99ZM206.488 108.751L207.706 107.99L208.543 106.772L208.772 105.326L208.391 103.881L207.477 102.739L206.183 102.054L204.736 101.978L203.366 102.511L202.3 103.5L201.767 104.87L201.843 106.316L202.452 107.61L203.594 108.523L205.041 108.903L206.488 108.751Z" fill="url(#paint41_linear)"/>
<path d="M207.629 108.523L206.183 109.36L204.508 109.588L202.909 109.132L201.691 108.066L201.005 106.544V104.87L201.691 103.348L202.909 102.206L204.508 101.674L206.183 101.826L207.629 102.663L208.619 103.957L209 105.555L208.695 107.153L207.629 108.523ZM206.183 109.284L207.553 108.447L208.467 107.077L208.771 105.479L208.391 103.881L207.401 102.587L205.954 101.826L204.355 101.674L202.833 102.206L201.614 103.348L201.005 104.87V106.468L201.691 107.914L202.909 108.979L204.508 109.436L206.183 109.284Z" fill="url(#paint42_linear)"/>
<path d="M207.401 109.056L205.802 109.969L203.975 110.197L202.224 109.664L200.853 108.447L200.092 106.772V104.946L200.853 103.272L202.224 102.054L203.975 101.521L205.802 101.75L207.401 102.663L208.467 104.185L208.848 106.011L208.467 107.838L207.401 109.056ZM205.802 109.893L207.401 108.979L208.467 107.533L208.848 105.783L208.467 104.033L207.401 102.587L205.802 101.674L203.975 101.521L202.224 102.054L200.853 103.272L200.092 104.946V106.772L200.853 108.447L202.224 109.664L203.975 110.197L205.802 109.893Z" fill="url(#paint43_linear)"/>
<path d="M207.249 109.664L205.422 110.654L203.366 110.806L201.462 110.121L199.94 108.751L199.178 106.849V104.794L200.016 102.967L201.539 101.597L203.518 100.989L205.574 101.217L207.325 102.282L208.467 103.957L208.848 105.935L208.391 107.914L207.249 109.664ZM205.422 110.578L207.173 109.588L208.391 107.99L208.848 106.011L208.467 104.033L207.325 102.358L205.574 101.293L203.594 101.065L201.691 101.674L200.168 102.967L199.33 104.794V106.849L200.092 108.675L201.539 110.045L203.442 110.73L205.422 110.578Z" fill="url(#paint44_linear)"/>
<path d="M207.021 110.349L205.041 111.415L202.757 111.567L200.625 110.806L199.026 109.208L198.188 107.077L198.265 104.794L199.254 102.739L201.006 101.293L203.214 100.684L205.498 100.989L207.401 102.206L208.696 104.109L209.076 106.316L208.543 108.523L207.021 110.349ZM204.965 111.339L206.944 110.273L208.315 108.523L208.848 106.316L208.467 104.109L207.249 102.282L205.346 101.065L203.137 100.76L201.006 101.369L199.254 102.815L198.265 104.794L198.188 107.001L199.026 109.056L200.625 110.578L202.757 111.339H204.965Z" fill="url(#paint45_linear)"/>
<path d="M206.716 111.034L204.432 112.176L201.919 112.328L199.559 111.415L197.808 109.664L196.894 107.305L197.046 104.794L198.188 102.511L200.168 100.913L202.604 100.228L205.117 100.608L207.249 101.978L208.619 104.109L209 106.62L208.315 109.056L206.716 111.034ZM204.432 112.1L206.64 110.958L208.239 109.056L208.848 106.62L208.467 104.185L207.097 102.13L205.041 100.76L202.604 100.38L200.168 100.989L198.265 102.587L197.122 104.794L196.97 107.305L197.884 109.664L199.635 111.415L201.995 112.328L204.432 112.1Z" fill="url(#paint46_linear)"/>
<path d="M206.411 111.871L203.899 113.089L201.082 113.165L198.493 112.1L196.513 110.121L195.523 107.457L195.752 104.642L197.046 102.13L199.254 100.38L201.995 99.6949L204.736 100.151L207.096 101.75L208.619 104.109L209 106.849L208.239 109.588L206.411 111.871ZM203.823 113.013L206.335 111.795L208.086 109.664L208.848 107.001L208.467 104.261L207.02 101.902L204.736 100.38L201.995 99.9232L199.33 100.608L197.122 102.282L195.828 104.718L195.6 107.457L196.513 110.045L198.417 112.024L201.005 113.089L203.823 113.013Z" fill="url(#paint47_linear)"/>
<path d="M206.03 112.708L203.213 114.002L200.092 114.078L197.198 112.861L195.066 110.578L194.077 107.61L194.381 104.489L195.904 101.75L198.417 99.8471L201.462 99.1621L204.508 99.771L207.096 101.597L208.695 104.261L209.076 107.381L208.162 110.349L206.03 112.708ZM203.213 113.926L206.03 112.632L208.086 110.273L209 107.305L208.619 104.261L207.02 101.597L204.508 99.8471L201.462 99.2382L198.493 99.9232L196.056 101.75L194.533 104.413L194.229 107.457L195.219 110.349L197.351 112.632L200.168 113.85L203.213 113.926Z" fill="url(#paint48_linear)"/>
<path d="M205.65 113.698L202.452 115.144H198.95L195.752 113.774L193.468 111.186L192.402 107.914L192.783 104.489L194.534 101.445L197.351 99.3904L200.701 98.7055L204.127 99.3904L206.944 101.445L208.695 104.413L209.076 107.838L208.01 111.11L205.65 113.698ZM202.452 114.992L205.574 113.622L207.858 111.11L208.924 107.838L208.543 104.413L206.868 101.445L204.127 99.4665L200.777 98.7816L197.427 99.4665L194.686 101.445L193.011 104.413L192.63 107.838L193.696 111.11L195.98 113.622L199.102 114.992H202.452Z" fill="url(#paint49_linear)"/>
<path d="M205.117 114.839L201.539 116.361L197.656 116.285L194.153 114.687L191.641 111.795L190.499 108.142L190.955 104.337L192.935 101.065L196.057 98.8577L199.864 98.0967L203.594 98.9338L206.64 101.217L208.467 104.565L208.772 108.371L207.554 112.024L205.117 114.839ZM201.539 116.209L205.041 114.687L207.63 111.871L208.848 108.294L208.543 104.489L206.716 101.141L203.67 98.8577L199.94 98.0206L196.209 98.7816L193.087 100.989L191.108 104.261L190.651 108.066L191.793 111.719L194.305 114.611L197.732 116.209H201.539Z" fill="url(#paint50_linear)"/>
<path d="M204.584 115.981L200.625 117.579L196.361 117.427L192.554 115.524L189.813 112.252L188.671 108.142L189.28 103.881L191.564 100.228L195.143 97.8684L199.33 97.1074L203.518 98.1728L206.868 100.836L208.848 104.642L209.152 108.903L207.705 112.937L204.584 115.981ZM200.548 117.427L204.432 115.829L207.401 112.785L208.848 108.827L208.543 104.642L206.563 100.913L203.213 98.325L199.102 97.3357L194.914 98.0967L191.412 100.456L189.204 104.033L188.595 108.218L189.737 112.252L192.478 115.448L196.285 117.275L200.548 117.427Z" fill="url(#paint51_linear)"/>
<path d="M203.899 117.275L199.483 118.949L194.762 118.721L190.498 116.59L187.529 112.937L186.311 108.371L187.072 103.652L189.661 99.6948L193.62 97.1073L198.34 96.3463L202.909 97.564L206.64 100.532L208.771 104.794L209 109.512L207.325 113.926L203.899 117.275ZM199.406 118.873L203.822 117.199L207.172 113.85L208.848 109.436L208.619 104.718L206.487 100.532L202.833 97.564L198.264 96.3463L193.62 97.1073L189.661 99.6948L187.072 103.652L186.311 108.294L187.529 112.861L190.498 116.514L194.686 118.644L199.406 118.873Z" fill="url(#paint52_linear)"/>
<path d="M203.137 118.721L198.188 120.547L192.935 120.167L188.29 117.655L185.017 113.469L183.722 108.371L184.636 103.196L187.605 98.7816L192.097 95.9658L197.351 95.2048L202.452 96.6507L206.488 100.075L208.772 104.794L208.924 110.045L206.944 114.915L203.137 118.721ZM198.188 120.395L203.061 118.644L206.792 114.992L208.772 110.197L208.619 105.022L206.335 100.304L202.376 96.9551L197.351 95.5092L192.174 96.2702L187.758 99.0099L184.864 103.348L183.951 108.447L185.245 113.469L188.443 117.579L193.011 120.014L198.188 120.395Z" fill="url(#paint53_linear)"/>
<path d="M202.3 120.319L196.742 122.221L190.879 121.689L185.778 118.873L182.275 114.231L180.981 108.523L182.123 102.739L185.473 97.9445L190.498 94.9004L196.285 94.2155L201.919 95.9658L206.335 99.8471L208.848 105.174L208.924 111.034L206.64 116.438L202.3 120.319ZM196.665 122.069L202.147 120.167L206.411 116.209L208.695 110.882L208.619 105.098L206.183 99.8471L201.843 96.0419L196.285 94.3677L190.498 95.0526L185.549 98.0206L182.199 102.739L181.057 108.447L182.351 114.078L185.854 118.721L190.955 121.536L196.665 122.069Z" fill="url(#paint54_linear)"/>
<path d="M201.31 122.069L195.067 124.124L188.595 123.439L182.961 120.167L179.154 114.915L177.783 108.523L179.154 102.13L182.961 96.879L188.595 93.6066L195.067 92.9217L201.31 94.9765L206.183 99.3143L208.848 105.25V111.795L206.183 117.731L201.31 122.069ZM195.067 123.896L201.158 121.917L205.954 117.579L208.543 111.719V105.25L205.954 99.3904L201.158 95.0526L195.067 93.0739L188.671 93.7588L183.113 96.9551L179.306 102.13L177.935 108.447L179.306 114.763L183.113 119.938L188.671 123.135L195.067 123.896Z" fill="url(#paint55_linear)"/>
<path d="M200.168 124.048L193.239 126.179L186.006 125.265L179.839 121.536L175.727 115.6L174.357 108.523L175.956 101.445L180.296 95.6614L186.615 92.1607L193.848 91.5518L200.701 93.911L206.031 98.8577L208.848 105.479L208.695 112.708L205.65 119.253L200.168 124.048ZM193.239 125.874L200.092 123.819L205.498 119.101L208.543 112.632L208.695 105.479L205.878 98.9338L200.625 94.0632L193.848 91.7041L186.691 92.3129L180.448 95.8136L176.108 101.521L174.509 108.523L175.88 115.524L179.991 121.384L186.158 125.037L193.239 125.874Z" fill="url(#paint56_linear)"/>
<path d="M198.874 126.179L191.108 128.386L183.113 127.244L176.261 122.982L171.768 116.285L170.398 108.371L172.378 100.608L177.327 94.2915L184.407 90.4864L192.402 89.9537L200.016 92.6934L205.802 98.325L208.848 105.783L208.543 113.774L205.041 121.004L198.874 126.179ZM191.108 128.081L198.721 125.874L204.813 120.775L208.315 113.622L208.619 105.707L205.65 98.325L199.94 92.7695L192.478 90.0298L184.56 90.5625L177.555 94.2915L172.682 100.532L170.779 108.218L172.149 116.057L176.565 122.678L183.341 126.864L191.108 128.081Z" fill="url(#paint57_linear)"/>
<path d="M197.427 128.462L188.747 130.745L179.915 129.375L172.454 124.504L167.581 117.046L166.21 108.218L168.495 99.6187L174.129 92.6934L182.123 88.6599L191.032 88.2033L199.407 91.3996L205.726 97.7162L208.924 106.087L208.467 114.992L204.432 122.982L197.427 128.462ZM188.747 130.517L197.275 128.233L204.127 122.678L208.163 114.839L208.62 106.011L205.422 97.7923L199.178 91.5518L190.955 88.3555L182.123 88.8121L174.281 92.8456L168.723 99.6949L166.439 108.218L167.809 116.97L172.606 124.352L179.991 129.147L188.747 130.517Z" fill="url(#paint58_linear)"/>
<path d="M195.676 131.049L186.006 133.485L176.184 131.734L167.961 126.179L162.708 117.731L161.337 107.914L164.078 98.4011L170.474 90.7908L179.382 86.4529L189.28 86.0724L198.493 89.8015L205.422 96.9551L208.848 106.24L208.163 116.133L203.518 124.961L195.676 131.049ZM186.006 133.104L195.524 130.745L203.29 124.733L207.934 116.057L208.619 106.24L205.269 97.0312L198.417 89.9537L189.356 86.3007L179.534 86.6051L170.702 90.8669L164.383 98.4011L161.642 107.838L163.012 117.579L168.19 125.874L176.337 131.354L186.006 133.104Z" fill="url(#paint59_linear)"/>
<path d="M193.772 133.865L182.961 136.376L172.073 134.246L163.013 127.929L157.302 118.492V118.416L155.932 107.457V107.381L159.129 96.8791L166.363 88.5077L176.337 83.8655H176.413L187.453 83.6371L197.655 87.975L205.193 96.0419V96.118L208.772 106.544V106.62L207.782 117.579L202.452 127.244L193.772 133.865ZM182.961 135.92L193.62 133.485L202.3 126.94L207.553 117.427L208.467 106.544L204.889 96.2702L197.427 88.2794L187.377 84.0177L176.489 84.1699L166.591 88.8121L159.434 97.0313L156.236 107.457L157.531 118.264L163.165 127.625L172.073 133.865L182.961 135.92Z" fill="url(#paint60_linear)"/>
<path d="M191.564 136.909L179.534 139.497L167.505 136.909L157.607 129.679V129.603L151.516 119.025V118.949L150.221 106.772V106.696L154.028 95.0526L162.251 85.9202H162.327L173.52 80.9735H173.596H185.854L197.122 85.9963L205.345 95.1287V95.2048L209.152 106.849V106.925L207.858 119.101L201.691 129.756L191.564 136.909ZM179.534 139.04L191.412 136.529L201.234 129.375L207.325 118.873L208.619 106.849L204.889 95.357L196.818 86.3768L185.778 81.4302H173.672L162.632 86.3768L154.561 95.357L150.83 106.849L152.125 118.873L158.216 129.375L168.038 136.529L179.534 139.04Z" fill="url(#paint61_linear)"/>
<path d="M189.052 140.334L175.651 142.921L162.327 139.877H162.251L151.439 131.658V131.582L144.815 119.71V119.634L143.597 106.088V106.011L148.013 93.15L157.302 83.1805H157.378L169.941 77.8533H170.017L183.646 78.0816L196.057 83.8655L205.041 94.1394V94.2155L209 107.229V107.305L207.325 120.775L200.32 132.495L189.052 140.334ZM175.651 142.465L188.9 139.877L199.94 132.191L206.868 120.623L208.543 107.305L204.584 94.4438L195.752 84.3221L183.57 78.6144L170.093 78.3861L157.683 83.6372L148.47 93.4544L144.054 106.164L145.196 119.558L151.744 131.354L162.479 139.421L175.651 142.465Z" fill="url(#paint62_linear)"/>
<path d="M186.234 144.063L171.311 146.726L156.617 143.074H156.54L144.587 133.789V133.713L137.506 120.395V120.319L136.44 105.25V105.174L141.617 90.943L152.124 80.0603H152.201L166.21 74.4287H166.286L181.438 74.9614L195.067 81.5824L204.812 93.2261V93.3022L209 107.838V107.914L206.868 122.906L198.797 135.768L186.234 144.063ZM171.311 146.118L186.006 143.53L198.417 135.159L206.335 122.526L208.391 107.686L204.279 93.3022L194.686 81.8868L181.285 75.3419L166.362 74.8092L152.505 80.4408L142.15 91.1713L137.049 105.25L138.115 120.167L145.12 133.332L156.921 142.541L171.311 146.118Z" fill="url(#paint63_linear)"/>
<path d="M183.037 148.096L166.363 150.76L150.069 146.422L149.993 146.346L136.897 135.768V135.692L129.283 120.699V120.623L128.37 103.881V103.804L134.385 88.1272L146.338 76.179H146.414L162.099 70.1669H162.175L178.926 71.0801L193.925 78.7665L204.508 91.8562V91.9323L208.848 108.142V108.218L206.335 124.809L197.199 138.888L183.037 148.096ZM166.363 150.151L182.809 147.564L196.742 138.507L205.802 124.581L208.391 108.142L204.051 92.0846L193.62 79.1471L178.849 71.6129L162.251 70.7757L146.719 76.7118L134.994 88.4316L129.055 103.957L129.892 120.547L137.43 135.311L150.374 145.737L166.363 150.151Z" fill="url(#paint64_linear)"/>
<path d="M179.382 152.586L160.804 155.174L142.759 149.999L142.683 149.923L128.369 137.899V137.822L120.146 121.08V121.004L119.461 102.358V102.282L126.466 85.007L139.942 71.9934H140.018L157.53 65.6007H157.606L176.26 66.8945L192.782 75.7224L204.355 90.4864V90.5625L208.847 108.675V108.751L205.574 127.168L195.066 142.693L179.382 152.586ZM160.804 154.489L179.077 151.901L194.762 142.16L205.117 126.864L208.315 108.675L203.822 90.7908L192.478 76.2552L176.184 67.5794L157.759 66.2857L140.399 72.6022L127.151 85.3875L120.222 102.511L120.831 120.928L128.902 137.518L143.064 149.39L160.804 154.489Z" fill="url(#paint65_linear)"/>
<path d="M175.195 157.457L154.561 159.968L134.613 153.88L134.537 153.804L118.852 140.182V140.106L110.097 121.308V121.232L109.716 100.532V100.456L117.786 81.3541L133.014 67.1228H133.09L152.734 60.3496H152.81L173.444 62.1761L191.641 72.2978L204.204 88.8882V88.9643L208.848 109.132V109.208L204.889 129.527L192.935 146.574L175.195 157.457ZM154.561 159.207L174.89 156.696L192.478 146.118L204.28 129.299L208.163 109.208L203.518 89.1927L191.184 72.8305L173.215 62.861L152.81 61.1107L133.395 67.8077L118.396 81.8107L110.401 100.684L110.782 121.156L119.462 139.725L134.918 153.195L154.561 159.207Z" fill="url(#paint66_linear)"/>
<path d="M170.474 162.784L147.48 165.219L125.476 158.066L125.4 157.99L108.269 142.541V142.465L98.9038 121.384V121.308V98.2489V98.1728L108.269 77.0923L125.476 61.6434H125.552L147.48 54.4897H147.556L170.474 56.925L190.498 68.4927L204.127 87.214V87.2901L208.924 109.817V109.893L204.127 132.419L190.498 151.14L170.474 162.784ZM147.556 164.382L170.246 162.023L189.965 150.608L203.366 132.191L208.086 109.893L203.366 87.5945L189.965 69.1776L170.246 57.7621L147.556 55.403L125.857 62.4805L108.954 77.7011L99.6652 98.4772V121.232L108.954 142.008L125.857 157.229L147.556 164.382Z" fill="url(#paint67_linear)"/>
<path d="M165.144 168.644L139.562 170.851L115.273 162.48L115.197 162.404L96.4673 144.976V144.9L86.4932 121.308V121.232L86.95 95.6614L87.0261 95.5853L97.8378 72.3739L117.253 55.4791H117.329L141.846 48.021H141.922L167.352 51.1412L189.356 64.3831L204.127 85.4636V85.5397L209 110.654V110.73L203.213 135.692L187.757 156.239L165.144 168.644ZM139.638 169.938L164.84 167.731L186.996 155.478L202.224 135.235L207.934 110.578L203.137 85.6919L188.595 64.9919L166.895 51.9783L141.77 48.8581L117.558 56.3162L98.4469 72.9066L87.7114 95.8136L87.2545 121.156L97.1525 144.443L115.654 161.719L139.638 169.938Z" fill="url(#paint68_linear)"/>
<path d="M159.053 175.037L130.577 177.015L103.701 167.274L103.624 167.198L83.1432 147.411L83.0671 147.335L72.4077 120.928V120.851L73.3975 92.389L73.4737 92.3129L86.0365 66.7423L107.888 48.4015H107.964L135.298 40.5629H135.374L163.545 44.5202L187.757 59.6647L203.746 83.3327V83.4088L208.695 111.415V111.491L201.843 139.116L184.255 161.643L159.053 175.037ZM130.73 176.026L158.825 174.047L183.646 160.805L201.006 138.66L207.782 111.339L202.909 83.6371L187.148 60.3496L163.317 45.4335L135.45 41.5522L108.421 49.3147L86.7979 67.3511L74.4635 92.6173L73.4737 120.699L83.9808 146.803L104.234 166.361L130.73 176.026Z" fill="url(#paint69_linear)"/>
<path d="M152.277 182.038L120.603 183.712L90.9856 172.373L90.9095 172.297L68.5248 149.923L68.4486 149.847L57.104 120.243V120.09L58.779 88.5077L58.8552 88.4316L73.2454 60.2735L97.8381 40.3346H97.9142L128.446 32.1915H128.598L159.815 37.1382L186.463 54.4136L203.747 81.0496V81.2018L208.696 112.404V112.48L200.549 142.997L180.601 167.655L152.277 182.038ZM120.756 182.571L151.973 180.973L179.839 166.818L199.483 142.541L207.554 112.328L202.681 81.4301L185.626 55.2507L159.434 38.2037L128.522 33.3331L98.2949 41.4L74.0829 61.0346L59.9211 88.8882L58.3222 120.09L69.5146 149.238L91.5947 171.308L120.756 182.571Z" fill="url(#paint70_linear)"/>
<path d="M144.511 189.649L109.259 190.866L76.5952 177.624L76.5191 177.548L52.0787 152.282L52.0025 152.13L39.9727 119.101V118.949L42.4091 83.9415L42.4852 83.7893L59.0073 52.8154L86.7978 31.2022H86.9501L121.06 22.6787H121.212L155.779 28.7669L185.016 48.4776L203.67 78.386V78.5382L208.543 113.317V113.469L198.874 147.259L176.184 174.276L144.511 189.649ZM109.487 189.649L144.206 188.431L175.423 173.21L197.731 146.574L207.325 113.165L202.452 78.7665L184.027 49.3147L155.322 29.9846L121.06 23.8963L87.3308 32.2677L59.9209 53.6526L43.6273 84.3221L41.1909 118.949L53.0685 151.597L77.2043 176.559L109.487 189.649Z" fill="url(#paint71_linear)"/>
<path d="M135.755 197.944L96.5435 198.629L60.4538 183.332L60.3777 183.256L33.7292 154.717L33.6531 154.565L20.938 117.655V117.503L24.3642 78.6143L24.4404 78.4621L43.3988 44.368L74.6917 20.7761H74.844L112.913 12.0243H113.065L151.363 19.4823L183.494 41.9327L203.67 75.4941V75.6463L208.391 114.383L208.315 114.535L196.894 151.825L171.311 181.429L135.755 197.944ZM96.848 197.259L135.45 196.574L170.398 180.288L195.752 151.14L207.02 114.231L202.3 75.9507L182.428 42.846L150.83 20.7L112.913 13.318L75.377 22.0698L44.5409 45.2812L25.8108 78.9949L22.4608 117.427L35.0236 153.956L61.3675 182.19L96.848 197.259Z" fill="url(#paint72_linear)"/>
<path d="M125.933 207H82.3818L42.6375 189.268L42.5614 189.116L13.5526 156.924L13.4765 156.772L0 115.6V115.448L4.56831 72.2978L4.64444 72.1456L26.3439 34.6268L61.596 9.05625H61.7483L104.157 0H104.31L146.719 8.98015L181.971 34.6268L203.67 72.2978V72.45L208.239 115.6L208.162 115.753L194.762 157L165.601 189.344L125.933 207ZM82.6863 205.478H125.552L164.764 188.05L193.468 156.163L206.716 115.372L202.224 72.7544L180.753 35.6162L146.034 10.4261L104.157 1.52206L62.2051 10.5022L27.486 35.6923L6.01494 72.8305L1.52277 115.448L14.7709 156.239L43.475 188.126L82.6863 205.478Z" fill="url(#paint73_linear)"/>
<defs>
<linearGradient id="paint0_linear" x1="208.255" y1="103.509" x2="208.255" y2="103.509" gradientUnits="userSpaceOnUse">
<stop stop-color="#6F45FF"/>
<stop offset="1" stop-color="#FF6365"/>
</linearGradient>
<linearGradient id="paint1_linear" x1="208.255" y1="103.509" x2="208.255" y2="103.509" gradientUnits="userSpaceOnUse">
<stop stop-color="#6F45FF"/>
<stop offset="1" stop-color="#FF6365"/>
</linearGradient>
<linearGradient id="paint2_linear" x1="208.255" y1="103.509" x2="208.255" y2="103.509" gradientUnits="userSpaceOnUse">
<stop stop-color="#6F45FF"/>
<stop offset="1" stop-color="#FF6365"/>
</linearGradient>
<linearGradient id="paint3_linear" x1="208.255" y1="103.509" x2="208.255" y2="103.509" gradientUnits="userSpaceOnUse">
<stop stop-color="#6F45FF"/>
<stop offset="1" stop-color="#FF6365"/>
</linearGradient>
<linearGradient id="paint4_linear" x1="208.255" y1="103.508" x2="208.255" y2="103.508" gradientUnits="userSpaceOnUse">
<stop stop-color="#6F45FF"/>
<stop offset="1" stop-color="#FF6365"/>
</linearGradient>
<linearGradient id="paint5_linear" x1="208.255" y1="103.508" x2="208.255" y2="103.508" gradientUnits="userSpaceOnUse">
<stop stop-color="#6F45FF"/>
<stop offset="1" stop-color="#FF6365"/>
</linearGradient>
<linearGradient id="paint6_linear" x1="208.255" y1="103.508" x2="208.255" y2="103.508" gradientUnits="userSpaceOnUse">
<stop stop-color="#6F45FF"/>
<stop offset="1" stop-color="#FF6365"/>
</linearGradient>
<linearGradient id="paint7_linear" x1="208.254" y1="103.508" x2="208.254" y2="103.508" gradientUnits="userSpaceOnUse">
<stop stop-color="#6F45FF"/>
<stop offset="1" stop-color="#FF6365"/>
</linearGradient>
<linearGradient id="paint8_linear" x1="208.254" y1="103.509" x2="208.255" y2="103.509" gradientUnits="userSpaceOnUse">
<stop stop-color="#6F45FF"/>
<stop offset="1" stop-color="#FF6365"/>
</linearGradient>
<linearGradient id="paint9_linear" x1="208.254" y1="103.509" x2="208.254" y2="103.509" gradientUnits="userSpaceOnUse">
<stop stop-color="#6F45FF"/>
<stop offset="1" stop-color="#FF6365"/>
</linearGradient>
<linearGradient id="paint10_linear" x1="208.254" y1="103.509" x2="208.254" y2="103.509" gradientUnits="userSpaceOnUse">
<stop stop-color="#6F45FF"/>
<stop offset="1" stop-color="#FF6365"/>
</linearGradient>
<linearGradient id="paint11_linear" x1="208.254" y1="103.509" x2="208.254" y2="103.509" gradientUnits="userSpaceOnUse">
<stop stop-color="#6F45FF"/>
<stop offset="1" stop-color="#FF6365"/>
</linearGradient>
<linearGradient id="paint12_linear" x1="208.254" y1="103.509" x2="208.255" y2="103.509" gradientUnits="userSpaceOnUse">
<stop stop-color="#6F45FF"/>
<stop offset="1" stop-color="#FF6365"/>
</linearGradient>
<linearGradient id="paint13_linear" x1="208.254" y1="103.509" x2="208.255" y2="103.509" gradientUnits="userSpaceOnUse">
<stop stop-color="#6F45FF"/>
<stop offset="1" stop-color="#FF6365"/>
</linearGradient>
<linearGradient id="paint14_linear" x1="208.254" y1="103.509" x2="208.255" y2="103.509" gradientUnits="userSpaceOnUse">
<stop stop-color="#6F45FF"/>
<stop offset="1" stop-color="#FF6365"/>
</linearGradient>
<linearGradient id="paint15_linear" x1="208.254" y1="103.509" x2="208.255" y2="103.509" gradientUnits="userSpaceOnUse">
<stop stop-color="#6F45FF"/>
<stop offset="1" stop-color="#FF6365"/>
</linearGradient>
<linearGradient id="paint16_linear" x1="208.254" y1="103.51" x2="208.255" y2="103.509" gradientUnits="userSpaceOnUse">
<stop stop-color="#6F45FF"/>
<stop offset="1" stop-color="#FF6365"/>
</linearGradient>
<linearGradient id="paint17_linear" x1="208.254" y1="103.51" x2="208.255" y2="103.509" gradientUnits="userSpaceOnUse">
<stop stop-color="#6F45FF"/>
<stop offset="1" stop-color="#FF6365"/>
</linearGradient>
<linearGradient id="paint18_linear" x1="208.254" y1="103.51" x2="208.255" y2="103.509" gradientUnits="userSpaceOnUse">
<stop stop-color="#6F45FF"/>
<stop offset="1" stop-color="#FF6365"/>
</linearGradient>
<linearGradient id="paint19_linear" x1="208.254" y1="103.511" x2="208.255" y2="103.509" gradientUnits="userSpaceOnUse">
<stop stop-color="#6F45FF"/>
<stop offset="1" stop-color="#FF6365"/>
</linearGradient>
<linearGradient id="paint20_linear" x1="208.254" y1="103.511" x2="208.255" y2="103.509" gradientUnits="userSpaceOnUse">
<stop stop-color="#6F45FF"/>
<stop offset="1" stop-color="#FF6365"/>
</linearGradient>
<linearGradient id="paint21_linear" x1="208.253" y1="103.512" x2="208.256" y2="103.509" gradientUnits="userSpaceOnUse">
<stop stop-color="#6F45FF"/>
<stop offset="1" stop-color="#FF6365"/>
</linearGradient>
<linearGradient id="paint22_linear" x1="208.253" y1="103.512" x2="208.256" y2="103.509" gradientUnits="userSpaceOnUse">
<stop stop-color="#6F45FF"/>
<stop offset="1" stop-color="#FF6365"/>
</linearGradient>
<linearGradient id="paint23_linear" x1="208.253" y1="103.513" x2="208.257" y2="103.509" gradientUnits="userSpaceOnUse">
<stop stop-color="#6F45FF"/>
<stop offset="1" stop-color="#FF6365"/>
</linearGradient>
<linearGradient id="paint24_linear" x1="208.253" y1="103.514" x2="208.257" y2="103.509" gradientUnits="userSpaceOnUse">
<stop stop-color="#6F45FF"/>
<stop offset="1" stop-color="#FF6365"/>
</linearGradient>
<linearGradient id="paint25_linear" x1="208.252" y1="103.516" x2="208.258" y2="103.51" gradientUnits="userSpaceOnUse">
<stop stop-color="#6F45FF"/>
<stop offset="1" stop-color="#FF6365"/>
</linearGradient>
<linearGradient id="paint26_linear" x1="208.251" y1="103.518" x2="208.258" y2="103.51" gradientUnits="userSpaceOnUse">
<stop stop-color="#6F45FF"/>
<stop offset="1" stop-color="#FF6365"/>
</linearGradient>
<linearGradient id="paint27_linear" x1="208.25" y1="103.52" x2="208.259" y2="103.51" gradientUnits="userSpaceOnUse">
<stop stop-color="#6F45FF"/>
<stop offset="1" stop-color="#FF6365"/>
</linearGradient>
<linearGradient id="paint28_linear" x1="208.249" y1="103.522" x2="208.26" y2="103.511" gradientUnits="userSpaceOnUse">
<stop stop-color="#6F45FF"/>
<stop offset="1" stop-color="#FF6365"/>
</linearGradient>
<linearGradient id="paint29_linear" x1="208.247" y1="103.525" x2="208.261" y2="103.512" gradientUnits="userSpaceOnUse">
<stop stop-color="#6F45FF"/>
<stop offset="1" stop-color="#FF6365"/>
</linearGradient>
<linearGradient id="paint30_linear" x1="206.613" y1="105.038" x2="208.253" y2="103.508" gradientUnits="userSpaceOnUse">
<stop stop-color="#6F45FF"/>
<stop offset="1" stop-color="#FF6365"/>
</linearGradient>
<linearGradient id="paint31_linear" x1="206.401" y1="105.176" x2="208.254" y2="103.508" gradientUnits="userSpaceOnUse">
<stop stop-color="#6F45FF"/>
<stop offset="1" stop-color="#FF6365"/>
</linearGradient>
<linearGradient id="paint32_linear" x1="206.163" y1="105.325" x2="208.253" y2="103.508" gradientUnits="userSpaceOnUse">
<stop stop-color="#6F45FF"/>
<stop offset="1" stop-color="#FF6365"/>
</linearGradient>
<linearGradient id="paint33_linear" x1="205.896" y1="105.486" x2="208.253" y2="103.507" gradientUnits="userSpaceOnUse">
<stop stop-color="#6F45FF"/>
<stop offset="1" stop-color="#FF6365"/>
</linearGradient>
<linearGradient id="paint34_linear" x1="205.596" y1="105.66" x2="208.253" y2="103.507" gradientUnits="userSpaceOnUse">
<stop stop-color="#6F45FF"/>
<stop offset="1" stop-color="#FF6365"/>
</linearGradient>
<linearGradient id="paint35_linear" x1="205.26" y1="105.847" x2="208.253" y2="103.507" gradientUnits="userSpaceOnUse">
<stop stop-color="#6F45FF"/>
<stop offset="1" stop-color="#FF6365"/>
</linearGradient>
<linearGradient id="paint36_linear" x1="204.882" y1="106.049" x2="208.253" y2="103.507" gradientUnits="userSpaceOnUse">
<stop stop-color="#6F45FF"/>
<stop offset="1" stop-color="#FF6365"/>
</linearGradient>
<linearGradient id="paint37_linear" x1="204.458" y1="106.265" x2="208.253" y2="103.507" gradientUnits="userSpaceOnUse">
<stop stop-color="#6F45FF"/>
<stop offset="1" stop-color="#FF6365"/>
</linearGradient>
<linearGradient id="paint38_linear" x1="203.984" y1="106.497" x2="208.253" y2="103.507" gradientUnits="userSpaceOnUse">
<stop stop-color="#6F45FF"/>
<stop offset="1" stop-color="#FF6365"/>
</linearGradient>
<linearGradient id="paint39_linear" x1="203.453" y1="106.746" x2="208.253" y2="103.506" gradientUnits="userSpaceOnUse">
<stop stop-color="#6F45FF"/>
<stop offset="1" stop-color="#FF6365"/>
</linearGradient>
<linearGradient id="paint40_linear" x1="202.857" y1="107.012" x2="208.253" y2="103.506" gradientUnits="userSpaceOnUse">
<stop stop-color="#6F45FF"/>
<stop offset="1" stop-color="#FF6365"/>
</linearGradient>
<linearGradient id="paint41_linear" x1="202.19" y1="107.296" x2="208.253" y2="103.506" gradientUnits="userSpaceOnUse">
<stop stop-color="#6F45FF"/>
<stop offset="1" stop-color="#FF6365"/>
</linearGradient>
<linearGradient id="paint42_linear" x1="201.444" y1="107.599" x2="208.252" y2="103.506" gradientUnits="userSpaceOnUse">
<stop stop-color="#6F45FF"/>
<stop offset="1" stop-color="#FF6365"/>
</linearGradient>
<linearGradient id="paint43_linear" x1="200.609" y1="107.921" x2="208.252" y2="103.505" gradientUnits="userSpaceOnUse">
<stop stop-color="#6F45FF"/>
<stop offset="1" stop-color="#FF6365"/>
</linearGradient>
<linearGradient id="paint44_linear" x1="199.675" y1="108.262" x2="208.252" y2="103.505" gradientUnits="userSpaceOnUse">
<stop stop-color="#6F45FF"/>
<stop offset="1" stop-color="#FF6365"/>
</linearGradient>
<linearGradient id="paint45_linear" x1="198.631" y1="108.623" x2="208.252" y2="103.505" gradientUnits="userSpaceOnUse">
<stop stop-color="#6F45FF"/>
<stop offset="1" stop-color="#FF6365"/>
</linearGradient>
<linearGradient id="paint46_linear" x1="197.464" y1="109.004" x2="208.252" y2="103.504" gradientUnits="userSpaceOnUse">
<stop stop-color="#6F45FF"/>
<stop offset="1" stop-color="#FF6365"/>
</linearGradient>
<linearGradient id="paint47_linear" x1="196.161" y1="109.404" x2="208.252" y2="103.504" gradientUnits="userSpaceOnUse">
<stop stop-color="#6F45FF"/>
<stop offset="1" stop-color="#FF6365"/>
</linearGradient>
<linearGradient id="paint48_linear" x1="194.704" y1="109.824" x2="208.252" y2="103.504" gradientUnits="userSpaceOnUse">
<stop stop-color="#6F45FF"/>
<stop offset="1" stop-color="#FF6365"/>
</linearGradient>
<linearGradient id="paint49_linear" x1="193.079" y1="110.262" x2="208.252" y2="103.503" gradientUnits="userSpaceOnUse">
<stop stop-color="#6F45FF"/>
<stop offset="1" stop-color="#FF6365"/>
</linearGradient>
<linearGradient id="paint50_linear" x1="191.264" y1="110.717" x2="208.252" y2="103.503" gradientUnits="userSpaceOnUse">
<stop stop-color="#6F45FF"/>
<stop offset="1" stop-color="#FF6365"/>
</linearGradient>
<linearGradient id="paint51_linear" x1="189.239" y1="111.188" x2="208.252" y2="103.502" gradientUnits="userSpaceOnUse">
<stop stop-color="#6F45FF"/>
<stop offset="1" stop-color="#FF6365"/>
</linearGradient>
<linearGradient id="paint52_linear" x1="186.981" y1="111.676" x2="208.262" y2="103.507" gradientUnits="userSpaceOnUse">
<stop stop-color="#6F45FF"/>
<stop offset="1" stop-color="#FF6365"/>
</linearGradient>
<linearGradient id="paint53_linear" x1="184.462" y1="112.159" x2="208.242" y2="103.497" gradientUnits="userSpaceOnUse">
<stop stop-color="#6F45FF"/>
<stop offset="1" stop-color="#FF6365"/>
</linearGradient>
<linearGradient id="paint54_linear" x1="181.655" y1="112.661" x2="208.246" y2="103.498" gradientUnits="userSpaceOnUse">
<stop stop-color="#6F45FF"/>
<stop offset="1" stop-color="#FF6365"/>
</linearGradient>
<linearGradient id="paint55_linear" x1="178.526" y1="113.158" x2="208.241" y2="103.495" gradientUnits="userSpaceOnUse">
<stop stop-color="#6F45FF"/>
<stop offset="1" stop-color="#FF6365"/>
</linearGradient>
<linearGradient id="paint56_linear" x1="175.041" y1="113.66" x2="208.255" y2="103.501" gradientUnits="userSpaceOnUse">
<stop stop-color="#6F45FF"/>
<stop offset="1" stop-color="#FF6365"/>
</linearGradient>
<linearGradient id="paint57_linear" x1="171.159" y1="114.138" x2="208.247" y2="103.497" gradientUnits="userSpaceOnUse">
<stop stop-color="#6F45FF"/>
<stop offset="1" stop-color="#FF6365"/>
</linearGradient>
<linearGradient id="paint58_linear" x1="166.838" y1="114.603" x2="208.257" y2="103.501" gradientUnits="userSpaceOnUse">
<stop stop-color="#6F45FF"/>
<stop offset="1" stop-color="#FF6365"/>
</linearGradient>
<linearGradient id="paint59_linear" x1="162.028" y1="115.032" x2="208.258" y2="103.501" gradientUnits="userSpaceOnUse">
<stop stop-color="#6F45FF"/>
<stop offset="1" stop-color="#FF6365"/>
</linearGradient>
<linearGradient id="paint60_linear" x1="156.676" y1="115.414" x2="208.258" y2="103.501" gradientUnits="userSpaceOnUse">
<stop stop-color="#6F45FF"/>
<stop offset="1" stop-color="#FF6365"/>
</linearGradient>
<linearGradient id="paint61_linear" x1="150.722" y1="115.736" x2="208.261" y2="103.502" gradientUnits="userSpaceOnUse">
<stop stop-color="#6F45FF"/>
<stop offset="1" stop-color="#FF6365"/>
</linearGradient>
<linearGradient id="paint62_linear" x1="144.103" y1="115.968" x2="208.243" y2="103.493" gradientUnits="userSpaceOnUse">
<stop stop-color="#6F45FF"/>
<stop offset="1" stop-color="#FF6365"/>
</linearGradient>
<linearGradient id="paint63_linear" x1="136.744" y1="116.114" x2="208.256" y2="103.499" gradientUnits="userSpaceOnUse">
<stop stop-color="#6F45FF"/>
<stop offset="1" stop-color="#FF6365"/>
</linearGradient>
<linearGradient id="paint64_linear" x1="128.566" y1="116.129" x2="208.263" y2="103.502" gradientUnits="userSpaceOnUse">
<stop stop-color="#6F45FF"/>
<stop offset="1" stop-color="#FF6365"/>
</linearGradient>
<linearGradient id="paint65_linear" x1="119.48" y1="115.981" x2="208.257" y2="103.499" gradientUnits="userSpaceOnUse">
<stop stop-color="#6F45FF"/>
<stop offset="1" stop-color="#FF6365"/>
</linearGradient>
<linearGradient id="paint66_linear" x1="109.39" y1="115.639" x2="208.247" y2="103.494" gradientUnits="userSpaceOnUse">
<stop stop-color="#6F45FF"/>
<stop offset="1" stop-color="#FF6365"/>
</linearGradient>
<linearGradient id="paint67_linear" x1="98.1857" y1="115.069" x2="208.247" y2="103.495" gradientUnits="userSpaceOnUse">
<stop stop-color="#6F45FF"/>
<stop offset="1" stop-color="#FF6365"/>
</linearGradient>
<linearGradient id="paint68_linear" x1="85.75" y1="114.217" x2="208.244" y2="103.494" gradientUnits="userSpaceOnUse">
<stop stop-color="#6F45FF"/>
<stop offset="1" stop-color="#FF6365"/>
</linearGradient>
<linearGradient id="paint69_linear" x1="71.9515" y1="113.035" x2="208.253" y2="103.499" gradientUnits="userSpaceOnUse">
<stop stop-color="#6F45FF"/>
<stop offset="1" stop-color="#FF6365"/>
</linearGradient>
<linearGradient id="paint70_linear" x1="56.6451" y1="111.45" x2="208.254" y2="103.501" gradientUnits="userSpaceOnUse">
<stop stop-color="#6F45FF"/>
<stop offset="1" stop-color="#FF6365"/>
</linearGradient>
<linearGradient id="paint71_linear" x1="39.671" y1="109.392" x2="208.253" y2="103.502" gradientUnits="userSpaceOnUse">
<stop stop-color="#6F45FF"/>
<stop offset="1" stop-color="#FF6365"/>
</linearGradient>
<linearGradient id="paint72_linear" x1="20.8539" y1="106.782" x2="208.262" y2="103.509" gradientUnits="userSpaceOnUse">
<stop stop-color="#6F45FF"/>
<stop offset="1" stop-color="#FF6365"/>
</linearGradient>
<linearGradient id="paint73_linear" x1="0" y1="103.509" x2="208.254" y2="103.509" gradientUnits="userSpaceOnUse">
<stop stop-color="#6F45FF"/>
<stop offset="1" stop-color="#FF6365"/>
</linearGradient>
</defs>
</svg>
