<svg width="210" height="207" viewBox="0 0 210 207" fill="none" xmlns="http://www.w3.org/2000/svg">
<path d="M172.691 69.3884C165.581 69.3884 157.033 65.745 149.923 58.9138C144.401 53.6765 140.468 47.3766 138.955 41.1525C137.366 34.8526 138.35 29.3876 141.753 25.8202C145.157 22.2528 150.528 20.9624 156.882 22.1768C163.16 23.3913 169.59 26.9587 175.112 32.196C186.609 43.0501 190.24 57.927 183.357 65.2896C180.634 68.098 176.927 69.3884 172.691 69.3884ZM152.268 22.86C148.259 22.86 144.855 24.1503 142.51 26.5792C139.409 29.843 138.501 34.9285 140.014 40.8489C141.527 46.8452 145.309 52.9175 150.679 58.0788C161.723 68.5534 175.944 71.4377 182.449 64.5306C188.954 57.6234 185.324 43.5055 174.28 33.0309C168.909 28.0214 162.631 24.5298 156.579 23.3154C155.067 23.0118 153.629 22.86 152.268 22.86Z" fill="url(#paint0_linear)"/>
<path d="M175.263 96.9411C162.101 96.9411 145.914 89.8062 132.222 76.8268C110.816 56.4849 103.403 29.1599 115.808 16.0287C128.213 2.89756 155.747 8.74207 177.23 29.1599C198.636 49.5018 206.049 76.8268 193.644 89.958C189.106 94.7399 182.676 96.9411 175.263 96.9411ZM134.189 10.1842C127.079 10.1842 120.876 12.3095 116.64 16.8637C104.689 29.5394 112.026 56.1054 132.979 76.0678C153.932 96.0302 180.785 101.875 192.736 89.199C204.688 76.5232 197.351 49.9573 176.398 29.9948C162.933 17.1673 147.048 10.1842 134.189 10.1842Z" fill="url(#paint1_linear)"/>
<path d="M168.758 127.302C150.15 127.302 127.987 117.89 109.53 100.281C79.5756 71.8173 70.3472 32.6514 88.9552 12.9926C97.9567 3.42889 112.102 -0.138539 128.819 2.89757C145.384 5.93368 162.48 15.1938 177.003 28.9322C206.957 57.3957 216.186 96.5615 197.578 116.22C190.392 123.735 180.256 127.302 168.758 127.302ZM117.624 2.97347C106.126 2.97347 96.4438 6.69271 89.7116 13.8276C71.5575 33.031 80.7858 71.5136 110.286 99.5218C139.787 127.53 178.516 134.665 196.67 115.461L197.048 115.841L196.67 115.461C214.824 96.2579 205.596 57.7752 176.095 29.7671C161.799 16.1805 144.855 6.99632 128.516 4.03611C124.734 3.27708 121.103 2.97347 117.624 2.97347Z" fill="url(#paint2_linear)"/>
<path d="M159.53 155.007C155.521 155.007 151.436 154.627 147.124 153.944C126.701 150.604 105.823 139.598 88.2744 122.9C52.0417 88.4399 41.5274 40.2417 64.9766 15.4215C88.3501 -9.32278 136.912 -1.50479 173.145 33.031C190.694 49.7296 202.797 70.0715 207.26 90.2616C211.723 110.604 207.941 128.441 196.519 140.433L196.141 140.054L196.519 140.433C187.517 149.997 174.658 155.007 159.53 155.007ZM101.966 2.13854C87.518 2.13854 74.7344 6.6927 65.733 16.2564C42.8133 40.5453 53.252 88.0604 89.0308 122.065C106.429 138.612 127.079 149.466 147.276 152.805C167.396 156.069 184.567 151.439 195.611 139.674C206.73 127.909 210.437 110.452 206.05 90.4893C201.662 70.451 189.711 50.3368 172.313 33.79C150.604 13.1444 124.356 2.13854 101.966 2.13854Z" fill="url(#paint3_linear)"/>
<path d="M145.233 176.867C120.12 176.867 91.527 165.102 68.0022 142.786C28.063 104.835 17.7756 50.4127 45.0069 21.5696C72.3138 -7.3493 127.003 0.0132608 166.942 37.9646C206.882 75.916 217.169 130.338 189.938 159.181C178.667 171.098 162.858 176.867 145.233 176.867ZM89.7116 5.02284C72.4651 5.02284 56.8827 10.6396 45.839 22.3287C19.0615 50.7922 29.3489 104.455 68.8343 141.951C108.32 179.447 162.253 186.886 189.106 158.422L189.484 158.802L189.106 158.422C215.959 129.959 205.671 76.2955 166.186 38.7996C142.888 16.7119 114.522 5.02284 89.7116 5.02284Z" fill="url(#paint4_linear)"/>
<path d="M130.71 193.034C104.689 193.034 75.7181 181.345 52.1176 158.954C32.148 139.978 18.9862 116.22 14.9772 92.0074C10.9681 67.7185 16.7926 45.9344 31.1647 30.678C60.9678 -0.821669 118.683 5.40236 159.984 44.6441C201.284 83.8858 210.664 141.42 180.861 172.92C168.153 186.43 150.226 193.034 130.71 193.034ZM81.3912 11.7023C62.1781 11.7023 44.5534 18.154 31.9967 31.437C17.8516 46.4657 12.1784 67.8703 16.1118 91.7797C20.0452 115.765 33.1314 139.295 52.874 158.119C76.2476 180.358 104.916 191.895 130.71 191.895C149.923 191.895 167.548 185.444 180.105 172.161C209.454 141.116 200.074 84.2653 159.227 45.479C135.854 23.2395 107.185 11.7023 81.3912 11.7023Z" fill="url(#paint5_linear)"/>
<path d="M115.43 203.888C113.085 203.888 110.665 203.812 108.32 203.584C83.8116 201.687 59.5304 190.453 39.939 171.781C-0.605352 133.374 -8.1696 75.2329 22.9951 42.2152C54.1598 9.19749 112.404 13.5999 152.949 52.0825C193.417 90.5652 200.982 148.707 169.817 181.724L169.439 181.345L169.817 181.724C156.201 196.146 137.064 203.888 115.43 203.888ZM77.4576 21.1901C56.8072 21.1901 37.5941 28.325 23.8271 42.9742C-6.88367 75.6124 0.680567 132.995 40.6954 171.022C60.0599 189.466 84.1142 200.624 108.395 202.522C132.601 204.343 154.159 196.753 168.985 180.965C199.696 148.403 192.132 90.9447 152.117 52.9175C130.105 31.9683 102.722 21.1901 77.4576 21.1901Z" fill="url(#paint6_linear)"/>
<path d="M96.2171 203.736C74.5078 203.736 51.6637 194.931 33.5096 177.626C-0.983372 144.912 -5.90013 93.829 22.4658 63.7716C50.8317 33.7141 101.89 35.9153 136.383 68.7052C153.1 84.5689 163.388 105.139 165.506 126.619C167.624 148.175 161.194 167.986 147.427 182.559L147.049 182.18L147.427 182.559C133.963 196.753 115.582 203.736 96.2171 203.736ZM73.5244 43.7332C54.4625 43.7332 36.3083 50.6404 23.1466 64.5306C-4.76549 94.1326 0.151265 144.456 34.1904 176.791C68.2294 209.125 118.607 211.326 146.519 181.724C160.059 167.379 166.338 147.872 164.295 126.695C162.253 105.442 151.966 85.1761 135.551 69.5402C117.548 52.3861 94.9312 43.7332 73.5244 43.7332Z" fill="url(#paint7_linear)"/>
<path d="M87.2156 199.41C86.7617 199.41 86.3079 199.41 85.854 199.41C66.4895 199.03 47.8059 191.212 33.1312 177.246C18.4566 163.28 9.60643 144.987 8.24487 125.632C6.80766 106.277 13.086 88.2122 25.7183 74.7015C51.8905 46.9211 97.8811 47.7561 128.138 76.5232C158.395 105.29 161.723 151.287 135.551 178.992L135.173 178.612L135.551 178.992C123.146 192.275 106.051 199.41 87.2156 199.41ZM74.1294 55.65C56.3535 55.65 39.1826 62.2535 26.626 75.6124C14.145 88.8195 8.01794 106.581 9.45515 125.632C10.8167 144.684 19.5912 162.749 34.0389 176.487C48.4866 190.225 66.9434 197.968 86.0053 198.347C105.067 198.727 122.389 191.592 134.87 178.385C160.664 151.06 157.336 105.822 127.533 77.51C112.102 62.9366 92.8131 55.65 74.1294 55.65Z" fill="url(#paint8_linear)"/>
<path d="M77.6847 144.684C74.2051 144.684 70.65 143.318 67.8512 140.661C65.2037 138.156 63.5396 134.741 63.3126 131.249C63.0857 127.682 64.2203 124.342 66.5653 121.913C71.4064 116.828 79.8027 116.903 85.3246 122.141C90.8465 127.378 91.4516 135.803 86.6105 140.965C84.2656 143.469 81.0886 144.684 77.6847 144.684ZM75.5667 119.256C72.541 119.256 69.591 120.395 67.3973 122.672C65.2793 124.949 64.2203 127.909 64.4473 131.173C64.6742 134.437 66.187 137.473 68.6076 139.826C73.6756 144.608 81.3912 144.76 85.7784 140.13C90.1657 135.5 89.6362 127.758 84.5682 122.976C82.072 120.471 78.7437 119.256 75.5667 119.256Z" fill="url(#paint9_linear)"/>
<path d="M78.7433 156.904C72.0868 156.904 65.279 154.324 59.9084 149.238C54.7647 144.38 51.6633 137.929 51.2095 131.173C50.7556 124.342 52.9493 117.966 57.4122 113.26C66.6405 103.469 82.828 103.696 93.4179 113.716C98.5616 118.573 101.663 125.025 102.117 131.78C102.571 138.612 100.377 144.987 95.9142 149.693C91.3 154.475 85.0973 156.904 78.7433 156.904ZM74.583 107.036C68.4559 107.036 62.5558 109.313 58.2442 113.867C54.0082 118.422 51.8903 124.418 52.3441 130.945C52.798 137.473 55.748 143.621 60.6648 148.327C70.8009 157.967 86.2319 158.195 95.0821 148.859C99.3181 144.304 101.436 138.308 100.982 131.78C100.528 125.253 97.5783 119.105 92.6615 114.399C87.4422 109.541 80.9369 107.036 74.583 107.036Z" fill="url(#paint10_linear)"/>
<path d="M81.3155 166.923C71.6333 166.923 61.7241 163.204 53.8573 155.69C46.3687 148.555 41.9058 139.219 41.225 129.276C40.5443 119.332 43.7969 110.072 50.3021 103.165C56.8074 96.2579 65.8845 92.5387 75.7936 92.6905C85.7028 92.8423 95.2337 96.8652 102.722 103.924C110.211 111.059 114.674 120.395 115.355 130.338C116.035 140.282 112.783 149.542 106.278 156.449C99.6966 163.432 90.6196 166.923 81.3155 166.923ZM75.1885 93.829C65.8088 93.829 57.2612 97.3965 51.0586 104C44.7802 110.679 41.6033 119.636 42.284 129.276C42.9648 138.915 47.3521 148.024 54.6138 154.931C69.591 169.2 92.435 169.504 105.445 155.69C111.724 149.01 114.901 140.054 114.22 130.414C113.539 120.775 109.152 111.666 101.89 104.759C94.6286 97.8519 85.3246 93.9809 75.718 93.829C75.5667 93.829 75.3398 93.829 75.1885 93.829Z" fill="url(#paint11_linear)"/>
<path d="M82.2985 179.068C69.4393 179.068 56.2775 174.058 45.8389 164.191C35.9297 154.779 29.954 142.331 29.0462 129.2C28.1385 115.993 32.4502 103.696 41.0734 94.5122C58.925 75.5365 90.1653 75.9919 110.664 95.4989C131.164 115.006 133.282 146.278 115.43 165.178C106.655 174.438 94.7039 179.068 82.2985 179.068ZM74.2048 81.6846C62.1776 81.6846 50.4531 86.1629 41.9055 95.2712C33.4335 104.228 29.2732 116.22 30.1809 129.048C31.0886 141.951 36.9131 154.096 46.5953 163.356C66.6405 182.408 97.1244 182.863 114.598 164.419C132.071 145.898 129.953 115.385 109.908 96.3338C99.6963 86.5424 86.7614 81.6846 74.2048 81.6846Z" fill="url(#paint12_linear)"/>
<path d="M86.0808 190.605C85.4757 190.605 84.8705 190.605 84.2654 190.605C67.7753 190.15 51.7392 183.242 39.1069 171.25C26.4746 159.257 18.7591 143.545 17.3975 127.074C16.0359 110.528 21.1796 95.1953 31.8452 83.8858C42.5864 72.5763 57.5636 66.5799 74.1293 67.0354C90.6194 67.4908 106.656 74.3979 119.288 86.3906C131.92 98.3832 139.636 114.095 140.997 130.566C142.359 147.113 137.215 162.445 126.55 173.755L126.171 173.375L126.55 173.755C116.187 184.685 101.89 190.605 86.0808 190.605ZM72.2383 68.1739C56.8072 68.1739 42.8133 74.0184 32.7529 84.7207C22.2386 95.8025 17.2462 110.831 18.6078 126.999C19.9693 143.242 27.5336 158.65 39.9389 170.415C52.3443 182.18 68.1536 189.011 84.341 189.466C100.529 189.922 115.203 184.077 125.642 172.996C136.156 161.914 141.149 146.885 139.787 130.718C138.425 114.475 130.861 99.0663 118.456 87.3014C106.05 75.3847 90.2411 68.6293 74.0537 68.1739C73.4485 68.1739 72.8434 68.1739 72.2383 68.1739Z" fill="url(#paint13_linear)"/>
<path d="M103.63 207C79.5758 207 53.8574 197.057 33.3583 177.55C14.8259 159.94 3.25262 137.321 0.605139 113.867C-2.04235 90.3375 4.68983 68.7052 19.5157 52.9934C34.3417 37.2815 55.4459 29.3876 79.0463 30.7539C102.571 32.1201 125.718 42.5188 144.25 60.1282C182.45 96.4097 188.652 152.274 158.168 184.685C143.872 199.637 124.356 207 103.63 207ZM73.7514 31.7406C52.5715 31.7406 33.7365 39.4827 20.2722 53.7524C5.67318 69.1607 -0.907709 90.4893 1.66413 113.716C4.23598 136.942 15.8093 159.333 34.1147 176.715C71.8603 212.541 127.079 215.805 157.185 183.85C187.291 151.971 181.088 96.7893 143.342 60.8873C125.037 43.5055 102.117 33.1828 78.8951 31.8165C77.1553 31.8165 75.4911 31.7406 73.7514 31.7406Z" fill="url(#paint14_linear)"/>
<defs>
<linearGradient id="paint0_linear" x1="156.916" y1="18.6326" x2="176.449" y2="69.1962" gradientUnits="userSpaceOnUse">
<stop stop-color="#6F45FF"/>
<stop offset="1" stop-color="#FF6365"/>
</linearGradient>
<linearGradient id="paint1_linear" x1="143.623" y1="3.51073" x2="178.387" y2="97.8789" gradientUnits="userSpaceOnUse">
<stop stop-color="#6F45FF"/>
<stop offset="1" stop-color="#FF6365"/>
</linearGradient>
<linearGradient id="paint2_linear" x1="129.805" y1="-6.70558" x2="182.787" y2="125.426" gradientUnits="userSpaceOnUse">
<stop stop-color="#6F45FF"/>
<stop offset="1" stop-color="#FF6365"/>
</linearGradient>
<linearGradient id="paint3_linear" x1="115.936" y1="-9.91348" x2="182.911" y2="150.215" gradientUnits="userSpaceOnUse">
<stop stop-color="#6F45FF"/>
<stop offset="1" stop-color="#FF6365"/>
</linearGradient>
<linearGradient id="paint4_linear" x1="103.484" y1="-8.81954" x2="181.623" y2="167.45" gradientUnits="userSpaceOnUse">
<stop stop-color="#6F45FF"/>
<stop offset="1" stop-color="#FF6365"/>
</linearGradient>
<linearGradient id="paint5_linear" x1="94.0419" y1="-3.36473" x2="178.907" y2="178.612" gradientUnits="userSpaceOnUse">
<stop stop-color="#6F45FF"/>
<stop offset="1" stop-color="#FF6365"/>
</linearGradient>
<linearGradient id="paint6_linear" x1="87.7909" y1="5.42198" x2="175.731" y2="183.486" gradientUnits="userSpaceOnUse">
<stop stop-color="#6F45FF"/>
<stop offset="1" stop-color="#FF6365"/>
</linearGradient>
<linearGradient id="paint7_linear" x1="80.4616" y1="29.433" x2="159.105" y2="180.518" gradientUnits="userSpaceOnUse">
<stop stop-color="#6F45FF"/>
<stop offset="1" stop-color="#FF6365"/>
</linearGradient>
<linearGradient id="paint8_linear" x1="78.7796" y1="42.4803" x2="150.288" y2="174.839" gradientUnits="userSpaceOnUse">
<stop stop-color="#6F45FF"/>
<stop offset="1" stop-color="#FF6365"/>
</linearGradient>
<linearGradient id="paint9_linear" x1="76.4145" y1="115.942" x2="89.5264" y2="140.083" gradientUnits="userSpaceOnUse">
<stop stop-color="#6F45FF"/>
<stop offset="1" stop-color="#FF6365"/>
</linearGradient>
<linearGradient id="paint10_linear" x1="76.1573" y1="101.722" x2="101.313" y2="148.039" gradientUnits="userSpaceOnUse">
<stop stop-color="#6F45FF"/>
<stop offset="1" stop-color="#FF6365"/>
</linearGradient>
<linearGradient id="paint11_linear" x1="77.5104" y1="86.5128" x2="114.182" y2="154.032" gradientUnits="userSpaceOnUse">
<stop stop-color="#6F45FF"/>
<stop offset="1" stop-color="#FF6365"/>
</linearGradient>
<linearGradient id="paint12_linear" x1="77.2387" y1="72.375" x2="125.901" y2="161.97" gradientUnits="userSpaceOnUse">
<stop stop-color="#6F45FF"/>
<stop offset="1" stop-color="#FF6365"/>
</linearGradient>
<linearGradient id="paint13_linear" x1="76.847" y1="56.86" x2="137.564" y2="171.027" gradientUnits="userSpaceOnUse">
<stop stop-color="#6F45FF"/>
<stop offset="1" stop-color="#FF6365"/>
</linearGradient>
<linearGradient id="paint14_linear" x1="82.4715" y1="16.3737" x2="167.907" y2="184.182" gradientUnits="userSpaceOnUse">
<stop stop-color="#6F45FF"/>
<stop offset="1" stop-color="#FF6365"/>
</linearGradient>
</defs>
</svg>
